<svg xmlns="http://www.w3.org/2000/svg" xmlns:xlink="http://www.w3.org/1999/xlink" viewBox="0 0 1163.46 1052.73"><defs><style>.cls-1{fill:#ececec;}.cls-2{fill:#fafafa;}.cls-3{fill:#e1e1e1;}.cls-4{fill:#f5f5f5;}.cls-5{opacity:0.2;}.cls-13,.cls-6{fill:#fff;}.cls-7{fill:#f4cf14;}.cls-8{fill:#ff4f5b;}.cls-9{fill:#1a2e35;}.cls-10{fill:#375a64;}.cls-11{fill:#cea806;}.cls-12{opacity:0.4;}.cls-13{stroke:#e87e83;}.cls-13,.cls-21{stroke-linejoin:round;}.cls-14{fill:#e29fa7;}.cls-15{fill:#ef8b8b;}.cls-16{fill:#ed7d5f;}.cls-17{fill:url(#linear-gradient);}.cls-18{fill:url(#linear-gradient-2);}.cls-19{fill:#403238;}.cls-20{fill:#ea6b53;}.cls-21,.cls-23{fill:none;stroke-width:0.75px;}.cls-21{stroke:#6d221d;}.cls-22{fill:#f4cd0b;}.cls-23{stroke:#a5634c;stroke-miterlimit:10;}.cls-24{fill:url(#linear-gradient-3);}.cls-25{fill:url(#linear-gradient-4);}.cls-26{fill:url(#linear-gradient-5);}</style><linearGradient id="linear-gradient" x1="699.08" y1="1080.82" x2="826.63" y2="1080.82" gradientUnits="userSpaceOnUse"><stop offset="0.3" stop-color="#c1272d"/><stop offset="0.87" stop-color="#ed1c24"/></linearGradient><linearGradient id="linear-gradient-2" x1="498.8" y1="1084.75" x2="631.89" y2="1084.75" xlink:href="#linear-gradient"/><linearGradient id="linear-gradient-3" x1="279.06" y1="960.95" x2="723.72" y2="960.95" xlink:href="#linear-gradient"/><linearGradient id="linear-gradient-4" x1="199.99" y1="948.69" x2="579.5" y2="948.69" xlink:href="#linear-gradient"/><linearGradient id="linear-gradient-5" x1="214.54" y1="954.75" x2="256.49" y2="954.75" xlink:href="#linear-gradient"/></defs><title>chilling at home</title><g id="Layer_1" data-name="Layer 1"><rect class="cls-1" x="275.11" y="21.94" width="289.02" height="519.21"/><rect class="cls-2" x="286.66" y="36.99" width="262.95" height="488.69"/><polygon class="cls-3" points="576.36 545.83 564.13 541.15 564.13 13.13 576.36 13.13 576.36 545.83"/><path class="cls-4" d="M394.44,425l68.29-63.48c8.65-8,20-16.7,31.09-12.74,5.36,1.91,9.38,6.48,14.63,8.66,10.48,4.37,22.46-1.93,30.52-9.94s14.43-18,24.19-23.8,24.94-5.07,29.77,5.21V398l-99.25,42.49Z" transform="translate(-43.32 -72.38)"/><path class="cls-3" d="M330,385.33c25.16-10.25,50.28-1.53,68.29,18.81,3.79,4.28,7.24,9.23,12.45,11.59,7,3.2,15.2.81,22.9-.07,21-2.38,43,8.27,54.16,26.26l-84,41.32L330,482.71Z" transform="translate(-43.32 -72.38)"/><path class="cls-1" d="M592.93,385.68c-16.58-8-31.17,1.68-46.46,11.92S517,421,499,425.11c-12,2.76-24.83,1.23-36.41,5.36-23.61,8.4-37.26,38.38-62.27,39.8-13.58.78-25.77-7.45-37.89-13.63s-21.68-12-32.49-3.78v145.2H592.93Z" transform="translate(-43.32 -72.38)"/><rect class="cls-3" x="286.66" y="177.57" width="268.66" height="5.2"/><rect class="cls-3" x="286.66" y="293.95" width="268.66" height="5.2"/><rect class="cls-3" x="286.66" y="410.33" width="268.66" height="5.2"/><rect class="cls-3" x="281.77" y="425.59" width="359.36" height="13.29" transform="translate(-14.11 821.31) rotate(-90)"/><rect class="cls-3" x="337.29" y="36.99" width="6.02" height="143.18"/><rect class="cls-3" x="389.2" y="36.99" width="6.02" height="143.18"/><rect class="cls-3" x="441.11" y="36.99" width="6.02" height="143.18"/><rect class="cls-3" x="493.01" y="36.99" width="6.02" height="143.18"/><rect class="cls-3" x="262.88" y="13.13" width="12.22" height="531.23"/><rect class="cls-3" x="262.88" y="7.77" width="313.47" height="14.17"/><rect class="cls-3" x="254.21" y="547.58" width="330.42" height="13.2"/><polygon class="cls-1" points="564.13 541.15 584.63 547.58 254.21 547.58 275.11 541.15 564.13 541.15"/><rect class="cls-1" x="680.59" y="162.09" width="224.99" height="291.75"/><path class="cls-3" d="M739.25,455.9a1.85,1.85,0,0,1,1.12.17,3.58,3.58,0,0,1,2,2.55A3.32,3.32,0,0,1,742,461a4,4,0,0,1-2.16,1.85,4.11,4.11,0,0,1-3.27-.11,5.54,5.54,0,0,1-2.58-2.61c-1.22-2.38-.76-5.55.87-8.08a8.41,8.41,0,0,1,3.44-3.18,5.25,5.25,0,0,1,2.46-.54,5,5,0,0,1,2.47.81,8.84,8.84,0,0,1,3.11,4.2,18.1,18.1,0,0,1,1.07,5.3,19.65,19.65,0,0,1-2.59,10.91c-1.93,3.39-4.5,6.16-6.73,9a26.19,26.19,0,0,0-5.1,8.83,12.32,12.32,0,0,0,.57,8.93,7,7,0,0,0,6.37,3.91,5.67,5.67,0,0,0,3.22-1,4.46,4.46,0,0,0,1.7-2.44A5.93,5.93,0,0,0,744,492a4,4,0,0,0-2.47-1.81,3,3,0,0,0-.81-.08.94.94,0,0,1-.29,0,.87.87,0,0,1,.28,0,2.63,2.63,0,0,1,.85,0,4.07,4.07,0,0,1,2.68,1.79,6.24,6.24,0,0,1,1,5,4.85,4.85,0,0,1-1.82,2.72A6.16,6.16,0,0,1,740,500.7a7.6,7.6,0,0,1-3.91-1,7.5,7.5,0,0,1-3-3.16,12.94,12.94,0,0,1-.69-9.41,26.86,26.86,0,0,1,5.19-9.1c2.25-2.83,4.79-5.58,6.66-8.87a19,19,0,0,0,2.51-10.51,17.7,17.7,0,0,0-1-5.08,8.05,8.05,0,0,0-2.82-3.89,4.29,4.29,0,0,0-4.29-.26,8,8,0,0,0-3.2,2.93c-1.56,2.38-2,5.34-.91,7.52a5.09,5.09,0,0,0,2.31,2.42,3.85,3.85,0,0,0,4.93-1.49,3.09,3.09,0,0,0,.34-2.15,3.51,3.51,0,0,0-1.74-2.47A4.31,4.31,0,0,0,739.25,455.9Z" transform="translate(-43.32 -72.38)"/><path class="cls-3" d="M741.22,429.35a1.85,1.85,0,0,1-1.12-.17,3.58,3.58,0,0,1-2-2.54,3.37,3.37,0,0,1,.32-2.37,4.07,4.07,0,0,1,2.17-1.86,4.19,4.19,0,0,1,3.27.11,5.5,5.5,0,0,1,2.57,2.62c1.22,2.37.76,5.54-.86,8.08a8.55,8.55,0,0,1-3.44,3.18,5.26,5.26,0,0,1-2.47.53,4.9,4.9,0,0,1-2.47-.81,8.71,8.71,0,0,1-3.1-4.2,18,18,0,0,1-1.07-5.29,19.66,19.66,0,0,1,2.59-10.92c1.92-3.38,4.5-6.16,6.73-9a26.45,26.45,0,0,0,5.1-8.83,12.29,12.29,0,0,0-.58-8.94,7,7,0,0,0-6.37-3.91,5.67,5.67,0,0,0-3.21,1,4.46,4.46,0,0,0-1.71,2.44,6,6,0,0,0,.86,4.73,4,4,0,0,0,2.47,1.8,2.67,2.67,0,0,0,.82.08.94.94,0,0,1,.29,0,1,1,0,0,1-.28.06,2.42,2.42,0,0,1-.85,0,4.07,4.07,0,0,1-2.68-1.79,6.24,6.24,0,0,1-1-5,4.9,4.9,0,0,1,1.83-2.71,6.12,6.12,0,0,1,3.48-1.16,7.73,7.73,0,0,1,3.91,1,7.53,7.53,0,0,1,3,3.17,12.91,12.91,0,0,1,.68,9.4,26.83,26.83,0,0,1-5.18,9.1c-2.25,2.83-4.79,5.59-6.66,8.88a19,19,0,0,0-2.51,10.51,17.3,17.3,0,0,0,1,5.07,8.1,8.1,0,0,0,2.81,3.89,4.27,4.27,0,0,0,4.29.26,7.86,7.86,0,0,0,3.2-2.92c1.56-2.39,2-5.34.91-7.52a5,5,0,0,0-2.3-2.43,3.75,3.75,0,0,0-2.93-.14,3.7,3.7,0,0,0-2,1.63,3,3,0,0,0-.34,2.15,3.46,3.46,0,0,0,1.73,2.47A4,4,0,0,0,741.22,429.35Z" transform="translate(-43.32 -72.38)"/><path class="cls-3" d="M742.52,442.1a2.29,2.29,0,1,1-2.29-2.28A2.28,2.28,0,0,1,742.52,442.1Z" transform="translate(-43.32 -72.38)"/><path class="cls-3" d="M743.52,381.15a2.29,2.29,0,1,1-2.29-2.29A2.3,2.3,0,0,1,743.52,381.15Z" transform="translate(-43.32 -72.38)"/><path class="cls-3" d="M740.25,306.16a4.44,4.44,0,0,0,1.06-.3,3.54,3.54,0,0,0,1.74-2.48,3,3,0,0,0-.35-2.15,3.64,3.64,0,0,0-2-1.64,3.71,3.71,0,0,0-2.93.15,5,5,0,0,0-2.3,2.43c-1.09,2.19-.65,5.14.91,7.54a8,8,0,0,0,3.2,2.93,4.26,4.26,0,0,0,4.3-.27,8.17,8.17,0,0,0,2.81-3.9,17.49,17.49,0,0,0,1-5.09,19,19,0,0,0-2.51-10.53c-1.86-3.3-4.4-6.06-6.65-8.9a27,27,0,0,1-5.19-9.12,13,13,0,0,1,.68-9.42,7.53,7.53,0,0,1,3-3.18,7.67,7.67,0,0,1,3.92-1,6,6,0,0,1,3.48,1.16,4.89,4.89,0,0,1,1.83,2.72,6.31,6.31,0,0,1-1,5,4.13,4.13,0,0,1-2.68,1.8,2.62,2.62,0,0,1-.85,0,.15.15,0,1,1,0-.07,3,3,0,0,0,.82-.08A4,4,0,0,0,745,270a6,6,0,0,0,.86-4.74,4.44,4.44,0,0,0-1.71-2.44,5.6,5.6,0,0,0-3.21-1,7,7,0,0,0-6.38,3.93,12.37,12.37,0,0,0-.56,8.95,26.54,26.54,0,0,0,5.09,8.86c2.24,2.81,4.81,5.59,6.74,9a19.78,19.78,0,0,1,2.59,10.93,18.36,18.36,0,0,1-1.07,5.3,8.82,8.82,0,0,1-3.1,4.22,5,5,0,0,1-2.47.82,5.14,5.14,0,0,1-2.47-.54,8.52,8.52,0,0,1-3.45-3.19c-1.62-2.53-2.08-5.71-.86-8.09a5.52,5.52,0,0,1,2.57-2.63,4.19,4.19,0,0,1,3.27-.11,4.07,4.07,0,0,1,2.17,1.86,3.37,3.37,0,0,1,.32,2.37,3.6,3.6,0,0,1-2,2.56A1.85,1.85,0,0,1,740.25,306.16Z" transform="translate(-43.32 -72.38)"/><path class="cls-3" d="M740.94,332.78a4.43,4.43,0,0,0-1.07.3,3.51,3.51,0,0,0-1.73,2.48,3.09,3.09,0,0,0,.34,2.15,3.67,3.67,0,0,0,2,1.64,3.78,3.78,0,0,0,2.94-.14,5.16,5.16,0,0,0,2.3-2.44c1.08-2.19.64-5.14-.92-7.54a8,8,0,0,0-3.2-2.93,4.26,4.26,0,0,0-4.29.27,8,8,0,0,0-2.81,3.9,17.5,17.5,0,0,0-1,5.09A19.11,19.11,0,0,0,736,346.09c1.86,3.3,4.41,6.06,6.66,8.9a27,27,0,0,1,5.18,9.12,12.91,12.91,0,0,1-.68,9.42,7.47,7.47,0,0,1-3,3.18,7.61,7.61,0,0,1-3.91,1,6.1,6.1,0,0,1-3.49-1.16,4.82,4.82,0,0,1-1.82-2.72,6.23,6.23,0,0,1,1-5,4.11,4.11,0,0,1,2.68-1.8,2.63,2.63,0,0,1,.85,0,.87.87,0,0,1,.28.05s-.1,0-.29,0a3,3,0,0,0-.82.08,4,4,0,0,0-2.47,1.82,6,6,0,0,0-.85,4.74,4.43,4.43,0,0,0,1.7,2.44,5.61,5.61,0,0,0,3.22,1,7,7,0,0,0,6.37-3.93,12.37,12.37,0,0,0,.57-8.95,26.57,26.57,0,0,0-5.1-8.86c-2.23-2.81-4.81-5.59-6.73-9a19.69,19.69,0,0,1-2.59-10.93,18,18,0,0,1,1.07-5.3,8.79,8.79,0,0,1,3.09-4.22,5,5,0,0,1,2.48-.82,5.19,5.19,0,0,1,2.47.54,8.43,8.43,0,0,1,3.44,3.19c1.62,2.53,2.08,5.71.87,8.09a5.56,5.56,0,0,1-2.57,2.63,4.17,4.17,0,0,1-3.28.11,4.11,4.11,0,0,1-2.17-1.86,3.43,3.43,0,0,1-.32-2.37,3.6,3.6,0,0,1,2-2.56A1.88,1.88,0,0,1,740.94,332.78Z" transform="translate(-43.32 -72.38)"/><path class="cls-3" d="M743.52,320a2.29,2.29,0,1,0-2.29,2.29A2.3,2.3,0,0,0,743.52,320Z" transform="translate(-43.32 -72.38)"/><path class="cls-3" d="M929.15,455.9a1.85,1.85,0,0,1,1.12.17,3.6,3.6,0,0,1,2,2.55,3.37,3.37,0,0,1-.32,2.37,4,4,0,0,1-2.16,1.85,4.13,4.13,0,0,1-3.28-.11,5.56,5.56,0,0,1-2.57-2.61c-1.22-2.38-.76-5.55.86-8.08a8.54,8.54,0,0,1,3.44-3.18,5.32,5.32,0,0,1,2.47-.54,5,5,0,0,1,2.47.81,8.75,8.75,0,0,1,3.1,4.2,18.11,18.11,0,0,1,1.08,5.3,19.65,19.65,0,0,1-2.59,10.91c-1.93,3.39-4.5,6.16-6.74,9a26.52,26.52,0,0,0-5.1,8.83,12.37,12.37,0,0,0,.58,8.93,7,7,0,0,0,6.37,3.91,5.72,5.72,0,0,0,3.22-1,4.51,4.51,0,0,0,1.7-2.44,6,6,0,0,0-.86-4.73,4,4,0,0,0-2.47-1.81,3,3,0,0,0-.82-.08,1.06,1.06,0,0,1-.29,0,1,1,0,0,1,.29,0,2.62,2.62,0,0,1,.85,0,4,4,0,0,1,2.67,1.79,6.24,6.24,0,0,1,1,5,4.92,4.92,0,0,1-1.83,2.72,6.11,6.11,0,0,1-3.48,1.15,7.63,7.63,0,0,1-3.91-1,7.54,7.54,0,0,1-3-3.16,12.89,12.89,0,0,1-.69-9.41,26.86,26.86,0,0,1,5.19-9.1c2.25-2.83,4.79-5.58,6.65-8.87a18.88,18.88,0,0,0,2.51-10.51,17,17,0,0,0-1-5.08,8,8,0,0,0-2.81-3.89,4.29,4.29,0,0,0-4.29-.26,8,8,0,0,0-3.2,2.93c-1.56,2.38-2,5.34-.91,7.52a5.11,5.11,0,0,0,2.3,2.42,3.71,3.71,0,0,0,2.93.14,3.66,3.66,0,0,0,2-1.63,3,3,0,0,0,.35-2.15,3.54,3.54,0,0,0-1.74-2.47A4.44,4.44,0,0,0,929.15,455.9Z" transform="translate(-43.32 -72.38)"/><path class="cls-3" d="M931.12,429.35a1.85,1.85,0,0,1-1.12-.17,3.58,3.58,0,0,1-2-2.54,3.37,3.37,0,0,1,.32-2.37,4,4,0,0,1,2.16-1.86,4.22,4.22,0,0,1,3.28.11,5.59,5.59,0,0,1,2.57,2.62c1.22,2.37.76,5.54-.86,8.08a8.61,8.61,0,0,1-3.44,3.18,5.31,5.31,0,0,1-2.47.53,4.9,4.9,0,0,1-2.47-.81,8.71,8.71,0,0,1-3.1-4.2,18,18,0,0,1-1.08-5.29,19.74,19.74,0,0,1,2.59-10.92c1.93-3.38,4.51-6.16,6.74-9a26.62,26.62,0,0,0,5.1-8.83,12.39,12.39,0,0,0-.58-8.94,7,7,0,0,0-6.37-3.91,5.67,5.67,0,0,0-3.21,1,4.41,4.41,0,0,0-1.71,2.44,6,6,0,0,0,.86,4.73,4,4,0,0,0,2.47,1.8,2.65,2.65,0,0,0,.82.08,1,1,0,0,1,.29,0l-.29.06a2.41,2.41,0,0,1-.85,0,4,4,0,0,1-2.67-1.79,6.24,6.24,0,0,1-1-5,4.9,4.9,0,0,1,1.83-2.71,6.12,6.12,0,0,1,3.48-1.16,7.73,7.73,0,0,1,3.91,1,7.45,7.45,0,0,1,3,3.17,12.86,12.86,0,0,1,.69,9.4,26.86,26.86,0,0,1-5.19,9.1c-2.25,2.83-4.79,5.59-6.65,8.88a18.94,18.94,0,0,0-2.51,10.51,17,17,0,0,0,1,5.07,8,8,0,0,0,2.81,3.89,4.26,4.26,0,0,0,4.29.26,7.92,7.92,0,0,0,3.2-2.92c1.56-2.39,2-5.34.91-7.52a5.09,5.09,0,0,0-2.3-2.43,3.75,3.75,0,0,0-2.93-.14,3.66,3.66,0,0,0-2,1.63,3.05,3.05,0,0,0-.35,2.15,3.5,3.5,0,0,0,1.74,2.47A3.9,3.9,0,0,0,931.12,429.35Z" transform="translate(-43.32 -72.38)"/><path class="cls-3" d="M932.42,442.1a2.29,2.29,0,1,1-2.29-2.28A2.29,2.29,0,0,1,932.42,442.1Z" transform="translate(-43.32 -72.38)"/><path class="cls-3" d="M933.41,381.15a2.29,2.29,0,1,1-2.28-2.29A2.29,2.29,0,0,1,933.41,381.15Z" transform="translate(-43.32 -72.38)"/><path class="cls-3" d="M930.15,306.16a4.58,4.58,0,0,0,1.06-.3,3.51,3.51,0,0,0,1.73-2.48,3,3,0,0,0-.34-2.15,3.83,3.83,0,0,0-4.93-1.49,5.07,5.07,0,0,0-2.31,2.43c-1.08,2.19-.64,5.14.92,7.54a8,8,0,0,0,3.2,2.93,4.24,4.24,0,0,0,4.29-.27,8,8,0,0,0,2.81-3.9,17.5,17.5,0,0,0,1-5.09,19.11,19.11,0,0,0-2.51-10.53c-1.86-3.3-4.41-6.06-6.66-8.9a27,27,0,0,1-5.18-9.12,12.91,12.91,0,0,1,.68-9.42,7.53,7.53,0,0,1,3-3.18,7.64,7.64,0,0,1,3.91-1,6.1,6.1,0,0,1,3.49,1.16,4.89,4.89,0,0,1,1.83,2.72,6.27,6.27,0,0,1-1,5,4.09,4.09,0,0,1-2.67,1.8,2.68,2.68,0,0,1-.86,0,.87.87,0,0,1-.28-.05.94.94,0,0,1,.29,0,3,3,0,0,0,.82-.08A4,4,0,0,0,934.9,270a6,6,0,0,0,.86-4.74,4.5,4.5,0,0,0-1.71-2.44,5.61,5.61,0,0,0-3.22-1,7,7,0,0,0-6.37,3.93,12.42,12.42,0,0,0-.57,8.95,26.57,26.57,0,0,0,5.1,8.86c2.23,2.81,4.81,5.59,6.73,9a19.69,19.69,0,0,1,2.59,10.93,18,18,0,0,1-1.07,5.3,8.74,8.74,0,0,1-3.09,4.22,5,5,0,0,1-2.48.82,5.19,5.19,0,0,1-2.47-.54,8.5,8.5,0,0,1-3.44-3.19c-1.62-2.53-2.08-5.71-.87-8.09a5.56,5.56,0,0,1,2.57-2.63,4.22,4.22,0,0,1,3.28-.11,4.11,4.11,0,0,1,2.17,1.86,3.37,3.37,0,0,1,.32,2.37,3.6,3.6,0,0,1-2,2.56A1.85,1.85,0,0,1,930.15,306.16Z" transform="translate(-43.32 -72.38)"/><path class="cls-3" d="M930.83,332.78a4.44,4.44,0,0,0-1.06.3,3.54,3.54,0,0,0-1.74,2.48,3.1,3.1,0,0,0,.35,2.15,3.64,3.64,0,0,0,2,1.64,3.75,3.75,0,0,0,2.93-.14,5.13,5.13,0,0,0,2.31-2.44c1.08-2.19.64-5.14-.92-7.54a8,8,0,0,0-3.2-2.93,4.28,4.28,0,0,0-4.3.27,8.17,8.17,0,0,0-2.81,3.9,17.49,17.49,0,0,0-1,5.09,19,19,0,0,0,2.51,10.53c1.86,3.3,4.4,6.06,6.65,8.9a27,27,0,0,1,5.19,9.12,13,13,0,0,1-.68,9.42,7.47,7.47,0,0,1-3,3.18,7.65,7.65,0,0,1-3.92,1,6,6,0,0,1-3.48-1.16,4.89,4.89,0,0,1-1.83-2.72,6.31,6.31,0,0,1,1-5,4.13,4.13,0,0,1,2.68-1.8,2.62,2.62,0,0,1,.85,0,1,1,0,0,1,.29.05s-.1,0-.29,0a3,3,0,0,0-.82.08,4,4,0,0,0-2.47,1.82,6,6,0,0,0-.86,4.74,4.44,4.44,0,0,0,1.71,2.44,5.61,5.61,0,0,0,3.22,1,7,7,0,0,0,6.37-3.93,12.42,12.42,0,0,0,.57-8.95,26.75,26.75,0,0,0-5.1-8.86c-2.24-2.81-4.81-5.59-6.74-9a19.68,19.68,0,0,1-2.58-10.93,17.72,17.72,0,0,1,1.07-5.3,8.79,8.79,0,0,1,3.09-4.22,5,5,0,0,1,2.47-.82,5.14,5.14,0,0,1,2.47.54,8.46,8.46,0,0,1,3.45,3.19c1.62,2.53,2.08,5.71.87,8.09a5.58,5.58,0,0,1-2.58,2.63,4.15,4.15,0,0,1-3.27.11,4.07,4.07,0,0,1-2.17-1.86,3.37,3.37,0,0,1-.32-2.37,3.6,3.6,0,0,1,2-2.56A1.85,1.85,0,0,1,930.83,332.78Z" transform="translate(-43.32 -72.38)"/><ellipse class="cls-3" cx="887.8" cy="247.62" rx="2.29" ry="2.29"/><path class="cls-3" d="M820.78,509.94a4.38,4.38,0,0,0-.31-1.06,3.5,3.5,0,0,0-2.47-1.74,3.1,3.1,0,0,0-2.15.35,3.64,3.64,0,0,0-1.64,2,3.71,3.71,0,0,0,.14,2.93,5.13,5.13,0,0,0,2.44,2.31c2.18,1.08,5.14.64,7.53-.92a7.88,7.88,0,0,0,2.93-3.2,4.26,4.26,0,0,0-.26-4.3,8.17,8.17,0,0,0-3.9-2.81,17.83,17.83,0,0,0-5.09-1A19.11,19.11,0,0,0,807.47,505c-3.3,1.86-6.06,4.41-8.9,6.65a27,27,0,0,1-9.12,5.19,13,13,0,0,1-9.43-.68,7.5,7.5,0,0,1-3.17-3,7.64,7.64,0,0,1-1-3.91,6.08,6.08,0,0,1,1.16-3.49,4.89,4.89,0,0,1,2.72-1.83,6.27,6.27,0,0,1,5,1,4,4,0,0,1,1.79,2.67,2.41,2.41,0,0,1,0,.85.9.9,0,0,1,0,.29s0-.1,0-.29a2.58,2.58,0,0,0-.07-.82,4,4,0,0,0-1.82-2.47,6,6,0,0,0-4.74-.86,4.47,4.47,0,0,0-2.45,1.71,5.67,5.67,0,0,0-1,3.22,7,7,0,0,0,3.93,6.37,12.42,12.42,0,0,0,9,.57,26.75,26.75,0,0,0,8.86-5.1c2.81-2.23,5.59-4.81,9-6.73A19.69,19.69,0,0,1,818,501.78a17.85,17.85,0,0,1,5.3,1.07,8.79,8.79,0,0,1,4.22,3.09,5,5,0,0,1,.82,2.48,5.25,5.25,0,0,1-.54,2.46,8.53,8.53,0,0,1-3.19,3.45c-2.53,1.62-5.71,2.08-8.09.87a5.61,5.61,0,0,1-2.63-2.57,4.23,4.23,0,0,1,1.75-5.45,3.37,3.37,0,0,1,2.37-.32,3.6,3.6,0,0,1,2.56,2A1.85,1.85,0,0,1,820.78,509.94Z" transform="translate(-43.32 -72.38)"/><path class="cls-3" d="M884.79,509.26a1.85,1.85,0,0,1-.17,1.12,3.6,3.6,0,0,1-2.55,2,3.39,3.39,0,0,1-2.38-.32,4.11,4.11,0,0,1-1.86-2.17,4.22,4.22,0,0,1,.11-3.28,5.61,5.61,0,0,1,2.63-2.57c2.38-1.21,5.56-.75,8.1.87a8.63,8.63,0,0,1,3.19,3.44,5.31,5.31,0,0,1,.53,2.47,5,5,0,0,1-.82,2.48,8.74,8.74,0,0,1-4.22,3.09,18,18,0,0,1-5.3,1.07,19.71,19.71,0,0,1-10.93-2.59c-3.4-1.92-6.18-4.5-9-6.73a26.75,26.75,0,0,0-8.86-5.1,12.42,12.42,0,0,0-8.95.57,7,7,0,0,0-3.93,6.37,5.68,5.68,0,0,0,1,3.22,4.44,4.44,0,0,0,2.44,1.71,6,6,0,0,0,4.74-.86,4,4,0,0,0,1.82-2.47,3,3,0,0,0,.08-.82.94.94,0,0,1,0-.29.87.87,0,0,1,0,.28,2.69,2.69,0,0,1,0,.86,4.06,4.06,0,0,1-1.8,2.67,6.27,6.27,0,0,1-5,1,4.92,4.92,0,0,1-2.72-1.83,6.15,6.15,0,0,1-1.16-3.49,7.64,7.64,0,0,1,1-3.91,7.53,7.53,0,0,1,3.18-3,13,13,0,0,1,9.42-.68,27.18,27.18,0,0,1,9.12,5.18c2.84,2.25,5.6,4.8,8.9,6.66A19.11,19.11,0,0,0,882,516.7a17.83,17.83,0,0,0,5.09-1,8.08,8.08,0,0,0,3.9-2.82,4.24,4.24,0,0,0,.27-4.29,8,8,0,0,0-2.93-3.2c-2.4-1.56-5.35-2-7.54-.92a5.11,5.11,0,0,0-2.43,2.31,3.71,3.71,0,0,0-.15,2.93,3.64,3.64,0,0,0,1.64,2,3.11,3.11,0,0,0,2.15.35,3.54,3.54,0,0,0,2.48-1.74A4.58,4.58,0,0,0,884.79,509.26Z" transform="translate(-43.32 -72.38)"/><ellipse class="cls-3" cx="791.29" cy="436.58" rx="2.29" ry="2.29"/><path class="cls-3" d="M907.12,506.68a2.29,2.29,0,1,0,2.29,2.28A2.28,2.28,0,0,0,907.12,506.68Z" transform="translate(-43.32 -72.38)"/><path class="cls-3" d="M765.69,506.68A2.29,2.29,0,1,0,768,509,2.29,2.29,0,0,0,765.69,506.68Z" transform="translate(-43.32 -72.38)"/><path class="cls-3" d="M820.78,251.52a4.24,4.24,0,0,0-.31-1.07,3.46,3.46,0,0,0-2.47-1.73,3.09,3.09,0,0,0-2.15.34,3.67,3.67,0,0,0-1.64,2,3.73,3.73,0,0,0,.14,2.94,5.16,5.16,0,0,0,2.44,2.3c2.18,1.08,5.14.64,7.53-.92a7.82,7.82,0,0,0,2.93-3.2,4.24,4.24,0,0,0-.26-4.29,8,8,0,0,0-3.9-2.81,17.5,17.5,0,0,0-5.09-1,19.11,19.11,0,0,0-10.53,2.51c-3.3,1.87-6.06,4.41-8.9,6.66a27,27,0,0,1-9.12,5.18,12.94,12.94,0,0,1-9.43-.68,7.5,7.5,0,0,1-3.17-3,7.61,7.61,0,0,1-1-3.91,6.1,6.1,0,0,1,1.16-3.49,4.82,4.82,0,0,1,2.72-1.82,6.23,6.23,0,0,1,5,1,4.05,4.05,0,0,1,1.79,2.68,2.42,2.42,0,0,1,0,.85.87.87,0,0,1,0,.28s0-.1,0-.29a2.6,2.6,0,0,0-.07-.82,4,4,0,0,0-1.82-2.47,6,6,0,0,0-4.74-.85,4.45,4.45,0,0,0-2.45,1.7,5.67,5.67,0,0,0-1,3.22,7,7,0,0,0,3.93,6.37,12.37,12.37,0,0,0,9,.57,26.57,26.57,0,0,0,8.86-5.1c2.81-2.23,5.59-4.81,9-6.73A19.69,19.69,0,0,1,818,243.35a18.17,18.17,0,0,1,5.3,1.07,8.79,8.79,0,0,1,4.22,3.09,5,5,0,0,1,.82,2.48,5.32,5.32,0,0,1-.54,2.47,8.5,8.5,0,0,1-3.19,3.44c-2.53,1.62-5.71,2.08-8.09.87a5.56,5.56,0,0,1-2.63-2.57,4.23,4.23,0,0,1,1.75-5.45,3.43,3.43,0,0,1,2.37-.32,3.6,3.6,0,0,1,2.56,2A1.88,1.88,0,0,1,820.78,251.52Z" transform="translate(-43.32 -72.38)"/><path class="cls-3" d="M884.79,250.83a1.85,1.85,0,0,1-.17,1.12,3.58,3.58,0,0,1-2.55,2,3.39,3.39,0,0,1-2.38-.32,4.07,4.07,0,0,1-1.86-2.17,4.19,4.19,0,0,1,.11-3.27,5.52,5.52,0,0,1,2.63-2.57c2.38-1.22,5.56-.76,8.1.86a8.66,8.66,0,0,1,3.19,3.45,5.26,5.26,0,0,1,.53,2.47,5,5,0,0,1-.82,2.47,8.82,8.82,0,0,1-4.22,3.1,18.36,18.36,0,0,1-5.3,1.07,19.8,19.8,0,0,1-10.93-2.59c-3.4-1.93-6.18-4.5-9-6.74a26.54,26.54,0,0,0-8.86-5.09,12.37,12.37,0,0,0-8.95.56,7,7,0,0,0-3.93,6.38,5.67,5.67,0,0,0,1,3.21,4.44,4.44,0,0,0,2.44,1.71,6,6,0,0,0,4.74-.86,4,4,0,0,0,1.82-2.47,3,3,0,0,0,.08-.82.15.15,0,1,1,.07,0,2.62,2.62,0,0,1,0,.85,4.09,4.09,0,0,1-1.8,2.68,6.31,6.31,0,0,1-5,1A4.92,4.92,0,0,1,841,255a6.12,6.12,0,0,1-1.16-3.48,7.67,7.67,0,0,1,1-3.92,7.53,7.53,0,0,1,3.18-3,13,13,0,0,1,9.42-.68,27,27,0,0,1,9.12,5.19c2.84,2.25,5.6,4.79,8.9,6.65A19,19,0,0,0,882,258.27a17.49,17.49,0,0,0,5.09-1,8.12,8.12,0,0,0,3.9-2.81,4.26,4.26,0,0,0,.27-4.3,8,8,0,0,0-2.93-3.2c-2.4-1.56-5.35-2-7.54-.91a5,5,0,0,0-2.43,2.3,3.71,3.71,0,0,0-.15,2.93,3.64,3.64,0,0,0,1.64,2,3.05,3.05,0,0,0,2.15.35,3.54,3.54,0,0,0,2.48-1.74A4.44,4.44,0,0,0,884.79,250.83Z" transform="translate(-43.32 -72.38)"/><ellipse class="cls-3" cx="791.29" cy="178.16" rx="2.29" ry="2.29"/><path class="cls-3" d="M907.12,248.25a2.29,2.29,0,1,0,2.29,2.28A2.28,2.28,0,0,0,907.12,248.25Z" transform="translate(-43.32 -72.38)"/><path class="cls-3" d="M765.69,248.25a2.29,2.29,0,1,0,2.29,2.28A2.29,2.29,0,0,0,765.69,248.25Z" transform="translate(-43.32 -72.38)"/><path class="cls-3" d="M916.33,494.46s0-.38,0-1.1,0-1.8,0-3.21c0-2.83,0-7,0-12.44,0-10.87,0-26.74-.09-46.82,0-40.13-.1-97.05-.17-164.29l.34.34-160,0h0l.37-.37c0,85.47-.05,164.47-.07,227.86l-.3-.3,116.36.16,32.23.08,8.46,0,2.92,0-2.86,0-8.4,0-32.16.07-116.55.16h-.3v-.3c0-63.39,0-142.39-.07-227.86v-.37h.39l160,0h.33v.33c-.06,67.33-.12,124.33-.16,164.51,0,20.05-.07,35.89-.09,46.75,0,5.4,0,9.55,0,12.37,0,1.39,0,2.45,0,3.17S916.33,494.46,916.33,494.46Z" transform="translate(-43.32 -72.38)"/><path class="cls-3" d="M948.84,234.66a49.59,49.59,0,0,0-5.87,3.25A65.15,65.15,0,0,0,931.18,249c-4.17,4.79-7.63,9.41-10.28,12.64-1.31,1.63-2.43,2.9-3.23,3.76a8.64,8.64,0,0,1-1.34,1.22,8.5,8.5,0,0,1,1.13-1.41c.73-.91,1.78-2.23,3-3.89,2.54-3.31,5.93-8,10.14-12.8a58.78,58.78,0,0,1,12-11,20.39,20.39,0,0,1,2.46-1.41l1-.53.92-.34A8.22,8.22,0,0,1,948.84,234.66Z" transform="translate(-43.32 -72.38)"/><path class="cls-3" d="M949.61,527.57a8.6,8.6,0,0,1-1.24-1.36c-.86-1-1.93-2.29-3.22-3.82-2.73-3.2-6.61-7.55-11.16-12.09s-8.91-8.4-12.13-11.12L918,496a7.8,7.8,0,0,1-1.36-1.23,9.16,9.16,0,0,1,1.54,1c1,.68,2.32,1.71,4,3a150.66,150.66,0,0,1,23.36,23.28c1.32,1.65,2.36,3,3.05,4A8.91,8.91,0,0,1,949.61,527.57Z" transform="translate(-43.32 -72.38)"/><path class="cls-3" d="M723.29,527.15a8.44,8.44,0,0,1,.91-1.58c.62-1,1.58-2.4,2.82-4.1a101.74,101.74,0,0,1,10.78-12.36,100.31,100.31,0,0,1,12.65-10.44c1.72-1.2,3.15-2.12,4.17-2.71a9.5,9.5,0,0,1,1.6-.87,7.87,7.87,0,0,1-1.45,1.11c-1,.66-2.34,1.65-4,2.89a123.43,123.43,0,0,0-12.43,10.55,121.57,121.57,0,0,0-10.88,12.15c-1.29,1.64-2.31,3-3,3.94A8.81,8.81,0,0,1,723.29,527.15Z" transform="translate(-43.32 -72.38)"/><path class="cls-3" d="M723.85,234.66a8.23,8.23,0,0,1,1.35,1.19l3.51,3.4c3,2.87,7.16,6.74,11.8,11s8.78,8.22,11.67,11.19c1.44,1.48,2.59,2.7,3.35,3.57a8.3,8.3,0,0,1,1.14,1.39,8,8,0,0,1-1.34-1.19l-3.52-3.4c-3-2.87-7.16-6.75-11.8-11s-8.78-8.22-11.67-11.19c-1.44-1.48-2.59-2.7-3.35-3.57A8.3,8.3,0,0,1,723.85,234.66Z" transform="translate(-43.32 -72.38)"/><path class="cls-3" d="M940,241.38c.2,0,.37,61.85.37,138.13s-.17,138.15-.37,138.15-.37-61.84-.37-138.15S939.78,241.38,940,241.38Z" transform="translate(-43.32 -72.38)"/><path class="cls-3" d="M936.81,240.74c0,.21-46.18.37-103.13.37s-103.13-.16-103.13-.37,46.17-.37,103.13-.37S936.81,240.54,936.81,240.74Z" transform="translate(-43.32 -72.38)"/><path class="cls-3" d="M731.19,513.2c-.21,0-.37-60.85-.37-135.9s.16-135.92.37-135.92.37,60.84.37,135.92S731.39,513.2,731.19,513.2Z" transform="translate(-43.32 -72.38)"/><path class="cls-3" d="M940,518.3c0,.2-45.61.37-101.85.37s-101.86-.17-101.86-.37,45.6-.37,101.86-.37S940,518.09,940,518.3Z" transform="translate(-43.32 -72.38)"/><path class="cls-3" d="M922.63,499.48s0-.4,0-1.15,0-1.89,0-3.36c0-3,0-7.33-.05-13,0-11.37-.07-28-.13-49-.08-42-.18-101.72-.31-172.33l.33.33-173-.62.37-.37v.26c.26,89.71.51,172.72.7,239.77l-.3-.3,125.4-.2,34.78,0h9.13l3.15,0-3.08,0-9.08.06-34.71.17-125.59.51h-.3V500c-.23-67-.52-150-.84-239.76v-.64h.37l173,.69h.33v.34c0,70.7,0,130.46,0,172.55,0,21,0,37.6,0,49,0,5.65,0,10,0,12.95,0,1.45,0,2.56,0,3.32S922.63,499.48,922.63,499.48Z" transform="translate(-43.32 -72.38)"/><g class="cls-5"><path class="cls-3" d="M756.3,273.9c0,.21-1.57.37-3.5.37s-3.5-.16-3.5-.37,1.57-.37,3.5-.37S756.3,273.7,756.3,273.9Z" transform="translate(-43.32 -72.38)"/></g><path class="cls-3" d="M763.69,499.92c-.22,0-.43-1.2-.37-2.67s.17-2.64.37-2.66.42,1.2.36,2.68S763.88,499.9,763.69,499.92Z" transform="translate(-43.32 -72.38)"/><path class="cls-3" d="M758.07,500c-.22,0-.43-1.2-.37-2.67s.18-2.64.37-2.66.42,1.21.37,2.68S758.26,500,758.07,500Z" transform="translate(-43.32 -72.38)"/><path class="cls-3" d="M770.05,499.68c-.2,0-.4-1.14-.45-2.56s.07-2.57.28-2.58.4,1.14.45,2.56S770.26,499.67,770.05,499.68Z" transform="translate(-43.32 -72.38)"/><path class="cls-3" d="M775.89,499.68c-.21,0-.41-1.14-.46-2.56s.07-2.57.28-2.58.41,1.14.46,2.56S776.09,499.67,775.89,499.68Z" transform="translate(-43.32 -72.38)"/><path class="cls-3" d="M781.72,499.68c-.2,0-.41-1.14-.46-2.56s.08-2.57.28-2.58.41,1.14.46,2.56S781.92,499.67,781.72,499.68Z" transform="translate(-43.32 -72.38)"/><path class="cls-3" d="M787.55,499.68c-.2,0-.41-1.14-.46-2.56s.08-2.57.28-2.58.41,1.14.46,2.56S787.76,499.67,787.55,499.68Z" transform="translate(-43.32 -72.38)"/><path class="cls-3" d="M793.39,499.68c-.21,0-.41-1.14-.46-2.56s.07-2.57.28-2.58.41,1.14.45,2.56S793.59,499.67,793.39,499.68Z" transform="translate(-43.32 -72.38)"/><path class="cls-3" d="M799.22,499.68c-.21,0-.41-1.14-.46-2.56s.08-2.57.28-2.58.41,1.14.46,2.56S799.42,499.67,799.22,499.68Z" transform="translate(-43.32 -72.38)"/><path class="cls-3" d="M805.05,499.68c-.2,0-.41-1.14-.46-2.56s.08-2.57.28-2.58.41,1.14.46,2.56S805.25,499.67,805.05,499.68Z" transform="translate(-43.32 -72.38)"/><path class="cls-3" d="M810.88,499.68c-.2,0-.41-1.14-.45-2.56s.07-2.57.27-2.58.41,1.14.46,2.56S811.09,499.67,810.88,499.68Z" transform="translate(-43.32 -72.38)"/><path class="cls-3" d="M816.72,499.68c-.21,0-.41-1.14-.46-2.56s.07-2.57.28-2.58.41,1.14.46,2.56S816.92,499.67,816.72,499.68Z" transform="translate(-43.32 -72.38)"/><path class="cls-3" d="M822.55,499.68c-.2,0-.41-1.14-.46-2.56s.08-2.57.28-2.58.41,1.14.46,2.56S822.75,499.67,822.55,499.68Z" transform="translate(-43.32 -72.38)"/><path class="cls-3" d="M828.38,499.68c-.2,0-.41-1.14-.46-2.56s.08-2.57.28-2.58.41,1.14.46,2.56S828.59,499.67,828.38,499.68Z" transform="translate(-43.32 -72.38)"/><path class="cls-3" d="M834.21,499.68c-.2,0-.4-1.14-.45-2.56s.07-2.57.28-2.58.4,1.14.45,2.56S834.42,499.67,834.21,499.68Z" transform="translate(-43.32 -72.38)"/><path class="cls-3" d="M840.05,499.68c-.21,0-.41-1.14-.46-2.56s.07-2.57.28-2.58.41,1.14.46,2.56S840.25,499.67,840.05,499.68Z" transform="translate(-43.32 -72.38)"/><path class="cls-3" d="M845.88,499.68c-.2,0-.41-1.14-.46-2.56s.08-2.57.28-2.58.41,1.14.46,2.56S846.08,499.67,845.88,499.68Z" transform="translate(-43.32 -72.38)"/><path class="cls-3" d="M851.71,499.68c-.2,0-.41-1.14-.46-2.56s.08-2.57.28-2.58.41,1.14.46,2.56S851.92,499.67,851.71,499.68Z" transform="translate(-43.32 -72.38)"/><path class="cls-3" d="M857.55,499.68c-.21,0-.41-1.14-.46-2.56s.07-2.57.28-2.58.41,1.14.45,2.56S857.75,499.67,857.55,499.68Z" transform="translate(-43.32 -72.38)"/><path class="cls-3" d="M863.38,499.68c-.21,0-.41-1.14-.46-2.56s.08-2.57.28-2.58.41,1.14.46,2.56S863.58,499.67,863.38,499.68Z" transform="translate(-43.32 -72.38)"/><path class="cls-3" d="M869.21,499.68c-.2,0-.41-1.14-.46-2.56s.08-2.57.28-2.58.41,1.14.46,2.56S869.41,499.67,869.21,499.68Z" transform="translate(-43.32 -72.38)"/><path class="cls-3" d="M875,499.68c-.2,0-.41-1.14-.45-2.56s.07-2.57.27-2.58.41,1.14.46,2.56S875.25,499.67,875,499.68Z" transform="translate(-43.32 -72.38)"/><path class="cls-3" d="M880.88,499.68c-.21,0-.41-1.14-.46-2.56s.07-2.57.28-2.58.41,1.14.46,2.56S881.08,499.67,880.88,499.68Z" transform="translate(-43.32 -72.38)"/><path class="cls-3" d="M886.71,499.68c-.2,0-.41-1.14-.46-2.56s.08-2.57.28-2.58.41,1.14.46,2.56S886.91,499.67,886.71,499.68Z" transform="translate(-43.32 -72.38)"/><path class="cls-3" d="M892.54,499.68c-.2,0-.41-1.14-.46-2.56s.08-2.57.28-2.58.41,1.14.46,2.56S892.75,499.67,892.54,499.68Z" transform="translate(-43.32 -72.38)"/><path class="cls-3" d="M898.37,499.68c-.2,0-.4-1.14-.45-2.56s.07-2.57.28-2.58.4,1.14.45,2.56S898.58,499.67,898.37,499.68Z" transform="translate(-43.32 -72.38)"/><path class="cls-3" d="M904.21,499.68c-.21,0-.41-1.14-.46-2.56s.07-2.57.28-2.58.41,1.14.46,2.56S904.41,499.67,904.21,499.68Z" transform="translate(-43.32 -72.38)"/><path class="cls-3" d="M910,499.68c-.2,0-.41-1.14-.46-2.56s.08-2.57.28-2.58.41,1.14.46,2.56S910.24,499.67,910,499.68Z" transform="translate(-43.32 -72.38)"/><path class="cls-3" d="M915.87,499.68c-.2,0-.41-1.14-.46-2.56s.08-2.57.28-2.58.41,1.14.46,2.56S916.08,499.67,915.87,499.68Z" transform="translate(-43.32 -72.38)"/><path class="cls-3" d="M922.43,492.91c0,.21-1.37.37-3.07.37s-3.08-.16-3.08-.37,1.38-.36,3.08-.36S922.43,492.71,922.43,492.91Z" transform="translate(-43.32 -72.38)"/><path class="cls-3" d="M922.43,486.42c0,.21-1.37.37-3.07.37s-3.08-.16-3.08-.37,1.38-.37,3.08-.37S922.43,486.22,922.43,486.42Z" transform="translate(-43.32 -72.38)"/><path class="cls-3" d="M922.43,479.93c0,.2-1.37.37-3.07.37s-3.08-.17-3.08-.37,1.38-.37,3.08-.37S922.43,479.72,922.43,479.93Z" transform="translate(-43.32 -72.38)"/><path class="cls-3" d="M922.43,473.44c0,.2-1.37.37-3.07.37s-3.08-.17-3.08-.37,1.38-.37,3.08-.37S922.43,473.23,922.43,473.44Z" transform="translate(-43.32 -72.38)"/><path class="cls-3" d="M922.43,466.94c0,.21-1.37.37-3.07.37s-3.08-.16-3.08-.37,1.38-.37,3.08-.37S922.43,466.74,922.43,466.94Z" transform="translate(-43.32 -72.38)"/><path class="cls-3" d="M922.43,460.45c0,.2-1.37.37-3.07.37s-3.08-.17-3.08-.37,1.38-.37,3.08-.37S922.43,460.25,922.43,460.45Z" transform="translate(-43.32 -72.38)"/><path class="cls-3" d="M922.43,454c0,.2-1.37.37-3.07.37s-3.08-.17-3.08-.37,1.38-.37,3.08-.37S922.43,453.75,922.43,454Z" transform="translate(-43.32 -72.38)"/><path class="cls-3" d="M922.43,447.46c0,.21-1.37.37-3.07.37s-3.08-.16-3.08-.37,1.38-.36,3.08-.36S922.43,447.26,922.43,447.46Z" transform="translate(-43.32 -72.38)"/><path class="cls-3" d="M922.43,441c0,.21-1.37.37-3.07.37s-3.08-.16-3.08-.37,1.38-.37,3.08-.37S922.43,440.77,922.43,441Z" transform="translate(-43.32 -72.38)"/><path class="cls-3" d="M922.43,434.48c0,.2-1.37.37-3.07.37s-3.08-.17-3.08-.37,1.38-.37,3.08-.37S922.43,434.28,922.43,434.48Z" transform="translate(-43.32 -72.38)"/><path class="cls-3" d="M922.43,428c0,.2-1.37.37-3.07.37s-3.08-.17-3.08-.37,1.38-.37,3.08-.37S922.43,427.78,922.43,428Z" transform="translate(-43.32 -72.38)"/><path class="cls-3" d="M922.43,421.49c0,.21-1.37.37-3.07.37s-3.08-.16-3.08-.37,1.38-.36,3.08-.36S922.43,421.29,922.43,421.49Z" transform="translate(-43.32 -72.38)"/><path class="cls-3" d="M922.43,415c0,.21-1.37.37-3.07.37s-3.08-.16-3.08-.37,1.38-.37,3.08-.37S922.43,414.8,922.43,415Z" transform="translate(-43.32 -72.38)"/><path class="cls-3" d="M922.43,408.51c0,.2-1.37.37-3.07.37s-3.08-.17-3.08-.37,1.38-.37,3.08-.37S922.43,408.3,922.43,408.51Z" transform="translate(-43.32 -72.38)"/><path class="cls-3" d="M922.43,402c0,.2-1.37.37-3.07.37s-3.08-.17-3.08-.37,1.38-.37,3.08-.37S922.43,401.81,922.43,402Z" transform="translate(-43.32 -72.38)"/><path class="cls-3" d="M922.43,395.52c0,.21-1.37.37-3.07.37s-3.08-.16-3.08-.37,1.38-.37,3.08-.37S922.43,395.32,922.43,395.52Z" transform="translate(-43.32 -72.38)"/><path class="cls-3" d="M922.43,389c0,.2-1.37.37-3.07.37s-3.08-.17-3.08-.37,1.38-.37,3.08-.37S922.43,388.83,922.43,389Z" transform="translate(-43.32 -72.38)"/><path class="cls-3" d="M922.43,382.54c0,.2-1.37.37-3.07.37s-3.08-.17-3.08-.37,1.38-.37,3.08-.37S922.43,382.33,922.43,382.54Z" transform="translate(-43.32 -72.38)"/><path class="cls-3" d="M922.43,376.05c0,.2-1.37.36-3.07.36s-3.08-.16-3.08-.36,1.38-.37,3.08-.37S922.43,375.84,922.43,376.05Z" transform="translate(-43.32 -72.38)"/><path class="cls-3" d="M922.43,369.55c0,.21-1.37.37-3.07.37s-3.08-.16-3.08-.37,1.38-.37,3.08-.37S922.43,369.35,922.43,369.55Z" transform="translate(-43.32 -72.38)"/><path class="cls-3" d="M922.43,363.06c0,.2-1.37.37-3.07.37s-3.08-.17-3.08-.37,1.38-.37,3.08-.37S922.43,362.86,922.43,363.06Z" transform="translate(-43.32 -72.38)"/><path class="cls-3" d="M922.43,356.57c0,.2-1.37.37-3.07.37s-3.08-.17-3.08-.37,1.38-.37,3.08-.37S922.43,356.36,922.43,356.57Z" transform="translate(-43.32 -72.38)"/><path class="cls-3" d="M922.43,350.07c0,.21-1.37.37-3.07.37s-3.08-.16-3.08-.37,1.38-.37,3.08-.37S922.43,349.87,922.43,350.07Z" transform="translate(-43.32 -72.38)"/><path class="cls-3" d="M922.43,343.58c0,.21-1.37.37-3.07.37s-3.08-.16-3.08-.37,1.38-.37,3.08-.37S922.43,343.38,922.43,343.58Z" transform="translate(-43.32 -72.38)"/><path class="cls-3" d="M922.43,337.09c0,.2-1.37.37-3.07.37s-3.08-.17-3.08-.37,1.38-.37,3.08-.37S922.43,336.88,922.43,337.09Z" transform="translate(-43.32 -72.38)"/><path class="cls-3" d="M922.43,330.6c0,.2-1.37.36-3.07.36s-3.08-.16-3.08-.36,1.38-.37,3.08-.37S922.43,330.39,922.43,330.6Z" transform="translate(-43.32 -72.38)"/><path class="cls-3" d="M922.43,324.1c0,.21-1.37.37-3.07.37s-3.08-.16-3.08-.37,1.38-.37,3.08-.37S922.43,323.9,922.43,324.1Z" transform="translate(-43.32 -72.38)"/><path class="cls-3" d="M922.43,317.61c0,.2-1.37.37-3.07.37s-3.08-.17-3.08-.37,1.38-.37,3.08-.37S922.43,317.41,922.43,317.61Z" transform="translate(-43.32 -72.38)"/><path class="cls-3" d="M922.43,311.12c0,.2-1.37.37-3.07.37s-3.08-.17-3.08-.37,1.38-.37,3.08-.37S922.43,310.91,922.43,311.12Z" transform="translate(-43.32 -72.38)"/><path class="cls-3" d="M922.43,304.62c0,.21-1.37.37-3.07.37s-3.08-.16-3.08-.37,1.38-.36,3.08-.36S922.43,304.42,922.43,304.62Z" transform="translate(-43.32 -72.38)"/><path class="cls-3" d="M922.43,298.13c0,.21-1.37.37-3.07.37s-3.08-.16-3.08-.37,1.38-.37,3.08-.37S922.43,297.93,922.43,298.13Z" transform="translate(-43.32 -72.38)"/><path class="cls-3" d="M922.43,291.64c0,.2-1.37.37-3.07.37s-3.08-.17-3.08-.37,1.38-.37,3.08-.37S922.43,291.44,922.43,291.64Z" transform="translate(-43.32 -72.38)"/><path class="cls-3" d="M922.43,285.15c0,.2-1.37.37-3.07.37s-3.08-.17-3.08-.37,1.38-.37,3.08-.37S922.43,284.94,922.43,285.15Z" transform="translate(-43.32 -72.38)"/><path class="cls-3" d="M922.43,278.65c0,.21-1.37.37-3.07.37s-3.08-.16-3.08-.37,1.38-.36,3.08-.36S922.43,278.45,922.43,278.65Z" transform="translate(-43.32 -72.38)"/><path class="cls-3" d="M922.43,272.16c0,.2-1.37.37-3.07.37s-3.08-.17-3.08-.37,1.38-.37,3.08-.37S922.43,272,922.43,272.16Z" transform="translate(-43.32 -72.38)"/><path class="cls-3" d="M922.43,265.67c0,.2-1.37.37-3.07.37s-3.08-.17-3.08-.37,1.38-.37,3.08-.37S922.43,265.46,922.43,265.67Z" transform="translate(-43.32 -72.38)"/><path class="cls-3" d="M915.4,266.6c-.2,0-.37-1.36-.37-3s.17-3,.37-3,.37,1.36.37,3S915.61,266.6,915.4,266.6Z" transform="translate(-43.32 -72.38)"/><path class="cls-3" d="M909.22,266.6c-.21,0-.37-1.36-.37-3s.16-3,.37-3,.37,1.36.37,3S909.42,266.6,909.22,266.6Z" transform="translate(-43.32 -72.38)"/><path class="cls-3" d="M903,266.6c-.2,0-.37-1.36-.37-3s.17-3,.37-3,.37,1.36.37,3S903.24,266.6,903,266.6Z" transform="translate(-43.32 -72.38)"/><path class="cls-3" d="M896.85,266.6c-.21,0-.37-1.36-.37-3s.16-3,.37-3,.37,1.36.37,3S897.05,266.6,896.85,266.6Z" transform="translate(-43.32 -72.38)"/><ellipse class="cls-3" cx="847.34" cy="191.18" rx="0.37" ry="3.04"/><path class="cls-3" d="M884.48,266.6c-.21,0-.37-1.36-.37-3s.16-3,.37-3,.36,1.36.36,3S884.68,266.6,884.48,266.6Z" transform="translate(-43.32 -72.38)"/><path class="cls-3" d="M878.29,266.6c-.2,0-.37-1.36-.37-3s.17-3,.37-3,.37,1.36.37,3S878.49,266.6,878.29,266.6Z" transform="translate(-43.32 -72.38)"/><ellipse class="cls-3" cx="828.78" cy="191.18" rx="0.37" ry="3.04"/><ellipse class="cls-3" cx="822.6" cy="191.18" rx="0.37" ry="3.04"/><path class="cls-3" d="M859.73,266.6c-.2,0-.37-1.36-.37-3s.17-3,.37-3,.37,1.36.37,3S859.94,266.6,859.73,266.6Z" transform="translate(-43.32 -72.38)"/><ellipse class="cls-3" cx="810.22" cy="191.18" rx="0.37" ry="3.04"/><ellipse class="cls-3" cx="804.04" cy="191.18" rx="0.37" ry="3.04"/><path class="cls-3" d="M841.18,266.6c-.21,0-.37-1.36-.37-3s.16-3,.37-3,.36,1.36.36,3S841.38,266.6,841.18,266.6Z" transform="translate(-43.32 -72.38)"/><path class="cls-3" d="M835,266.6c-.2,0-.37-1.36-.37-3s.17-3,.37-3,.37,1.36.37,3S835.19,266.6,835,266.6Z" transform="translate(-43.32 -72.38)"/><ellipse class="cls-3" cx="785.48" cy="191.18" rx="0.37" ry="3.04"/><path class="cls-3" d="M822.62,266.6c-.21,0-.37-1.36-.37-3s.16-3,.37-3,.37,1.36.37,3S822.82,266.6,822.62,266.6Z" transform="translate(-43.32 -72.38)"/><path class="cls-3" d="M816.43,266.6c-.2,0-.37-1.36-.37-3s.17-3,.37-3,.37,1.36.37,3S816.64,266.6,816.43,266.6Z" transform="translate(-43.32 -72.38)"/><path class="cls-3" d="M810.25,266.6c-.21,0-.37-1.36-.37-3s.16-3,.37-3,.37,1.36.37,3S810.45,266.6,810.25,266.6Z" transform="translate(-43.32 -72.38)"/><path class="cls-3" d="M804.06,266.6c-.2,0-.37-1.36-.37-3s.17-3,.37-3,.37,1.36.37,3S804.26,266.6,804.06,266.6Z" transform="translate(-43.32 -72.38)"/><ellipse class="cls-3" cx="754.55" cy="191.18" rx="0.37" ry="3.04"/><path class="cls-3" d="M791.69,266.6c-.2,0-.37-1.36-.37-3s.17-3,.37-3,.37,1.36.37,3S791.89,266.6,791.69,266.6Z" transform="translate(-43.32 -72.38)"/><ellipse class="cls-3" cx="742.18" cy="191.18" rx="0.37" ry="3.04"/><ellipse class="cls-3" cx="736" cy="191.18" rx="0.37" ry="3.04"/><path class="cls-3" d="M773.13,266.6c-.2,0-.37-1.36-.37-3s.17-3,.37-3,.37,1.36.37,3S773.34,266.6,773.13,266.6Z" transform="translate(-43.32 -72.38)"/><path class="cls-3" d="M767,266.6c-.21,0-.37-1.36-.37-3s.16-3,.37-3,.37,1.36.37,3S767.15,266.6,767,266.6Z" transform="translate(-43.32 -72.38)"/><path class="cls-3" d="M760.76,266.6c-.2,0-.37-1.36-.37-3s.17-3,.37-3,.37,1.36.37,3S761,266.6,760.76,266.6Z" transform="translate(-43.32 -72.38)"/><path class="cls-3" d="M756.3,268.73c0,.2-1.57.37-3.5.37s-3.5-.17-3.5-.37,1.57-.37,3.5-.37S756.3,268.53,756.3,268.73Z" transform="translate(-43.32 -72.38)"/><path class="cls-3" d="M756.3,279.07c0,.21-1.57.37-3.5.37s-3.5-.16-3.5-.37,1.57-.37,3.5-.37S756.3,278.87,756.3,279.07Z" transform="translate(-43.32 -72.38)"/><path class="cls-3" d="M756.3,284.25c0,.2-1.57.36-3.5.36s-3.5-.16-3.5-.36,1.57-.37,3.5-.37S756.3,284,756.3,284.25Z" transform="translate(-43.32 -72.38)"/><path class="cls-3" d="M756.3,289.42c0,.2-1.57.37-3.5.37s-3.5-.17-3.5-.37,1.57-.37,3.5-.37S756.3,289.21,756.3,289.42Z" transform="translate(-43.32 -72.38)"/><path class="cls-3" d="M756.3,294.59c0,.2-1.57.37-3.5.37s-3.5-.17-3.5-.37,1.57-.37,3.5-.37S756.3,294.38,756.3,294.59Z" transform="translate(-43.32 -72.38)"/><path class="cls-3" d="M756.3,299.76c0,.2-1.57.37-3.5.37s-3.5-.17-3.5-.37,1.57-.37,3.5-.37S756.3,299.56,756.3,299.76Z" transform="translate(-43.32 -72.38)"/><path class="cls-3" d="M756.3,304.93c0,.21-1.57.37-3.5.37s-3.5-.16-3.5-.37,1.57-.37,3.5-.37S756.3,304.73,756.3,304.93Z" transform="translate(-43.32 -72.38)"/><path class="cls-3" d="M756.3,310.1c0,.21-1.57.37-3.5.37s-3.5-.16-3.5-.37,1.57-.37,3.5-.37S756.3,309.9,756.3,310.1Z" transform="translate(-43.32 -72.38)"/><path class="cls-3" d="M756.3,315.28c0,.2-1.57.36-3.5.36s-3.5-.16-3.5-.36,1.57-.37,3.5-.37S756.3,315.07,756.3,315.28Z" transform="translate(-43.32 -72.38)"/><path class="cls-3" d="M756.3,320.45c0,.2-1.57.37-3.5.37s-3.5-.17-3.5-.37,1.57-.37,3.5-.37S756.3,320.24,756.3,320.45Z" transform="translate(-43.32 -72.38)"/><path class="cls-3" d="M756.3,325.62c0,.2-1.57.37-3.5.37s-3.5-.17-3.5-.37,1.57-.37,3.5-.37S756.3,325.42,756.3,325.62Z" transform="translate(-43.32 -72.38)"/><path class="cls-3" d="M756.3,330.79c0,.2-1.57.37-3.5.37s-3.5-.17-3.5-.37,1.57-.37,3.5-.37S756.3,330.59,756.3,330.79Z" transform="translate(-43.32 -72.38)"/><path class="cls-3" d="M756.3,336c0,.21-1.57.37-3.5.37s-3.5-.16-3.5-.37,1.57-.37,3.5-.37S756.3,335.76,756.3,336Z" transform="translate(-43.32 -72.38)"/><path class="cls-3" d="M756.3,341.13c0,.21-1.57.37-3.5.37s-3.5-.16-3.5-.37,1.57-.37,3.5-.37S756.3,340.93,756.3,341.13Z" transform="translate(-43.32 -72.38)"/><path class="cls-3" d="M756.3,346.31c0,.2-1.57.36-3.5.36s-3.5-.16-3.5-.36,1.57-.37,3.5-.37S756.3,346.1,756.3,346.31Z" transform="translate(-43.32 -72.38)"/><path class="cls-3" d="M756.3,351.48c0,.2-1.57.37-3.5.37s-3.5-.17-3.5-.37,1.57-.37,3.5-.37S756.3,351.27,756.3,351.48Z" transform="translate(-43.32 -72.38)"/><path class="cls-3" d="M756.3,356.65c0,.2-1.57.37-3.5.37s-3.5-.17-3.5-.37,1.57-.37,3.5-.37S756.3,356.45,756.3,356.65Z" transform="translate(-43.32 -72.38)"/><path class="cls-3" d="M756.3,361.82c0,.2-1.57.37-3.5.37s-3.5-.17-3.5-.37,1.57-.37,3.5-.37S756.3,361.62,756.3,361.82Z" transform="translate(-43.32 -72.38)"/><path class="cls-3" d="M756.3,367c0,.21-1.57.37-3.5.37s-3.5-.16-3.5-.37,1.57-.37,3.5-.37S756.3,366.79,756.3,367Z" transform="translate(-43.32 -72.38)"/><path class="cls-3" d="M756.3,372.16c0,.21-1.57.37-3.5.37s-3.5-.16-3.5-.37,1.57-.37,3.5-.37S756.3,372,756.3,372.16Z" transform="translate(-43.32 -72.38)"/><path class="cls-3" d="M756.3,377.34c0,.2-1.57.36-3.5.36s-3.5-.16-3.5-.36,1.57-.37,3.5-.37S756.3,377.13,756.3,377.34Z" transform="translate(-43.32 -72.38)"/><path class="cls-3" d="M756.3,382.51c0,.2-1.57.37-3.5.37s-3.5-.17-3.5-.37,1.57-.37,3.5-.37S756.3,382.3,756.3,382.51Z" transform="translate(-43.32 -72.38)"/><path class="cls-3" d="M756.3,387.68c0,.2-1.57.37-3.5.37s-3.5-.17-3.5-.37,1.57-.37,3.5-.37S756.3,387.47,756.3,387.68Z" transform="translate(-43.32 -72.38)"/><path class="cls-3" d="M756.3,392.85c0,.2-1.57.37-3.5.37s-3.5-.17-3.5-.37,1.57-.37,3.5-.37S756.3,392.65,756.3,392.85Z" transform="translate(-43.32 -72.38)"/><path class="cls-3" d="M756.3,398c0,.21-1.57.37-3.5.37s-3.5-.16-3.5-.37,1.57-.37,3.5-.37S756.3,397.82,756.3,398Z" transform="translate(-43.32 -72.38)"/><path class="cls-3" d="M756.3,403.19c0,.21-1.57.37-3.5.37s-3.5-.16-3.5-.37,1.57-.37,3.5-.37S756.3,403,756.3,403.19Z" transform="translate(-43.32 -72.38)"/><path class="cls-3" d="M756.3,408.37c0,.2-1.57.36-3.5.36s-3.5-.16-3.5-.36,1.57-.37,3.5-.37S756.3,408.16,756.3,408.37Z" transform="translate(-43.32 -72.38)"/><path class="cls-3" d="M756.3,413.54c0,.2-1.57.37-3.5.37s-3.5-.17-3.5-.37,1.57-.37,3.5-.37S756.3,413.33,756.3,413.54Z" transform="translate(-43.32 -72.38)"/><path class="cls-3" d="M756.3,418.71c0,.2-1.57.37-3.5.37s-3.5-.17-3.5-.37,1.57-.37,3.5-.37S756.3,418.51,756.3,418.71Z" transform="translate(-43.32 -72.38)"/><path class="cls-3" d="M756.3,423.88c0,.2-1.57.37-3.5.37s-3.5-.17-3.5-.37,1.57-.37,3.5-.37S756.3,423.68,756.3,423.88Z" transform="translate(-43.32 -72.38)"/><path class="cls-3" d="M756.3,429.05c0,.21-1.57.37-3.5.37s-3.5-.16-3.5-.37,1.57-.37,3.5-.37S756.3,428.85,756.3,429.05Z" transform="translate(-43.32 -72.38)"/><path class="cls-3" d="M756.3,434.22c0,.21-1.57.37-3.5.37s-3.5-.16-3.5-.37,1.57-.37,3.5-.37S756.3,434,756.3,434.22Z" transform="translate(-43.32 -72.38)"/><path class="cls-3" d="M756.3,439.4c0,.2-1.57.36-3.5.36s-3.5-.16-3.5-.36,1.57-.37,3.5-.37S756.3,439.19,756.3,439.4Z" transform="translate(-43.32 -72.38)"/><path class="cls-3" d="M756.3,444.57c0,.2-1.57.37-3.5.37s-3.5-.17-3.5-.37,1.57-.37,3.5-.37S756.3,444.36,756.3,444.57Z" transform="translate(-43.32 -72.38)"/><path class="cls-3" d="M756.3,449.74c0,.2-1.57.37-3.5.37s-3.5-.17-3.5-.37,1.57-.37,3.5-.37S756.3,449.54,756.3,449.74Z" transform="translate(-43.32 -72.38)"/><path class="cls-3" d="M756.3,454.91c0,.2-1.57.37-3.5.37s-3.5-.17-3.5-.37,1.57-.37,3.5-.37S756.3,454.71,756.3,454.91Z" transform="translate(-43.32 -72.38)"/><path class="cls-3" d="M756.3,460.08c0,.21-1.57.37-3.5.37s-3.5-.16-3.5-.37,1.57-.37,3.5-.37S756.3,459.88,756.3,460.08Z" transform="translate(-43.32 -72.38)"/><path class="cls-3" d="M756.3,465.25c0,.21-1.57.37-3.5.37s-3.5-.16-3.5-.37,1.57-.37,3.5-.37S756.3,465.05,756.3,465.25Z" transform="translate(-43.32 -72.38)"/><path class="cls-3" d="M756.3,470.43c0,.2-1.57.36-3.5.36s-3.5-.16-3.5-.36,1.57-.37,3.5-.37S756.3,470.22,756.3,470.43Z" transform="translate(-43.32 -72.38)"/><path class="cls-3" d="M756.3,475.6c0,.2-1.57.37-3.5.37s-3.5-.17-3.5-.37,1.57-.37,3.5-.37S756.3,475.39,756.3,475.6Z" transform="translate(-43.32 -72.38)"/><path class="cls-3" d="M756.3,480.77c0,.2-1.57.37-3.5.37s-3.5-.17-3.5-.37,1.57-.37,3.5-.37S756.3,480.57,756.3,480.77Z" transform="translate(-43.32 -72.38)"/><path class="cls-3" d="M756.3,485.94c0,.2-1.57.37-3.5.37s-3.5-.17-3.5-.37,1.57-.37,3.5-.37S756.3,485.74,756.3,485.94Z" transform="translate(-43.32 -72.38)"/><path class="cls-3" d="M756.3,491.11c0,.21-1.57.37-3.5.37s-3.5-.16-3.5-.37,1.57-.37,3.5-.37S756.3,490.91,756.3,491.11Z" transform="translate(-43.32 -72.38)"/><rect class="cls-6" x="713.2" y="194.23" width="158.88" height="227.98"/><path class="cls-4" d="M756.17,292.19c27,32.09,58.76,65.78,84.6,98.77L756.3,413.54Z" transform="translate(-43.32 -72.38)"/><path class="cls-2" d="M756.43,409.73l.09,84.86,159.79-1.23-.6-118.07q-79.86,16.2-159.28,34.44" transform="translate(-43.32 -72.38)"/><path class="cls-7" d="M154,546.53c-19.45-29.75-18.7-73.24,4.53-100.14,7.21-8.35,17.29-15.61,28.28-14.67,11.25,1,20.32,10.62,23.75,21.38s2.23,22.43.22,33.55c-2.81,15.56-7.53,31.49-18.33,43S167.88,554.11,154,546.53" transform="translate(-43.32 -72.38)"/><path class="cls-8" d="M162.67,688.74c-7.33-17.09-2-38.73,12.39-50.49,4.47-3.64,10.32-6.47,15.9-5s9.51,7.31,10.3,13.17-.88,11.76-2.92,17.3c-2.86,7.76-6.74,15.54-13.35,20.52s-15.86,9.66-22.32,4.49" transform="translate(-43.32 -72.38)"/><path class="cls-7" d="M115.77,678.53c5.34-26.38-8.56-55.48-32.43-67.9-7.41-3.85-16.53-6.13-24-2.39C51.69,612.07,48,621.4,48.62,629.93s4.71,16.4,9.24,23.66c6.34,10.16,14.12,20,25,25.14s25.32,9,33-.2" transform="translate(-43.32 -72.38)"/><path class="cls-7" d="M119.14,607.21c9.31-30.05-6.48-66.49-32.8-83.73-8.17-5.35-18.51-9.08-27.63-5.6-9.35,3.56-14.71,14-15,24s3.55,19.63,8,28.6c6.19,12.56,14.08,25,26.08,32.17s31.42,14.41,41.39,4.58" transform="translate(-43.32 -72.38)"/><path class="cls-9" d="M137.84,754.09a5.87,5.87,0,0,1-.31-1.45c-.16-1.09-.37-2.48-.62-4.19l-.42-3c-.22-1.11-.45-2.3-.69-3.58-.49-2.56-1-5.49-1.84-8.67-.38-1.6-.79-3.27-1.21-5s-1-3.51-1.57-5.36c-1-3.73-2.48-7.59-3.87-11.7a228,228,0,0,0-11.6-25.72,226.08,226.08,0,0,0-15-23.89c-2.66-3.43-5.05-6.8-7.61-9.7l-3.6-4.27L86,643.74c-2.19-2.45-4.35-4.49-6.21-6.32l-2.6-2.55-2.29-2L71.72,630a7,7,0,0,1-1-1.06,6.23,6.23,0,0,1,1.21.86l3.31,2.66,2.38,1.95,2.67,2.48c1.93,1.79,4.14,3.79,6.38,6.22l3.58,3.75c1.19,1.36,2.41,2.78,3.68,4.24,2.6,2.89,5.05,6.25,7.75,9.68a215.48,215.48,0,0,1,15.2,24,213.44,213.44,0,0,1,11.58,25.92c1.37,4.15,2.82,8,3.78,11.81.53,1.86,1,3.67,1.51,5.41s.78,3.44,1.14,5.05c.79,3.21,1.24,6.17,1.66,8.75.21,1.29.41,2.49.59,3.61s.22,2.12.31,3c.16,1.73.29,3.13.39,4.23A7.19,7.19,0,0,1,137.84,754.09Z" transform="translate(-43.32 -72.38)"/><path class="cls-9" d="M137.15,759.5a2.33,2.33,0,0,1,0-.6c0-.47.08-1,.13-1.75.15-1.63.36-3.86.62-6.67.14-1.46.3-3.07.47-4.82s.18-3.69.29-5.75c.15-4.13.55-8.83.4-14,0-2.6,0-5.33,0-8.16s-.29-5.78-.44-8.84c-.2-6.11-1-12.59-1.77-19.42a303.35,303.35,0,0,0-9.22-43.7,304.76,304.76,0,0,0-16.09-41.67c-3.11-6.13-6-12-9.11-17.26-1.54-2.64-2.92-5.25-4.45-7.64l-4.41-6.87c-2.72-4.44-5.61-8.16-8-11.54-1.21-1.67-2.3-3.25-3.37-4.66l-3-3.78L75,547.08l-1.06-1.39a2.49,2.49,0,0,1-.33-.51s.16.13.43.42l1.15,1.31L79.53,552l3.12,3.72c1.1,1.38,2.22,3,3.47,4.61,2.44,3.35,5.39,7,8.16,11.46,1.43,2.19,2.94,4.47,4.5,6.85s3,5,4.53,7.64c3.21,5.23,6.09,11.12,9.24,17.27a294.37,294.37,0,0,1,16.26,41.82A296.46,296.46,0,0,1,138,689.31c.7,6.86,1.5,13.38,1.66,19.52.12,3.06.36,6,.37,8.87s0,5.58,0,8.19c.09,5.22-.37,9.92-.59,14.06-.14,2.07-.22,4-.39,5.76s-.41,3.36-.59,4.82c-.36,2.81-.65,5-.85,6.66-.11.69-.19,1.26-.26,1.72A2.09,2.09,0,0,1,137.15,759.5Z" transform="translate(-43.32 -72.38)"/><path class="cls-9" d="M187.79,467.65a2.4,2.4,0,0,1-.25.56c-.23.41-.5.93-.84,1.56l-3.32,5.93c-.72,1.29-1.57,2.69-2.4,4.29l-2.6,5.23-3,6c-1,2.15-2,4.47-3,6.88s-2.21,4.93-3.29,7.6-2.11,5.49-3.23,8.38c-.56,1.45-1.12,2.92-1.7,4.41s-1,3.07-1.56,4.63c-1.06,3.13-2.15,6.36-3.26,9.66-4.12,13.33-8,28.18-11.33,43.94s-5.43,31-7.09,44.85c-1.42,13.89-2.46,26.42-2.75,37-.27,5.28-.32,10.05-.34,14.25s-.08,7.8,0,10.76.07,5.14.09,6.8c0,.71,0,1.3,0,1.77a2.07,2.07,0,0,1,0,.61,2.49,2.49,0,0,1-.09-.6c0-.48-.07-1.06-.12-1.77q-.12-2.49-.33-6.8c-.17-3-.23-6.57-.23-10.77s-.06-9,.15-14.28c.17-10.58,1.13-23.15,2.49-37.08,1.59-13.9,3.8-29.14,7-45s7.27-30.69,11.46-44q1.71-5,3.32-9.68c.54-1.56,1.07-3.11,1.6-4.63s1.16-3,1.73-4.42c1.15-2.89,2.25-5.69,3.31-8.37s2.3-5.18,3.38-7.6,2.09-4.72,3.14-6.86l3.09-6c1-1.86,1.87-3.6,2.71-5.2s1.75-3,2.5-4.24l3.53-5.83,1-1.49A2,2,0,0,1,187.79,467.65Z" transform="translate(-43.32 -72.38)"/><path class="cls-9" d="M181.18,650.2a26.82,26.82,0,0,1-2.07,3.63c-1.42,2.27-3.38,5.63-5.66,9.84s-4.83,9.32-7.37,15.12a187.33,187.33,0,0,0-12.14,39.27c-1.16,6.23-2,11.88-2.44,16.64s-.77,8.64-.88,11.32a25.31,25.31,0,0,1-.34,4.17,28.68,28.68,0,0,1-.15-4.18c0-2.69.1-6.59.47-11.39a168.57,168.57,0,0,1,2.19-16.77A172.77,172.77,0,0,1,165,678.32c2.63-5.81,5.24-10.93,7.66-15.09s4.48-7.47,6-9.67A27.23,27.23,0,0,1,181.18,650.2Z" transform="translate(-43.32 -72.38)"/><polygon class="cls-10" points="56.31 668.33 141.75 668.33 131.42 755.59 66.96 755.59 56.31 668.33"/><polygon class="cls-9" points="59.43 746.17 66.69 755.59 131.42 755.59 138.88 746.47 59.43 746.17"/><path class="cls-2" d="M181.75,766.37c0,.35-17.73.64-39.6.64s-39.6-.29-39.6-.64,17.73-.64,39.6-.64S181.75,766,181.75,766.37Z" transform="translate(-43.32 -72.38)"/><path class="cls-2" d="M181.75,772.18c0,.35-17.73.64-39.6.64s-39.6-.29-39.6-.64,17.73-.64,39.6-.64S181.75,771.83,181.75,772.18Z" transform="translate(-43.32 -72.38)"/><path class="cls-2" d="M180.68,777.8c0,.36-17.11.64-38.21.64s-38.21-.28-38.21-.64,17.1-.63,38.21-.63S180.68,777.45,180.68,777.8Z" transform="translate(-43.32 -72.38)"/><path class="cls-9" d="M112.69,552.63a2.8,2.8,0,0,1,0,.83c-.05.65-.12,1.43-.19,2.37-.22,2.19-.52,5.13-.88,8.7-.78,7.34-1.92,17.46-3.23,28.65,0,.42-.1.85-.14,1.24l0,.38h-.38c-11,.17-20.85.27-28,.31H71.38l-2.29,0a2.87,2.87,0,0,1-.79-.07,2.49,2.49,0,0,1,.79-.1l2.29-.12,8.43-.27c7.14-.19,17-.39,28-.57l-.42.38c0-.39.09-.82.14-1.25,1.31-11.18,2.54-21.29,3.48-28.61.47-3.56.86-6.49,1.15-8.67.14-.93.26-1.71.36-2.35A3.15,3.15,0,0,1,112.69,552.63Z" transform="translate(-43.32 -72.38)"/><path class="cls-9" d="M93.26,526.54a2.82,2.82,0,0,1,.07.85c0,.66,0,1.47,0,2.45,0,2.26,0,5.3-.08,9-.11,7.6-.32,18.1-.6,29.7,0,.47,0,.93,0,1.37v.45l-.46,0a264.31,264.31,0,0,0-28.73-.65c-3.66.11-6.62.26-8.66.37l-2.35.11a3.66,3.66,0,0,1-.82,0,2.56,2.56,0,0,1,.81-.16c.53-.07,1.32-.17,2.34-.27,2-.21,5-.45,8.66-.64a227.33,227.33,0,0,1,28.82.39l-.47.42c0-.44,0-.9,0-1.37.28-11.6.58-22.1.85-29.7.15-3.7.27-6.74.36-9,0-1,.1-1.78.14-2.44A3.37,3.37,0,0,1,93.26,526.54Z" transform="translate(-43.32 -72.38)"/><path class="cls-9" d="M70.53,517.65a16.2,16.2,0,0,1,.53,2.5c.32,1.77.75,4.08,1.27,6.87,1.1,5.8,2.83,13.79,5.27,22.54l.26.92-.87-.42-1-.49a73.7,73.7,0,0,0-22.77-6.66c-3-.37-5.51-.51-7.22-.57a17.16,17.16,0,0,1-2.66-.15,2.3,2.3,0,0,1,.69-.1c.45,0,1.12-.08,2-.09a60.89,60.89,0,0,1,7.27.3,69.32,69.32,0,0,1,23.08,6.49l1,.5-.61.5a220.54,220.54,0,0,1-5-22.66c-.48-2.92-.81-5.29-1-6.93A13.82,13.82,0,0,1,70.53,517.65Z" transform="translate(-43.32 -72.38)"/><path class="cls-9" d="M191.18,676.73c0,.14-2.48-.12-6.46-.27a108.91,108.91,0,0,0-15.54.5c-1.23.13-2.43.28-3.58.44l-.41.06-.07-.41c-.92-5.16-1.69-9.72-2.21-13a34.29,34.29,0,0,1-.67-5.27,36.2,36.2,0,0,1,1.22,5.17c.67,3.24,1.55,7.77,2.5,12.93l-.48-.34c1.16-.17,2.37-.33,3.61-.46a87.53,87.53,0,0,1,15.66-.25c2,.15,3.61.35,4.72.52A7.58,7.58,0,0,1,191.18,676.73Z" transform="translate(-43.32 -72.38)"/><path class="cls-9" d="M199.25,660.7c0,.14-2.39-.42-6.26-.9a68.53,68.53,0,0,0-15.16-.15c-.92.1-1.82.22-2.68.33l-.44.07-.05-.45c-.54-5.31-1-10-1.25-13.4a39.62,39.62,0,0,1-.28-5.45,35.66,35.66,0,0,1,.85,5.39c.43,3.37,1,8.07,1.53,13.38l-.48-.38c.86-.13,1.78-.25,2.71-.35a58.84,58.84,0,0,1,15.34.41c1.94.31,3.49.67,4.55.95A6,6,0,0,1,199.25,660.7Z" transform="translate(-43.32 -72.38)"/><path class="cls-9" d="M205,508.79a3.76,3.76,0,0,1-.85.44l-2.5,1.11-9.24,3.94L161.85,527l-1.66.68-.39.16-.16-.38C154.58,516,150,505.74,146.7,498.2l-3.8-8.83c-.4-1-.73-1.77-1-2.41a3.8,3.8,0,0,1-.29-.87,3.9,3.9,0,0,1,.45.8l1.14,2.35c1,2.16,2.38,5.11,4.05,8.72,3.4,7.51,8,17.72,13.17,29.09l-.55-.22,1.65-.68,30.7-12.44,9.35-3.68,2.55-1A3.89,3.89,0,0,1,205,508.79Z" transform="translate(-43.32 -72.38)"/><path class="cls-9" d="M212.52,471.88a3.26,3.26,0,0,1-.75.56l-2.24,1.45-8.34,5.19-27.83,17-.45.28-.18-.5c-.16-.42-.33-.88-.51-1.34-4.53-12.24-8.64-23.32-11.66-31.47l-3.44-9.57-.89-2.61a3.91,3.91,0,0,1-.26-.94,4,4,0,0,1,.42.88c.28.67.62,1.52,1.05,2.56.91,2.34,2.17,5.55,3.7,9.47L173,494.19l.5,1.35-.63-.23,28-16.74,8.48-5,2.32-1.31A4.81,4.81,0,0,1,212.52,471.88Z" transform="translate(-43.32 -72.38)"/><path class="cls-9" d="M210.07,452.19a12.25,12.25,0,0,1-1.83,1.08c-1.21.67-2.94,1.64-5.05,3a90,90,0,0,0-15.48,12.12l-1.07,1.05.35-1.46c.38-1.53.72-3.14,1-4.8a55.82,55.82,0,0,0-1.21-22.77,64.43,64.43,0,0,0-2.19-6.62,16.08,16.08,0,0,1-.91-2.41,13.6,13.6,0,0,1,1.22,2.28,50,50,0,0,1,2.47,6.59,53.27,53.27,0,0,1,1.47,23.06c-.27,1.69-.62,3.33-1,4.88l-.71-.41a81.27,81.27,0,0,1,15.79-12c2.16-1.25,3.95-2.16,5.2-2.74A10.1,10.1,0,0,1,210.07,452.19Z" transform="translate(-43.32 -72.38)"/><path class="cls-9" d="M112.58,643.76a13.43,13.43,0,0,1-.4,2.21c-.29,1.41-.72,3.46-1.19,6a147.79,147.79,0,0,0-2.29,20.23l0,.39-.39,0-1.91.12c-8.47.51-16.15.93-21.7,1.18l-6.58.26a13.29,13.29,0,0,1-2.42,0,12.46,12.46,0,0,1,2.4-.31l6.56-.54c5.55-.41,13.21-.92,21.69-1.43l1.91-.12-.41.41a124.59,124.59,0,0,1,2.58-20.31c.55-2.54,1.06-4.58,1.46-6A10.8,10.8,0,0,1,112.58,643.76Z" transform="translate(-43.32 -72.38)"/><path class="cls-9" d="M95.79,619.69a12.76,12.76,0,0,1-.14,2.23c-.18,1.58-.42,3.62-.69,6.07-.63,5.14-1.54,12.28-2.62,20.28l0,.35-.35,0-2.75.18c-8.69.59-16.51,1.49-22.17,2.23l-6.7.89a13.15,13.15,0,0,1-2.47.25,15,15,0,0,1,2.42-.58c1.57-.31,3.84-.72,6.66-1.17,5.65-.89,13.49-1.89,22.2-2.48l2.75-.18-.4.38c1.1-8,2.12-15.13,2.89-20.25l1-6A10.92,10.92,0,0,1,95.79,619.69Z" transform="translate(-43.32 -72.38)"/><path class="cls-9" d="M76,609.33c.13,0-.39,2.34-1,6.16a111.26,111.26,0,0,0-1.37,15.12v.48l-.48-.06-1.44-.19a132,132,0,0,0-16.13-1l-4.91.05a6.94,6.94,0,0,1-1.81-.05,7.55,7.55,0,0,1,1.79-.28c1.15-.13,2.83-.26,4.92-.34a104.76,104.76,0,0,1,16.25.71l1.44.19-.49.42a89,89,0,0,1,1.66-15.21c.38-1.9.75-3.42,1-4.46A6.38,6.38,0,0,1,76,609.33Z" transform="translate(-43.32 -72.38)"/><path class="cls-9" d="M188.59,633.39c.21.12-1.64,3.93-3.81,8.67s-3.89,8.62-4.12,8.54,1.13-4.13,3.33-8.9S188.38,633.28,188.59,633.39Z" transform="translate(-43.32 -72.38)"/><path class="cls-9" d="M199.33,644.77c0,.27-4.49.32-9.71,2s-9,4.1-9.12,3.87,3.47-3.05,8.86-4.7S199.36,644.57,199.33,644.77Z" transform="translate(-43.32 -72.38)"/><path class="cls-9" d="M1145.71,299.69s-.1-.25-.26-.76-.37-1.29-.65-2.25l-2.44-8.69c-2.1-7.6-5.11-18.52-8.83-32l-28.81-105.74h.84l-.12.5c-10,41.76-19.81,79.4-27.23,106.55-3.69,13.57-6.84,24.52-9,32.07-1.13,3.74-2,6.66-2.61,8.68l-.7,2.25c-.16.5-.27.76-.27.76s.05-.27.18-.79.36-1.3.62-2.27c.57-2,1.4-5,2.45-8.72,2.11-7.58,5.16-18.55,8.78-32.14,7.27-27.18,16.93-64.84,27-106.59l.12-.51.39-1.65.45,1.64c11.15,41.32,21.25,78.71,28.56,105.81l8.56,32.08c1,3.76,1.75,6.7,2.29,8.73l.57,2.28C1145.66,299.42,1145.71,299.69,1145.71,299.69Z" transform="translate(-43.32 -72.38)"/><polygon class="cls-10" points="1023.26 226.34 1033 276.88 1094.5 276.03 1103.03 227.31 1023.26 226.34"/><path class="cls-7" d="M1110.77,286.79c4.28,2.68,9.3,3.1,13.23,1.12s6.68-6.32,7.25-11.44a15.31,15.31,0,0,0-22,9.15" transform="translate(-43.32 -72.38)"/><path class="cls-7" d="M1147.23,300.86c4.28,2.67,9.31,3.1,13.24,1.12s6.68-6.33,7.24-11.45a16.26,16.26,0,0,0-13.21-.67,16.06,16.06,0,0,0-8.79,9.83" transform="translate(-43.32 -72.38)"/><path class="cls-7" d="M1126.76,269.44c2.11,4.59,6.07,7.71,10.44,8.21s9.06-1.61,12.34-5.57a15.3,15.3,0,0,0-23.41-4.45" transform="translate(-43.32 -72.38)"/><path class="cls-7" d="M1140.07,285.72c-5-.08-9.57,2.16-11.91,5.89s-2.44,8.87-.27,13.54A15.3,15.3,0,0,0,1142,285.93" transform="translate(-43.32 -72.38)"/><path class="cls-7" d="M1152.92,311.43c-2.2,4.55-2.08,9.59.32,13.28s7,6,12.15,6a16.21,16.21,0,0,0-.75-13.21c-2.09-3.82-5.87-5.7-10.61-6.77" transform="translate(-43.32 -72.38)"/><path class="cls-7" d="M1174.12,314.46a9.73,9.73,0,0,0-3.15-2,13.51,13.51,0,0,0-4.33-.76,54.57,54.57,0,0,0-5.89.34,17.16,17.16,0,0,1-7.24-.62,11.15,11.15,0,0,1-6-5.78,33.37,33.37,0,0,1-2.58-8.82c-.61-3.08-1.28-6.31-3.07-9.06s-4.34-4.82-6.74-6.85a33.07,33.07,0,0,1-6.46-6.55,21.63,21.63,0,0,1-3.21-15,21,21,0,0,1,3.92-9.65,17.05,17.05,0,0,1,1.91-2.11,4.79,4.79,0,0,1,.75-.64,3.58,3.58,0,0,1-.63.77,20.81,20.81,0,0,0-1.76,2.18,21.58,21.58,0,0,0-3.58,9.54,21.17,21.17,0,0,0,3.26,14.48,32.29,32.29,0,0,0,6.34,6.35c2.41,2,5.06,4.11,6.93,7s2.56,6.27,3.18,9.35a32.41,32.41,0,0,0,2.46,8.64,10.43,10.43,0,0,0,5.52,5.46,16.63,16.63,0,0,0,7,.68,50.1,50.1,0,0,1,6-.21,13.49,13.49,0,0,1,4.43.92,7.38,7.38,0,0,1,2.4,1.56,4,4,0,0,1,.49.55C1174.08,314.38,1174.13,314.45,1174.12,314.46Z" transform="translate(-43.32 -72.38)"/><path class="cls-7" d="M1174.12,314.46a9.73,9.73,0,0,0-3.15-2,13.51,13.51,0,0,0-4.33-.76,54.57,54.57,0,0,0-5.89.34,17.16,17.16,0,0,1-7.24-.62,11.15,11.15,0,0,1-6-5.78,33.37,33.37,0,0,1-2.58-8.82c-.61-3.08-1.28-6.31-3.07-9.06s-4.34-4.82-6.74-6.85a33.07,33.07,0,0,1-6.46-6.55,21.63,21.63,0,0,1-3.21-15,21,21,0,0,1,3.92-9.65,17.05,17.05,0,0,1,1.91-2.11,4.79,4.79,0,0,1,.75-.64,3.58,3.58,0,0,1-.63.77,20.81,20.81,0,0,0-1.76,2.18,21.58,21.58,0,0,0-3.58,9.54,21.17,21.17,0,0,0,3.26,14.48,32.29,32.29,0,0,0,6.34,6.35c2.41,2,5.06,4.11,6.93,7s2.56,6.27,3.18,9.35a32.41,32.41,0,0,0,2.46,8.64,10.43,10.43,0,0,0,5.52,5.46,16.63,16.63,0,0,0,7,.68,50.1,50.1,0,0,1,6-.21,13.49,13.49,0,0,1,4.43.92,7.38,7.38,0,0,1,2.4,1.56,4,4,0,0,1,.49.55C1174.08,314.38,1174.13,314.45,1174.12,314.46Z" transform="translate(-43.32 -72.38)"/><path class="cls-11" d="M1021.85,321.15a20.19,20.19,0,0,0-27.31-19.88,33.66,33.66,0,0,0,26.6,19.63" transform="translate(-43.32 -72.38)"/><path class="cls-11" d="M1016.58,323.93c-3.9,4.28-3.65,11.18-.86,16.25s7.6,8.69,12.41,11.91a26.22,26.22,0,0,0-11.28-29.72" transform="translate(-43.32 -72.38)"/><path class="cls-11" d="M1035.48,303.84a23.3,23.3,0,0,0,26.46,20.75c-1.51-6.27-4-12.59-8.87-16.84s-12.48-5.84-17.84-2.26" transform="translate(-43.32 -72.38)"/><path class="cls-11" d="M1035.36,297.45c-1-5.71-6.61-9.85-12.38-10.39s-11.46,1.93-16.09,5.42a20.93,20.93,0,0,0,28.52,2.81" transform="translate(-43.32 -72.38)"/><path class="cls-11" d="M1005.64,346c-5.48,4.68-6.85,13-4.57,19.84s7.6,12.28,13.59,16.28c2.31-6.77,3.75-14,2.53-21.09s-5.46-13.86-12-16.73" transform="translate(-43.32 -72.38)"/><path class="cls-11" d="M1034.47,281.44a16.82,16.82,0,0,1,26.66-1.56,14.55,14.55,0,0,1-26.25.67" transform="translate(-43.32 -72.38)"/><path class="cls-11" d="M1041.18,265a21.87,21.87,0,0,1-27.9-17.11,50.12,50.12,0,0,1,13.18.19,21.46,21.46,0,0,1,11.67,5.75,11.58,11.58,0,0,1,3,11.17" transform="translate(-43.32 -72.38)"/><path class="cls-11" d="M1053.83,260.72a17.89,17.89,0,0,1-.11-27.6,37.39,37.39,0,0,1,7.82,16.68,14,14,0,0,1-.06,6.9,6.36,6.36,0,0,1-4.83,4.52" transform="translate(-43.32 -72.38)"/><g class="cls-12"><path class="cls-11" d="M1021.85,321.15a20.19,20.19,0,0,0-27.31-19.88,33.66,33.66,0,0,0,26.6,19.63" transform="translate(-43.32 -72.38)"/></g><g class="cls-12"><path class="cls-11" d="M1016.58,323.93c-3.9,4.28-3.65,11.18-.86,16.25s7.6,8.69,12.41,11.91a26.22,26.22,0,0,0-11.28-29.72" transform="translate(-43.32 -72.38)"/></g><g class="cls-12"><path class="cls-11" d="M1035.48,303.84a23.3,23.3,0,0,0,26.46,20.75c-1.51-6.27-4-12.59-8.87-16.84s-12.48-5.84-17.84-2.26" transform="translate(-43.32 -72.38)"/></g><g class="cls-12"><path class="cls-11" d="M1035.36,297.45c-1-5.71-6.61-9.85-12.38-10.39s-11.46,1.93-16.09,5.42a20.93,20.93,0,0,0,28.52,2.81" transform="translate(-43.32 -72.38)"/></g><g class="cls-12"><path class="cls-11" d="M1005.64,346c-5.48,4.68-6.85,13-4.57,19.84s7.6,12.28,13.59,16.28c2.31-6.77,3.75-14,2.53-21.09s-5.46-13.86-12-16.73" transform="translate(-43.32 -72.38)"/></g><g class="cls-12"><path class="cls-11" d="M1034.47,281.44a16.82,16.82,0,0,1,26.66-1.56,14.55,14.55,0,0,1-26.25.67" transform="translate(-43.32 -72.38)"/></g><g class="cls-12"><path class="cls-11" d="M1041.18,265a21.87,21.87,0,0,1-27.9-17.11,50.12,50.12,0,0,1,13.18.19,21.46,21.46,0,0,1,11.67,5.75,11.58,11.58,0,0,1,3,11.17" transform="translate(-43.32 -72.38)"/></g><g class="cls-12"><path class="cls-11" d="M1053.83,260.72a17.89,17.89,0,0,1-.11-27.6,37.39,37.39,0,0,1,7.82,16.68,14,14,0,0,1-.06,6.9,6.36,6.36,0,0,1-4.83,4.52" transform="translate(-43.32 -72.38)"/></g><path class="cls-11" d="M1075.71,300.82a2.54,2.54,0,0,1,0-.45c0-.34,0-.77.08-1.31.08-1.15.18-2.85.22-5.05,0-4.33,0-10.87-3-18.12a27.66,27.66,0,0,0-7.29-10.26,19.51,19.51,0,0,0-13.26-4.88,16.62,16.62,0,0,0-7.49,1.88,14.93,14.93,0,0,0-5.78,5.52c-2.89,4.77-3.61,10.76-3.35,16.66s1.06,11.82.39,17.54a26.58,26.58,0,0,1-2.18,8.13,17,17,0,0,1-4.91,6.43,24.42,24.42,0,0,1-6.83,3.49,34.83,34.83,0,0,0-6.44,2.93,23.34,23.34,0,0,0-8.46,9.21,22.26,22.26,0,0,0-2.44,10.09,23.69,23.69,0,0,0,1.27,7.79,29.68,29.68,0,0,0,3,6.07,2.38,2.38,0,0,1-.29-.35,12.17,12.17,0,0,1-.77-1.07,21.37,21.37,0,0,1-2.27-4.54,23.5,23.5,0,0,1-1.45-7.9,22.69,22.69,0,0,1,2.38-10.36,23.89,23.89,0,0,1,8.63-9.55c3.94-2.63,9.15-3.28,13.16-6.44s6.13-8.54,6.74-14-.2-11.4-.42-17.41.46-12.15,3.5-17.14a15.7,15.7,0,0,1,6.12-5.8,17.35,17.35,0,0,1,7.85-1.94,20.17,20.17,0,0,1,13.75,5.13,28.17,28.17,0,0,1,7.38,10.56,37.41,37.41,0,0,1,2.51,10.35,57.09,57.09,0,0,1,.23,8c-.09,2.2-.25,3.9-.38,5.06-.07.53-.13,1-.17,1.3S1075.73,300.83,1075.71,300.82Z" transform="translate(-43.32 -72.38)"/><g class="cls-12"><path class="cls-11" d="M1075.71,300.82a2.54,2.54,0,0,1,0-.45c0-.34,0-.77.08-1.31.08-1.15.18-2.85.22-5.05,0-4.33,0-10.87-3-18.12a27.66,27.66,0,0,0-7.29-10.26,19.51,19.51,0,0,0-13.26-4.88,16.62,16.62,0,0,0-7.49,1.88,14.93,14.93,0,0,0-5.78,5.52c-2.89,4.77-3.61,10.76-3.35,16.66s1.06,11.82.39,17.54a26.58,26.58,0,0,1-2.18,8.13,17,17,0,0,1-4.91,6.43,24.42,24.42,0,0,1-6.83,3.49,34.83,34.83,0,0,0-6.44,2.93,23.34,23.34,0,0,0-8.46,9.21,22.26,22.26,0,0,0-2.44,10.09,23.69,23.69,0,0,0,1.27,7.79,29.68,29.68,0,0,0,3,6.07,2.38,2.38,0,0,1-.29-.35,12.17,12.17,0,0,1-.77-1.07,21.37,21.37,0,0,1-2.27-4.54,23.5,23.5,0,0,1-1.45-7.9,22.69,22.69,0,0,1,2.38-10.36,23.89,23.89,0,0,1,8.63-9.55c3.94-2.63,9.15-3.28,13.16-6.44s6.13-8.54,6.74-14-.2-11.4-.42-17.41.46-12.15,3.5-17.14a15.7,15.7,0,0,1,6.12-5.8,17.35,17.35,0,0,1,7.85-1.94,20.17,20.17,0,0,1,13.75,5.13,28.17,28.17,0,0,1,7.38,10.56,37.41,37.41,0,0,1,2.51,10.35,57.09,57.09,0,0,1,.23,8c-.09,2.2-.25,3.9-.38,5.06-.07.53-.13,1-.17,1.3S1075.73,300.83,1075.71,300.82Z" transform="translate(-43.32 -72.38)"/></g><path class="cls-7" d="M1191.86,286.57a17.34,17.34,0,0,0,1.19-5.85,14.6,14.6,0,0,0-1.56-6.74,14.37,14.37,0,0,0-11.63-7.67,16.83,16.83,0,0,0-5.73.67c-3.91,1-7.77,3.25-12.4,4.17a14.59,14.59,0,0,1-7.18-.18,10.77,10.77,0,0,1-5.86-4.67c-2.79-4.33-3.57-9.75-6.94-13.73a13.67,13.67,0,0,0-6.3-4.12,17.57,17.57,0,0,0-7.36-.74,18.83,18.83,0,0,0-12.24,6.37,28.65,28.65,0,0,0-6.08,11.24,34.12,34.12,0,0,0-1.36,11.14,123.55,123.55,0,0,0,2.07,16.3c.32,1.86.58,3.33.76,4.41.07.46.13.84.18,1.15s0,.4,0,.4a1.42,1.42,0,0,1-.11-.38c-.07-.31-.15-.68-.26-1.14-.22-1.07-.53-2.53-.92-4.38a110.22,110.22,0,0,1-2.35-16.34,34.27,34.27,0,0,1,1.28-11.36,29.21,29.21,0,0,1,6.18-11.58,21.79,21.79,0,0,1,5.59-4.48,18.83,18.83,0,0,1,7.15-2.2,18.5,18.5,0,0,1,7.72.77,14.5,14.5,0,0,1,6.69,4.38c3.56,4.27,4.32,9.72,7,13.82a9.91,9.91,0,0,0,5.39,4.35,13.83,13.83,0,0,0,6.79.19c4.46-.86,8.34-3.05,12.36-4.08a17.59,17.59,0,0,1,6-.65,15,15,0,0,1,5.34,1.5,14.52,14.52,0,0,1,6.67,6.62,14.76,14.76,0,0,1,1.45,7,13.63,13.63,0,0,1-.86,4.42A7.53,7.53,0,0,1,1191.86,286.57Z" transform="translate(-43.32 -72.38)"/><path class="cls-7" d="M1145.21,257.62c4.28,2.68,10.29,2.92,14.22.94s6.68-6.33,7.24-11.45a16.25,16.25,0,0,0-13.21-.67,16.09,16.09,0,0,0-8.79,9.83" transform="translate(-43.32 -72.38)"/><path class="cls-7" d="M1160.33,271.34c-.06,5.05,2.86,10.31,6.6,12.63s8.88,2.41,13.54.23a15.31,15.31,0,0,0-19.27-14" transform="translate(-43.32 -72.38)"/><path class="cls-7" d="M1186.56,268.3c4.55,2.2,10.55,1.8,14.25-.59s6-7,6-12.15a16.28,16.28,0,0,0-13.22.74,16.11,16.11,0,0,0-7.69,10.71" transform="translate(-43.32 -72.38)"/><path class="cls-7" d="M1123.17,248.54c-3.82-3.3-6.38-9.09-5.65-13.43s4.07-8.25,8.79-10.3a15.3,15.3,0,0,1-2.24,23.73" transform="translate(-43.32 -72.38)"/><path class="cls-7" d="M1020.75,229.76s0-.13.15-.35.32-.59.53-1a41.44,41.44,0,0,1,2.31-3.61A39,39,0,0,1,1035.15,214a28,28,0,0,1,10.24-3.77,25.49,25.49,0,0,1,12.45,1.31,20.16,20.16,0,0,1,10.64,8.72c2.45,4.27,3.23,9.28,4.66,14.07a25.41,25.41,0,0,0,3,6.71,20.08,20.08,0,0,0,5.05,5c1.91,1.41,3.9,2.67,5.7,4.15a24.58,24.58,0,0,1,4.63,5,30.82,30.82,0,0,1,4.74,11.59,41.17,41.17,0,0,1,.64,10.89,82.87,82.87,0,0,1-2.79,15.49c-.47,1.79-.87,3.18-1.14,4.12a9.33,9.33,0,0,1-.47,1.41,10.45,10.45,0,0,1,.3-1.46c.24-1,.57-2.41,1-4.15a89.94,89.94,0,0,0,2.5-15.45,41.25,41.25,0,0,0-.73-10.71,30.32,30.32,0,0,0-4.69-11.27,24.12,24.12,0,0,0-4.5-4.83c-1.76-1.43-3.74-2.68-5.68-4.1a21.28,21.28,0,0,1-5.27-5.19,26.21,26.21,0,0,1-3.08-6.94c-1.45-4.87-2.24-9.82-4.58-13.9a19.45,19.45,0,0,0-10.18-8.39,24.69,24.69,0,0,0-12.07-1.35,27.78,27.78,0,0,0-10,3.58A40,40,0,0,0,1024,225c-1.11,1.48-1.9,2.68-2.43,3.5A12.28,12.28,0,0,1,1020.75,229.76Z" transform="translate(-43.32 -72.38)"/><path class="cls-7" d="M1083.41,247.33c-1.32-1.23-2-.37-3.74-.05a11,11,0,0,0-4.79,2.39,20.18,20.18,0,0,0-6.54,21.17,15.74,15.74,0,0,0,14.46-23.65" transform="translate(-43.32 -72.38)"/><path class="cls-7" d="M1029.2,222.66c-.66-1.68-1.61-1.19-3.35-1.66a11,11,0,0,0-5.35.1,20.19,20.19,0,0,0-15,16.3,15.75,15.75,0,0,0,23.23-15.13" transform="translate(-43.32 -72.38)"/><path class="cls-7" d="M1095.35,280.72a18.18,18.18,0,0,0-28.58,1.39,22.48,22.48,0,0,0,14.82,5.84c5.43.06,10.85-2.44,14.93-6" transform="translate(-43.32 -72.38)"/><path class="cls-7" d="M1090.89,255.78a18.41,18.41,0,0,0,18.61-22,16.53,16.53,0,0,0-19.22,21.79" transform="translate(-43.32 -72.38)"/><path class="cls-7" d="M1071.82,226.47a18.42,18.42,0,0,0,24.85-14.55,16.53,16.53,0,0,0-25.37,14.17" transform="translate(-43.32 -72.38)"/><path class="cls-7" d="M1065.42,216.9a18.42,18.42,0,0,0-24.85,14.54,16.53,16.53,0,0,0,25.37-14.17" transform="translate(-43.32 -72.38)"/><path class="cls-7" d="M1057.8,211.74a18.41,18.41,0,0,0,9.8-27.07,16.53,16.53,0,0,0-10.44,27.12" transform="translate(-43.32 -72.38)"/><path class="cls-7" d="M1038.26,212.68a18.42,18.42,0,0,0-15-24.56,16.53,16.53,0,0,0,14.68,25.08" transform="translate(-43.32 -72.38)"/><path class="cls-2" d="M1141.12,327.91a2.79,2.79,0,0,1-.47.62,15.62,15.62,0,0,1-1.53,1.6,27.78,27.78,0,0,1-6.7,4.66,29.67,29.67,0,0,1-11.72,3,28.2,28.2,0,0,1-7.17-.61,42.28,42.28,0,0,1-7.31-2.42c-4.84-2.06-9.23-4.4-13.52-5.77a23.2,23.2,0,0,0-11.68-1.12,15,15,0,0,0-7.16,3.32,29.36,29.36,0,0,0-2,2.13s.1-.25.37-.68a11.18,11.18,0,0,1,1.44-1.7,14.78,14.78,0,0,1,7.27-3.67,23.35,23.35,0,0,1,12,1c4.39,1.35,8.84,3.7,13.62,5.74a43,43,0,0,0,7.16,2.39,28.33,28.33,0,0,0,7,.63,30,30,0,0,0,11.49-2.76C1138.32,331.27,1141,327.72,1141.12,327.91Z" transform="translate(-43.32 -72.38)"/><path class="cls-2" d="M1141.87,322.05s-.16.22-.52.58a17.33,17.33,0,0,1-1.64,1.5,31,31,0,0,1-7,4.31,32.74,32.74,0,0,1-11.8,2.82,32.33,32.33,0,0,1-7.19-.48,48.62,48.62,0,0,1-7.42-2.1c-4.95-1.8-9.5-3.87-13.85-5.08a27.49,27.49,0,0,0-11.77-1.07,17.82,17.82,0,0,0-7.44,2.84c-1.55,1.1-2.24,1.93-2.3,1.87a2.79,2.79,0,0,1,.47-.62,11.24,11.24,0,0,1,1.64-1.52,17.12,17.12,0,0,1,7.53-3.17,27.39,27.39,0,0,1,12.09.9c4.43,1.2,9,3.26,13.92,5a48.37,48.37,0,0,0,7.29,2.09,32.47,32.47,0,0,0,7,.51,32.86,32.86,0,0,0,11.59-2.58C1138.8,325.15,1141.74,321.86,1141.87,322.05Z" transform="translate(-43.32 -72.38)"/><path class="cls-9" d="M1114.42,146.85a8.77,8.77,0,1,1-8.77-8.77A8.77,8.77,0,0,1,1114.42,146.85Z" transform="translate(-43.32 -72.38)"/><path class="cls-9" d="M1104.94,72.38c.24,0,.44,16.3.44,36.4s-.2,36.4-.44,36.4-.43-16.29-.43-36.4S1104.7,72.38,1104.94,72.38Z" transform="translate(-43.32 -72.38)"/><path class="cls-9" d="M1146,306.64a3.74,3.74,0,0,1-.74.34l-2.17.82c-.94.36-2.1.77-3.48,1.17s-2.91.94-4.67,1.35a112.22,112.22,0,0,1-12.41,2.55,115.18,115.18,0,0,1-31,.35,114.18,114.18,0,0,1-12.46-2.27c-1.76-.38-3.32-.86-4.7-1.25s-2.55-.75-3.5-1.09l-2.19-.77a3.16,3.16,0,0,1-.75-.33,2.92,2.92,0,0,1,.8.16l2.23.62c1,.28,2.15.62,3.54.95s2.94.78,4.71,1.12a123.84,123.84,0,0,0,12.42,2.06,122.34,122.34,0,0,0,30.75-.34,124.63,124.63,0,0,0,12.37-2.35c1.76-.38,3.31-.85,4.69-1.22s2.55-.72,3.51-1l2.21-.67A2.77,2.77,0,0,1,1146,306.64Z" transform="translate(-43.32 -72.38)"/><path class="cls-9" d="M1094.81,313.11a2.93,2.93,0,0,1-.21.84c-.17.54-.42,1.34-.78,2.35-.7,2-1.78,5-3.28,8.52s-3.4,7.73-5.75,12.25q-1.77,3.4-3.85,7c-.69,1.2-1.42,2.41-2.16,3.63a8.55,8.55,0,0,1-1.37,1.81,2.94,2.94,0,0,1-2.31.88,4.1,4.1,0,0,1-3.26-3.21c-.39-1.46-.51-2.84-.75-4.21-.41-2.74-.77-5.39-1.08-7.92-.63-5.05-1.07-9.62-1.37-13.46s-.47-6.95-.55-9.1c0-1.07-.06-1.91-.06-2.48a3.39,3.39,0,0,1,0-.86,3.31,3.31,0,0,1,.13.85c.06.67.14,1.48.23,2.47.2,2.27.48,5.34.82,9.07s.88,8.37,1.55,13.41c.34,2.52.71,5.16,1.13,7.89.24,1.36.38,2.8.74,4.1a4.3,4.3,0,0,0,.9,1.72,2.59,2.59,0,0,0,1.61.87c1.24.13,2.17-1.1,2.87-2.28l2.16-3.61c1.39-2.38,2.68-4.72,3.87-7,2.38-4.48,4.34-8.62,5.9-12.13s2.73-6.39,3.53-8.38c.37-.93.68-1.68.93-2.3A3,3,0,0,1,1094.81,313.11Z" transform="translate(-43.32 -72.38)"/><path class="cls-9" d="M1128.05,311a2.78,2.78,0,0,1-.16.83c-.16.63-.37,1.41-.62,2.35-.6,2.15-1.42,5-2.42,8.58l-3.71,12.7-1.08,3.67c-.39,1.23-.7,2.55-1.21,3.84a11.19,11.19,0,0,1-2.19,3.67,7,7,0,0,1-3.87,2.19,5.82,5.82,0,0,1-4.35-1.06,9.5,9.5,0,0,1-2.84-3.22c-1.22-2.49-2.18-4.9-3.09-7.24-1.78-4.66-3.2-8.92-4.35-12.51s-2-6.52-2.57-8.55c-.25-.94-.45-1.72-.62-2.35a3.28,3.28,0,0,1-.16-.83,2.92,2.92,0,0,1,.32.78l.78,2.3c.71,2.12,1.67,5,2.83,8.46s2.7,7.79,4.51,12.42c.92,2.29,1.92,4.74,3.09,7.11a8.64,8.64,0,0,0,2.59,2.92,5,5,0,0,0,3.71.92,6.28,6.28,0,0,0,3.4-1.93,10.6,10.6,0,0,0,2-3.39c.5-1.23.81-2.51,1.2-3.76s.75-2.46,1.11-3.66c1.46-4.73,2.77-9,3.89-12.65s2-6.38,2.69-8.51l.78-2.3A2.92,2.92,0,0,1,1128.05,311Z" transform="translate(-43.32 -72.38)"/><path class="cls-9" d="M1146,306.64s.09-.14.21,0a1.49,1.49,0,0,1,.14.62,17.71,17.71,0,0,1-.07,2.4c-.16,2.08-.54,5.06-1.06,8.73l-2,12.87c-.36,2.42-.74,5-1.14,7.59-.18,1.32-.37,2.66-.56,4-.09.68-.18,1.37-.26,2.06l-.14,1.06a3.17,3.17,0,0,1-.45,1.14,2.54,2.54,0,0,1-2.1,1.26,1.68,1.68,0,0,1-1.21-.61,3.12,3.12,0,0,1-.55-1.07l-1-4-1.91-7.44c-1.19-4.72-2.27-9-3.19-12.62l-2.07-8.53c-.21-.93-.38-1.7-.52-2.33a3.16,3.16,0,0,1-.13-.82,3,3,0,0,1,.3.78c.18.62.4,1.37.68,2.29.58,2.12,1.37,5,2.34,8.45s2.1,7.88,3.36,12.58c.63,2.37,1.28,4.86,2,7.43.34,1.28.68,2.59,1,3.91.19.62.51,1.07,1,1.08a1.72,1.72,0,0,0,1.33-.87C1143.38,324.85,1147,306.25,1146,306.64Z" transform="translate(-43.32 -72.38)"/></g><g id="Layer_2" data-name="Layer 2"><path class="cls-13" d="M589.15,993.64c-63.35-19.14-105.3-40.8-139.93-75.29-36.79-36.64-49.8-72.24-59.78-122.09-13.9-69.47-29-180.31-104.19-206.83-69.92-24.66-132.16,30.94-167.82,88C71.6,750.76,57.72,824.18,57.65,910.36c-.06,69.73,17.88,197.71,238.33,197.71h262C702.7,1108.07,680.15,1021.14,589.15,993.64Z" transform="translate(-43.32 -72.38)"/><path class="cls-14" d="M569.64,989c-13-26.64-68.06-18.64-127.51-80.94-34.43-36.07-48.74-67.25-58.5-114.19-8.26-39.71-39.17-172.36-94.15-177.58-22.14-2.11-44.78.67-64.27,11.37-27,14.85-48.05,39.12-62.92,66.12s-24,56.77-31.41,86.68C120.6,822,113.41,851.34,118.63,893.8c8.85,72.1,54.13,135.72,124.58,152.57,71,17,135.17,11.11,219.17,10.33C494.52,1056.4,596.46,1044,569.64,989Z" transform="translate(-43.32 -72.38)"/><path class="cls-15" d="M203.68,642c-14,12.09-25.94,26.44-36.17,41.81a295.66,295.66,0,0,0-28,53.85,345.11,345.11,0,0,0-18.15,61.45A326.24,326.24,0,0,0,115,862.45a258.39,258.39,0,0,0,7.06,61.26,186.7,186.7,0,0,0,22.12,54,148.87,148.87,0,0,0,38.88,42.14c20.59,15,45.09,23.92,69.62,30,30.62,7.63,62.29,10.51,93.77,11.25s62.82-.65,94.12-2.69c7.27-.48,14.54-1,21.8-1.37.42,0,.42-.68,0-.65-30.4,1.71-60.88,3.4-91.34,3.62-31.73.23-63.61-1.08-94.92-6.51-27.43-4.76-55.42-12.45-79.68-26.46A144.94,144.94,0,0,1,153,988.41a173.63,173.63,0,0,1-26-51.49A239.24,239.24,0,0,1,116.46,877a313,313,0,0,1,3.31-63.2A347,347,0,0,1,135,752.21a312.12,312.12,0,0,1,25.57-55.9,227.42,227.42,0,0,1,34.13-45.11q4.55-4.58,9.4-8.8c.27-.24-.13-.64-.41-.4Z" transform="translate(-43.32 -72.38)"/><path class="cls-16" d="M609.76,1020.56l89.32,66.59,16.78,25.76,95.92-65.38a5.13,5.13,0,0,0,1.34-7.13h0a5.12,5.12,0,0,0-5.41-2.1l-54.38,8.9-88.54-73.09" transform="translate(-43.32 -72.38)"/><path class="cls-17" d="M819.52,1040.81c-3.06-2.42-7.2-4.67-9.55-4.23l-56.79,10.72c-17.63,26.19-54.1,39.85-54.1,39.85l16.74,36.91a2.39,2.39,0,0,0,3.32.63l107.16-72.24C828.44,1051,819.62,1040.88,819.52,1040.81Z" transform="translate(-43.32 -72.38)"/><path class="cls-16" d="M467.37,972l38.19,93-.49,30.74,116.08-.59a5.12,5.12,0,0,0,5.1-5.16h0a5.13,5.13,0,0,0-3.31-4.77l-50.06-23L539,964.24" transform="translate(-43.32 -72.38)"/><path class="cls-18" d="M631.33,1093.88c-1.19-3.72-3.36-7.89-5.56-8.84l-53.08-22.86c-29.26,11.86-67.13,2.8-67.13,2.8l-6.76,40a2.4,2.4,0,0,0,2.41,2.38H630.44C633,1107.31,631.37,1094,631.33,1093.88Z" transform="translate(-43.32 -72.38)"/><path class="cls-19" d="M272.8,564.68s22.36-17.91,41.72-11.65c24,7.76,35.5,26.09,31.85,32.56-2.47,4.37-21.69-.28-21.69-.28s37.55,21.17,31.1,35.35c-5.33,11.72-22.45,0-22.45,0s25.68,36,14.66,40.15S325.6,649,325.6,649s24.23,27.77,13.79,41-22.49-16.9-22.49-16.9,12.76,29.8,1.16,37.44S303.45,686,303.45,686s6.75,29.22-4.69,33.31S275.61,686,275.61,686s-2.26,32.18-22,37.7-12.75-37.44-12.75-37.44,0,33.34-11.57,30.9-5.8-41.27-5.8-41.27-4.64,17.21-15.66,17.29,5.22-40.5,5.22-40.5-16.24,19.13-22,13.61S202.66,623,202.66,623s-10.44,24.12-17.4,18.29c-10.64-8.94,12.76-34.13,17.4-39.25,0,0-17,11.93-19.45,6.48-4.9-11.08,23.51-31.19,40.33-30.38,0,0-23.49,6.15-26.39-2S225.85,540.91,272.8,564.68Z" transform="translate(-43.32 -72.38)"/><ellipse class="cls-8" cx="271.34" cy="543.22" rx="15.94" ry="14.38"/><path class="cls-9" d="M313.4,601.22c0,.06-.64.25-1.76.75a14.7,14.7,0,0,0-4.19,2.7A14,14,0,0,0,304,618.52a15.15,15.15,0,0,0,4.77,6.9,15.44,15.44,0,0,0,6.69,3.27,12.39,12.39,0,0,0,5.22.07c1.22-.26,1.83-.56,1.87-.51s-.14.11-.43.25a6.92,6.92,0,0,1-1.36.5,12.12,12.12,0,0,1-5.43.13,15.79,15.79,0,0,1-7.05-3.29,15.51,15.51,0,0,1-5-7.15,13.24,13.24,0,0,1,0-8.31,13.05,13.05,0,0,1,3.74-6,13.81,13.81,0,0,1,4.45-2.62,12.61,12.61,0,0,1,1.39-.44A1.54,1.54,0,0,1,313.4,601.22Z" transform="translate(-43.32 -72.38)"/><path class="cls-9" d="M300.84,623.05c-.1,0-.24-.26-.18-.73a2.37,2.37,0,0,1,1-1.57,3.29,3.29,0,0,1,2-.59c.55,0,.85.18.82.26s-1.29.06-2.34.81S301,623.06,300.84,623.05Z" transform="translate(-43.32 -72.38)"/><path class="cls-9" d="M301.5,618.63c-.08-.16.41-.46,1.11-.48s1.2.26,1.14.42-.56.2-1.12.22S301.57,618.8,301.5,618.63Z" transform="translate(-43.32 -72.38)"/><path class="cls-9" d="M301.5,606.75c-.1-.15.85-.57,2-.19s1.49,1.21,1.3,1.27-.72-.41-1.58-.68S301.57,606.93,301.5,606.75Z" transform="translate(-43.32 -72.38)"/><path class="cls-16" d="M301.77,581.91s25.3,39.89,14.5,57.09c-5.61,8.93-26.7,15-37.41,9.73-7.95-3.89-25.36-35-22.84-41.72C265.68,581.43,301.77,581.91,301.77,581.91Z" transform="translate(-43.32 -72.38)"/><path class="cls-16" d="M254,637.92l-2.39,30.92s19.68,49.15,55.27,4.87l-1.57-34.12Z" transform="translate(-43.32 -72.38)"/><path class="cls-20" d="M263.27,625.17c-5.64-5.8-9.57-4.37-11.41-.68-2.46,4.93,4.43,13.93,7.34,15.29,5.9,2.75,10.36,1.93,10.32-2.62" transform="translate(-43.32 -72.38)"/><path class="cls-21" d="M305.78,648.64c-19.08,4.24-28.92-1.3-28.92-1.3" transform="translate(-43.32 -72.38)"/><path class="cls-16" d="M500.56,827.57c-1.11.11-2.23.17-3.35.17a38,38,0,0,1-8.69-1,37.44,37.44,0,0,1-14.76-3.36,35.44,35.44,0,0,1-5.73.47,37.44,37.44,0,0,1-15.16-3.14c-17,.13-32.8-.71-34.72-4.15-5.77-10.34-2.44-64.34-2.44-64.34l-79.29,1.94S328.6,857.66,361.19,884c16.4,13.26,81.93,0,121.13-9.62A39.87,39.87,0,0,1,497,868.61a41.1,41.1,0,0,1,13.89-7Z" transform="translate(-43.32 -72.38)"/><path class="cls-16" d="M467.37,869c12.09,2.32,76.19,13.17,76.23,10.39s-18-8.37-17.06-9.58c1.36-1.7,15.41.22,23.29,1.92,7,1.52,18.41,3,19.11.51,1.33-4.72-37.25-12.63-37.25-12.63s40.82,15,42.43,11.25c2.32-5.46-41.33-20-42.49-21.8,0,0,35.35,21.27,37.07,17.24s-29.42-23.65-40-26.63c8.37,3.8,31.48,23.35,32.85,19.56s-19.75-17.07-23.32-18.56a268.64,268.64,0,0,0-58.16-16.18" transform="translate(-43.32 -72.38)"/><path class="cls-16" d="M572.38,824.37s-16.45,5.62-26.06,8.13" transform="translate(-43.32 -72.38)"/><path class="cls-16" d="M570.68,831.38s-17.49,9.42-27.1,11.93" transform="translate(-43.32 -72.38)"/><path class="cls-16" d="M566.8,838.93s-14.65,8.78-23.39,12.25" transform="translate(-43.32 -72.38)"/><path class="cls-22" d="M251.64,668.84s7.68,13.85,30.29,12.82c17.23-.78,25-7.95,25-7.95s51.6,13.43,61.67,81.35c9.38,63.27,21.16,171.37,21.16,171.37l-196,13.16a1118.37,1118.37,0,0,1,2.45-153.68C201.64,724.1,251.64,668.84,251.64,668.84Z" transform="translate(-43.32 -72.38)"/><path class="cls-22" d="M306.91,673.71c19.5-1.31,44.58,3.57,58.39,12.54,36.62,23.79,52,74.72,52,74.72l-50.48,12.85" transform="translate(-43.32 -72.38)"/><path class="cls-16" d="M234.14,784.53s-14.81,52-11.39,63.37c2.58,8.55,77.43,19.28,77.43,19.28l3.9,49.69S171.8,925.5,152.67,901.6c-26.19-32.72,3.6-132.15,3.6-132.15" transform="translate(-43.32 -72.38)"/><path class="cls-16" d="M284.58,866.51c11,.26,69.11,3.19,68.87,6.15s-16.87,4.81-16.14,6.3c1,2.11,13.73,3.23,20.91,3.2,6.4,0,16.69,1,17.06,3.77.71,5.29-34.42,5-34.42,5s37.83-6.74,38.88-2.37c1.52,6.3-38.79,11.92-40,13.53,0,0,33.6-14.58,34.72-9.92s-28.56,18.43-38.25,19.21c7.83-2.14,30.37-17.65,31.21-13.33s-19.29,13.64-22.63,14.41c-27.36,6.27-53.37,4.06-53.37,4.06" transform="translate(-43.32 -72.38)"/><path class="cls-16" d="M371.74,888.54s-17.27,2-27.19,2.37" transform="translate(-43.32 -72.38)"/><path class="cls-16" d="M368.58,895s-19.11,5.46-29,5.85" transform="translate(-43.32 -72.38)"/><path class="cls-16" d="M363.17,901.58S347,907,337.7,908.53" transform="translate(-43.32 -72.38)"/><path class="cls-22" d="M251.64,668.84s-39.64,2.66-54.73,14c-40.38,30.4-49.63,89.86-49.63,89.86l88.56,23.09,15.92-48.89" transform="translate(-43.32 -72.38)"/><path class="cls-23" d="M232.26,796.05a257.15,257.15,0,0,1,12.12-41" transform="translate(-43.32 -72.38)"/><path class="cls-23" d="M371.41,772.31c-6.44-33.95-14.6-54.75-14.6-54.75" transform="translate(-43.32 -72.38)"/><line class="cls-23" x1="107.09" y1="686.53" x2="191.76" y2="711.55"/><line class="cls-23" x1="369.51" y1="676.61" x2="325.73" y2="688.38"/><path class="cls-23" d="M243.19,669.66s10.61,20.76,41.56,18.68S317,673.53,317,673.53" transform="translate(-43.32 -72.38)"/><path class="cls-24" d="M279.38,1015.12s-5.29,31.72,26.93,29.56c78.34-5.27,203.21-98.6,203.21-98.6l151.77,117.47L723.72,997S621,911.2,590.78,888c-12.6-9.66-38.68-31.53-67.9-29.56s-194.53,66.36-194.53,66.36" transform="translate(-43.32 -72.38)"/><path class="cls-25" d="M200.59,939.14s-13.16,116,83.4,109.51c68.06-4.57,153.58-101.43,153.58-101.43l52.55,118.91,89.38-26.49s-44-110.4-59-147.89c-12.83-31.9-36-57-59.08-60s-47.48,7.54-76.31,24.26c-23.26,13.49-95.65,77.14-95.65,77.14" transform="translate(-43.32 -72.38)"/><path class="cls-26" d="M214.54,974.11s39-4.91,42-38.72" transform="translate(-43.32 -72.38)"/><path class="cls-8" d="M196.1,609s-10.46-39,17.19-45.35h4.43s-21.39,9.48-14.68,42" transform="translate(-43.32 -72.38)"/><ellipse class="cls-8" cx="156.34" cy="540.18" rx="21.83" ry="19.69"/><path class="cls-9" d="M201.38,592.87a2.24,2.24,0,0,1,.7.13,15.28,15.28,0,0,1,1.89.59,19.1,19.1,0,0,1,6.1,3.59,18,18,0,0,1,5.12,8.24,18.16,18.16,0,0,1,0,11.37,21.15,21.15,0,0,1-6.86,9.8,21.69,21.69,0,0,1-9.65,4.5,16.76,16.76,0,0,1-7.44-.17,10,10,0,0,1-1.86-.69c-.4-.2-.6-.31-.58-.34s.89.34,2.55.7a17.27,17.27,0,0,0,7.16-.1,21.29,21.29,0,0,0,9.16-4.48,20.78,20.78,0,0,0,6.52-9.45,19.07,19.07,0,0,0-4.68-19,19.82,19.82,0,0,0-5.73-3.7C202.27,593.22,201.35,593,201.38,592.87Z" transform="translate(-43.32 -72.38)"/><path class="cls-9" d="M218.59,622.76c-.28,0-.37-1.46-1.8-2.48s-3.17-.88-3.21-1.11.38-.33,1.13-.37a4.54,4.54,0,0,1,2.75.81,3.3,3.3,0,0,1,1.38,2.16C218.91,622.4,218.72,622.77,218.59,622.76Z" transform="translate(-43.32 -72.38)"/><path class="cls-9" d="M217.68,616.71c-.09.23-.77.24-1.54.22s-1.45-.06-1.54-.3.61-.6,1.57-.57S217.78,616.49,217.68,616.71Z" transform="translate(-43.32 -72.38)"/><path class="cls-9" d="M217.68,600.45c-.09.23-1.17.14-2.33.54s-1.9,1-2.16.93.23-1.24,1.78-1.74S217.81,600.23,217.68,600.45Z" transform="translate(-43.32 -72.38)"/><path class="cls-8" d="M315,492.68a7.43,7.43,0,1,1-1.57-10.39A7.44,7.44,0,0,1,315,492.68Z" transform="translate(-43.32 -72.38)"/><path class="cls-8" d="M315.56,490.05c-.72,0-1.16-7.86.27-17.36s2.88-17,3.55-16.92.45,7.88-1,17.28S316.27,490,315.56,490.05Z" transform="translate(-43.32 -72.38)"/><path class="cls-8" d="M342.07,463.78c.18.58-5.71,2.51-13,.65a17.41,17.41,0,0,1-8.28-4.56c-1.74-1.82-2-3.47-1.74-3.57s1.16,1,2.95,2.2a23.42,23.42,0,0,0,7.73,3.43C336.25,463.64,342,463,342.07,463.78Z" transform="translate(-43.32 -72.38)"/><path class="cls-8" d="M337.65,500.69a7.43,7.43,0,1,1-1.57-10.39A7.42,7.42,0,0,1,337.65,500.69Z" transform="translate(-43.32 -72.38)"/><path class="cls-8" d="M338.26,498.06c-.72,0-1.17-7.86.27-17.35s2.88-17,3.54-16.93.46,7.89-1,17.29S339,498.06,338.26,498.06Z" transform="translate(-43.32 -72.38)"/><path class="cls-8" d="M341.56,468.83c.26.62-5.25,2.83-12.13,1.32s-11-5.73-10.52-6.18c.46-.6,4.85,2.39,11.06,3.66S341.38,468.09,341.56,468.83Z" transform="translate(-43.32 -72.38)"/><path class="cls-8" d="M354.19,549.39a4,4,0,1,0-.68-5.56A4,4,0,0,0,354.19,549.39Z" transform="translate(-43.32 -72.38)"/><path class="cls-8" d="M353.51,548.12c.37-.09-.53-4.2-2.63-8.86s-3.9-8.3-4.24-8.18.9,4.11,3,8.72S353.14,548.22,353.51,548.12Z" transform="translate(-43.32 -72.38)"/><path class="cls-8" d="M336.14,538.43c0,.32,3.3.47,6.77-1.52a9.37,9.37,0,0,0,3.6-3.53c.63-1.18.54-2.07.38-2.08s-.45.67-1.2,1.55a12.47,12.47,0,0,1-3.48,2.87C339.11,537.53,336.08,538,336.14,538.43Z" transform="translate(-43.32 -72.38)"/><path class="cls-8" d="M343.69,556.75a4,4,0,1,0-.68-5.56A4,4,0,0,0,343.69,556.75Z" transform="translate(-43.32 -72.38)"/><path class="cls-8" d="M343,555.48c.37-.09-.52-4.2-2.62-8.87s-3.9-8.29-4.24-8.18.9,4.12,3,8.73S342.64,555.58,343,555.48Z" transform="translate(-43.32 -72.38)"/><path class="cls-8" d="M337.13,541c-.05.35,3.1.71,6.42-1.05s4.83-4.52,4.51-4.68-2.15,1.92-5.15,3.46S337.12,540.55,337.13,541Z" transform="translate(-43.32 -72.38)"/><path class="cls-8" d="M352.75,508.68a4.69,4.69,0,1,1,1.3-6.5A4.7,4.7,0,0,1,352.75,508.68Z" transform="translate(-43.32 -72.38)"/><path class="cls-8" d="M353.67,507.25c-.27-.09,1.27-4.78,4.15-10.09s5.24-9.51,5.47-9.41-1.68,4.63-4.56,9.89S353.94,507.34,353.67,507.25Z" transform="translate(-43.32 -72.38)"/><path class="cls-8" d="M372.38,492.07c.08.26-2.51.79-5.37-.47s-4.26-3.48-4-3.61,1.83,1.56,4.43,2.66S372.37,491.77,372.38,492.07Z" transform="translate(-43.32 -72.38)"/><path class="cls-8" d="M369.84,496.21c.1.26-2.45.89-5.16-.53s-3.67-3.86-3.4-3.92,1.47,1.79,3.88,3S369.82,495.91,369.84,496.21Z" transform="translate(-43.32 -72.38)"/><path class="cls-8" d="M227.83,426.53a7.43,7.43,0,1,1-1.57-10.39A7.44,7.44,0,0,1,227.83,426.53Z" transform="translate(-43.32 -72.38)"/><path class="cls-8" d="M228.43,423.9c-.72,0-1.16-7.86.27-17.36s2.88-17,3.55-16.92.45,7.88-1,17.28S229.14,423.89,228.43,423.9Z" transform="translate(-43.32 -72.38)"/><path class="cls-8" d="M254.94,397.63c.18.58-5.72,2.51-13,.65a17.41,17.41,0,0,1-8.28-4.56c-1.74-1.82-2-3.47-1.74-3.57s1.15,1,3,2.2a23.42,23.42,0,0,0,7.73,3.43C249.12,397.49,254.85,396.82,254.94,397.63Z" transform="translate(-43.32 -72.38)"/><path class="cls-8" d="M250.52,434.54A7.43,7.43,0,1,1,249,424.15,7.42,7.42,0,0,1,250.52,434.54Z" transform="translate(-43.32 -72.38)"/><path class="cls-8" d="M251.12,431.91c-.71,0-1.16-7.86.28-17.35s2.88-17,3.54-16.93.46,7.89-1,17.29S251.83,431.91,251.12,431.91Z" transform="translate(-43.32 -72.38)"/><path class="cls-8" d="M254.42,402.68c.27.62-5.24,2.83-12.13,1.32s-11-5.73-10.52-6.18,4.86,2.39,11.06,3.66S254.25,401.94,254.42,402.68Z" transform="translate(-43.32 -72.38)"/><path class="cls-8" d="M267.06,483.24a4,4,0,1,0-.68-5.56A4,4,0,0,0,267.06,483.24Z" transform="translate(-43.32 -72.38)"/><path class="cls-8" d="M266.37,482c.37-.09-.52-4.2-2.62-8.86s-3.9-8.3-4.24-8.18.9,4.11,3,8.72S266,482.07,266.37,482Z" transform="translate(-43.32 -72.38)"/><path class="cls-8" d="M249,472.28c0,.32,3.3.48,6.77-1.52a9.37,9.37,0,0,0,3.6-3.53c.63-1.18.54-2.07.38-2.08s-.46.67-1.2,1.55a12.47,12.47,0,0,1-3.48,2.87C252,471.38,248.94,471.86,249,472.28Z" transform="translate(-43.32 -72.38)"/><path class="cls-8" d="M256.56,490.6a4,4,0,1,0-.68-5.56A4,4,0,0,0,256.56,490.6Z" transform="translate(-43.32 -72.38)"/><path class="cls-8" d="M255.87,489.33c.37-.09-.53-4.2-2.62-8.87s-3.9-8.29-4.24-8.18.9,4.12,3,8.73S255.51,489.43,255.87,489.33Z" transform="translate(-43.32 -72.38)"/><path class="cls-8" d="M250,474.8c-.05.35,3.1.71,6.41-1.05s4.84-4.52,4.52-4.68-2.15,1.92-5.15,3.46S250,474.4,250,474.8Z" transform="translate(-43.32 -72.38)"/><path class="cls-8" d="M265.62,442.53a4.69,4.69,0,1,1,1.3-6.5A4.7,4.7,0,0,1,265.62,442.53Z" transform="translate(-43.32 -72.38)"/><path class="cls-8" d="M266.54,441.1c-.27-.09,1.27-4.78,4.15-10.09s5.24-9.51,5.47-9.41-1.68,4.63-4.56,9.89S266.81,441.19,266.54,441.1Z" transform="translate(-43.32 -72.38)"/><path class="cls-8" d="M285.25,425.92c.07.26-2.51.79-5.38-.47s-4.25-3.48-4-3.61,1.83,1.56,4.44,2.66S285.24,425.62,285.25,425.92Z" transform="translate(-43.32 -72.38)"/><path class="cls-8" d="M282.71,430.06c.1.26-2.45.89-5.16-.53s-3.67-3.86-3.4-3.92,1.47,1.79,3.88,3S282.69,429.76,282.71,430.06Z" transform="translate(-43.32 -72.38)"/></g></svg>