<?xml version="1.0" standalone="no"?><svg xmlns:xlink="http://www.w3.org/1999/xlink" xmlns="http://www.w3.org/2000/svg" viewBox="0 0 1000 533.3333333333334" preserveAspectRatio="xMaxYMax slice"><g transform="scale(1.0043942247332078)"><rect x="0" y="0" width="995.625" height="531" fill="none"/><rect x="66.375" y="0" width="66.375" height="66.375" fill="none"/><circle cx="116.155" cy="16.595" r="16.595" fill="#f3f9fb"/><circle cx="116.155" cy="49.785" r="16.595" fill="#d1e9f1"/><rect x="199.125" y="0" width="66.375" height="66.375" fill="none"/><circle cx="215.725" cy="16.595" r="16.595" fill="#fcf0ee"/><circle cx="298.69" cy="33.19" r="33.19" fill="#f7d5cf"/><circle cx="365.07" cy="33.19" r="33.19" fill="#d9edf3"/><rect x="398.25" y="0" width="66.375" height="66.375" fill="none"/><circle cx="414.845" cy="16.595" r="16.595" fill="#f9ddd8"/><circle cx="448.03499999999997" cy="16.595" r="16.595" fill="#b1dae7"/><circle cx="414.845" cy="49.785" r="16.595" fill="#fae2de"/><circle cx="448.03499999999997" cy="49.785" r="16.595" fill="#f3c0b7"/><circle cx="497.82" cy="33.19" r="33.19" fill="#f2bab0"/><rect x="730.125" y="0" width="66.375" height="66.375" fill="none"/><circle cx="779.905" cy="16.595" r="16.595" fill="#f9e1dd"/><circle cx="746.725" cy="49.785" r="16.595" fill="#f1b4a9"/><circle cx="779.905" cy="49.785" r="16.595" fill="#e0f0f5"/><rect x="929.25" y="0" width="66.375" height="66.375" fill="none"/><circle cx="945.845" cy="16.595" r="16.595" fill="#f7d5cf"/><circle cx="979.0350000000001" cy="16.595" r="16.595" fill="#fae1dd"/><circle cx="979.0350000000001" cy="49.785" r="16.595" fill="#b5dce8"/><circle cx="33.19" cy="99.57" r="33.19" fill="#fef7f6"/><rect x="66.375" y="66.375" width="66.375" height="66.375" fill="none"/><circle cx="82.975" cy="82.975" r="16.595" fill="#f7d5cf"/><circle cx="116.155" cy="116.155" r="16.595" fill="#fcefed"/><rect x="132.75" y="66.375" width="66.375" height="66.375" fill="none"/><circle cx="149.345" cy="82.975" r="16.595" fill="#dceff4"/><circle cx="182.535" cy="82.975" r="16.595" fill="#f7d3cc"/><circle cx="182.535" cy="116.155" r="16.595" fill="#f4c4bb"/><circle cx="232.32" cy="99.57" r="33.19" fill="#b2dae8"/><rect x="265.5" y="66.375" width="66.375" height="66.375" fill="none"/><circle cx="315.28499999999997" cy="82.975" r="16.595" fill="#f5cbc3"/><circle cx="282.095" cy="116.155" r="16.595" fill="#fceeec"/><circle cx="315.28499999999997" cy="116.155" r="16.595" fill="#badeea"/><rect x="331.875" y="66.375" width="66.375" height="66.375" fill="none"/><circle cx="348.475" cy="82.975" r="16.595" fill="#b9deea"/><circle cx="381.655" cy="82.975" r="16.595" fill="#b1dae7"/><circle cx="348.475" cy="116.155" r="16.595" fill="#cbe6ef"/><circle cx="431.44" cy="99.57" r="33.19" fill="#f3beb4"/><circle cx="564.19" cy="99.57" r="33.19" fill="#f2b9af"/><circle cx="630.5699999999999" cy="99.57" r="33.19" fill="#f6cdc6"/><circle cx="829.69" cy="99.57" r="33.19" fill="#f0f8fa"/><rect x="862.875" y="66.375" width="66.375" height="66.375" fill="none"/><circle cx="912.655" cy="82.975" r="16.595" fill="#fefaf9"/><circle cx="879.475" cy="116.155" r="16.595" fill="#fefbfa"/><circle cx="912.655" cy="116.155" r="16.595" fill="#f1b1a6"/><rect x="929.25" y="66.375" width="66.375" height="66.375" fill="none"/><circle cx="979.0350000000001" cy="82.975" r="16.595" fill="#f1b3a8"/><circle cx="99.57" cy="165.94" r="33.19" fill="#f7d2cc"/><circle cx="165.94" cy="165.94" r="33.19" fill="#c0e1ec"/><circle cx="232.32" cy="165.94" r="33.19" fill="#cae6ef"/><rect x="265.5" y="132.75" width="66.375" height="66.375" fill="none"/><circle cx="282.095" cy="182.535" r="16.595" fill="#f8dcd6"/><circle cx="315.28499999999997" cy="182.535" r="16.595" fill="#f7d2cb"/><circle cx="365.07" cy="165.94" r="33.19" fill="#fbe7e4"/><circle cx="431.44" cy="165.94" r="33.19" fill="#f5cac3"/><rect x="464.625" y="132.75" width="66.375" height="66.375" fill="none"/><circle cx="481.225" cy="149.345" r="16.595" fill="#f3bfb5"/><circle cx="564.19" cy="165.94" r="33.19" fill="#fafdfe"/><circle cx="696.94" cy="165.94" r="33.19" fill="#c7e4ee"/><circle cx="829.69" cy="165.94" r="33.19" fill="#c5e3ed"/><rect x="862.875" y="132.75" width="66.375" height="66.375" fill="none"/><circle cx="879.475" cy="149.345" r="16.595" fill="#f9fcfd"/><circle cx="879.475" cy="182.535" r="16.595" fill="#d7ecf3"/><circle cx="912.655" cy="182.535" r="16.595" fill="#f6fbfc"/><rect x="0" y="199.125" width="66.375" height="66.375" fill="none"/><circle cx="49.785" cy="248.905" r="16.595" fill="#fbfdfe"/><rect x="66.375" y="199.125" width="66.375" height="66.375" fill="none"/><circle cx="116.155" cy="215.725" r="16.595" fill="#ebf5f9"/><circle cx="82.975" cy="248.905" r="16.595" fill="#f3bcb2"/><circle cx="116.155" cy="248.905" r="16.595" fill="#f3bcb3"/><rect x="132.75" y="199.125" width="66.375" height="66.375" fill="none"/><circle cx="182.535" cy="215.725" r="16.595" fill="#fae2dd"/><rect x="199.125" y="199.125" width="66.375" height="66.375" fill="none"/><circle cx="215.725" cy="215.725" r="16.595" fill="#fffdfd"/><circle cx="248.905" cy="215.725" r="16.595" fill="#f6cec7"/><circle cx="215.725" cy="248.905" r="16.595" fill="#e6f3f7"/><circle cx="248.905" cy="248.905" r="16.595" fill="none"/><rect x="265.5" y="199.125" width="66.375" height="66.375" fill="none"/><circle cx="282.095" cy="215.725" r="16.595" fill="#fdf7f5"/><circle cx="282.095" cy="248.905" r="16.595" fill="#f0b1a5"/><circle cx="315.28499999999997" cy="248.905" r="16.595" fill="#f4c6bd"/><circle cx="365.07" cy="232.32" r="33.19" fill="#b2dae8"/><rect x="398.25" y="199.125" width="66.375" height="66.375" fill="none"/><circle cx="448.03499999999997" cy="215.725" r="16.595" fill="#c4e3ed"/><circle cx="414.845" cy="248.905" r="16.595" fill="#fcfdfe"/><rect x="464.625" y="199.125" width="66.375" height="66.375" fill="none"/><circle cx="481.225" cy="248.905" r="16.595" fill="#f3beb5"/><circle cx="564.19" cy="232.32" r="33.19" fill="#fbe8e5"/><rect x="597.375" y="199.125" width="66.375" height="66.375" fill="none"/><circle cx="647.155" cy="248.905" r="16.595" fill="#b1dae7"/><rect x="663.75" y="199.125" width="66.375" height="66.375" fill="none"/><circle cx="680.345" cy="215.725" r="16.595" fill="#f6fbfc"/><circle cx="713.5350000000001" cy="215.725" r="16.595" fill="#ecf6f9"/><circle cx="680.345" cy="248.905" r="16.595" fill="#f1b5aa"/><rect x="862.875" y="199.125" width="66.375" height="66.375" fill="none"/><circle cx="879.475" cy="215.725" r="16.595" fill="#fae3df"/><circle cx="912.655" cy="215.725" r="16.595" fill="#f4c2b9"/><circle cx="879.475" cy="248.905" r="16.595" fill="#fbe9e6"/><circle cx="912.655" cy="248.905" r="16.595" fill="#f3bcb2"/><circle cx="962.44" cy="232.32" r="33.19" fill="#f6d0c9"/><rect x="66.375" y="265.5" width="66.375" height="66.375" fill="none"/><circle cx="82.975" cy="282.095" r="16.595" fill="#f4fafc"/><circle cx="116.155" cy="282.095" r="16.595" fill="#d7ecf3"/><circle cx="82.975" cy="315.28499999999997" r="16.595" fill="#d4ebf2"/><circle cx="165.94" cy="298.69" r="33.19" fill="#dceef4"/><circle cx="232.32" cy="298.69" r="33.19" fill="#d5ebf2"/><rect x="398.25" y="265.5" width="66.375" height="66.375" fill="none"/><circle cx="448.03499999999997" cy="282.095" r="16.595" fill="#f7d5cf"/><circle cx="414.845" cy="315.28499999999997" r="16.595" fill="#bde0eb"/><circle cx="448.03499999999997" cy="315.28499999999997" r="16.595" fill="#b8dde9"/><circle cx="497.82" cy="298.69" r="33.19" fill="#d4ebf2"/><circle cx="630.5699999999999" cy="298.69" r="33.19" fill="#f2b8ad"/><rect x="663.75" y="265.5" width="66.375" height="66.375" fill="none"/><circle cx="680.345" cy="282.095" r="16.595" fill="#fef8f7"/><circle cx="680.345" cy="315.28499999999997" r="16.595" fill="#f2b9ae"/><rect x="730.125" y="265.5" width="66.375" height="66.375" fill="none"/><circle cx="746.725" cy="282.095" r="16.595" fill="#d7ecf3"/><circle cx="746.725" cy="315.28499999999997" r="16.595" fill="#f3bdb3"/><circle cx="779.905" cy="315.28499999999997" r="16.595" fill="#d6ecf3"/><circle cx="829.69" cy="298.69" r="33.19" fill="#f9ded9"/><circle cx="896.0699999999999" cy="298.69" r="33.19" fill="#fefcfb"/><circle cx="962.44" cy="298.69" r="33.19" fill="#b8dde9"/><circle cx="33.19" cy="365.07" r="33.19" fill="#f5cac2"/><rect x="66.375" y="331.875" width="66.375" height="66.375" fill="none"/><circle cx="82.975" cy="348.475" r="16.595" fill="#fef9f9"/><circle cx="116.155" cy="348.475" r="16.595" fill="#bde0eb"/><circle cx="82.975" cy="381.655" r="16.595" fill="#fef8f7"/><circle cx="116.155" cy="381.655" r="16.595" fill="#fceeeb"/><rect x="132.75" y="331.875" width="66.375" height="66.375" fill="none"/><circle cx="149.345" cy="348.475" r="16.595" fill="#f1b3a8"/><circle cx="365.07" cy="365.07" r="33.19" fill="#bddfeb"/><circle cx="431.44" cy="365.07" r="33.19" fill="#f9dcd7"/><rect x="531" y="331.875" width="66.375" height="66.375" fill="none"/><circle cx="547.595" cy="348.475" r="16.595" fill="#dff0f5"/><circle cx="580.7850000000001" cy="348.475" r="16.595" fill="#cae6ef"/><circle cx="580.7850000000001" cy="381.655" r="16.595" fill="#f8dbd5"/><rect x="597.375" y="331.875" width="66.375" height="66.375" fill="none"/><circle cx="613.975" cy="348.475" r="16.595" fill="#d5ebf2"/><circle cx="647.155" cy="348.475" r="16.595" fill="#fefaf9"/><circle cx="647.155" cy="381.655" r="16.595" fill="#d5ebf2"/><circle cx="696.94" cy="365.07" r="33.19" fill="#f5fafc"/><rect x="730.125" y="331.875" width="66.375" height="66.375" fill="none"/><circle cx="746.725" cy="348.475" r="16.595" fill="#dceef4"/><circle cx="779.905" cy="348.475" r="16.595" fill="#fbe8e5"/><circle cx="746.725" cy="381.655" r="16.595" fill="#f5cac2"/><circle cx="779.905" cy="381.655" r="16.595" fill="#f6cfc7"/><circle cx="896.0699999999999" cy="365.07" r="33.19" fill="#f7d6cf"/><rect x="0" y="398.25" width="66.375" height="66.375" fill="none"/><circle cx="49.785" cy="414.845" r="16.595" fill="#fdf3f1"/><circle cx="16.595" cy="448.03499999999997" r="16.595" fill="#f3bcb2"/><circle cx="49.785" cy="448.03499999999997" r="16.595" fill="#f7d5cf"/><circle cx="99.57" cy="431.44" r="33.19" fill="#f0b0a4"/><circle cx="298.69" cy="431.44" r="33.19" fill="#f9e0db"/><circle cx="431.44" cy="431.44" r="33.19" fill="#b3dbe8"/><circle cx="763.3199999999999" cy="431.44" r="33.19" fill="#dceef4"/><rect x="862.875" y="398.25" width="66.375" height="66.375" fill="none"/><circle cx="879.475" cy="414.845" r="16.595" fill="#bfe0eb"/><circle cx="879.475" cy="448.03499999999997" r="16.595" fill="#f5c8c0"/><circle cx="912.655" cy="448.03499999999997" r="16.595" fill="#f4c5bd"/><circle cx="962.44" cy="431.44" r="33.19" fill="#bfe1eb"/><circle cx="33.19" cy="497.82" r="33.19" fill="#fbe7e4"/><circle cx="99.57" cy="497.82" r="33.19" fill="#c2e2ec"/><rect x="199.125" y="464.625" width="66.375" height="66.375" fill="none"/><circle cx="215.725" cy="481.225" r="16.595" fill="#b5dce8"/><circle cx="248.905" cy="481.225" r="16.595" fill="#cbe6ef"/><circle cx="248.905" cy="514.405" r="16.595" fill="#f8d9d3"/><rect x="265.5" y="464.625" width="66.375" height="66.375" fill="none"/><circle cx="282.095" cy="481.225" r="16.595" fill="#b6dce9"/><circle cx="282.095" cy="514.405" r="16.595" fill="#f2b9ae"/><circle cx="315.28499999999997" cy="514.405" r="16.595" fill="#e0f0f5"/><circle cx="365.07" cy="497.82" r="33.19" fill="#edf6f9"/><circle cx="497.82" cy="497.82" r="33.19" fill="#f1b3a8"/><circle cx="630.5699999999999" cy="497.82" r="33.19" fill="#c8e5ee"/><rect x="730.125" y="464.625" width="66.375" height="66.375" fill="none"/><circle cx="779.905" cy="481.225" r="16.595" fill="#c8e5ee"/><circle cx="746.725" cy="514.405" r="16.595" fill="#f4c2b9"/><circle cx="779.905" cy="514.405" r="16.595" fill="#f7d5cf"/><rect x="796.5" y="464.625" width="66.375" height="66.375" fill="none"/><circle cx="813.095" cy="481.225" r="16.595" fill="#e9f5f8"/><circle cx="846.2850000000001" cy="481.225" r="16.595" fill="#f3f9fb"/><circle cx="846.2850000000001" cy="514.405" r="16.595" fill="#f5cbc4"/><rect x="929.25" y="464.625" width="66.375" height="66.375" fill="none"/><circle cx="945.845" cy="514.405" r="16.595" fill="#e1f1f6"/><circle cx="979.0350000000001" cy="514.405" r="16.595" fill="#fcfefe"/></g></svg>