<?xml version="1.0" standalone="no"?><svg xmlns:xlink="http://www.w3.org/1999/xlink" xmlns="http://www.w3.org/2000/svg" viewBox="0 0 1000 533.3333333333334" preserveAspectRatio="xMaxYMax slice"><g transform="scale(1.0043942247332078)"><rect x="0" y="0" width="995.625" height="531" fill="#ffffff"/><rect x="0" y="0" width="66.375" height="66.375" fill="#ffffff"/><rect x="0" y="0" width="33.19" height="33.19" fill="#b2dbe8"/><polygon points="33.19,0 33.19,33.19 0,33.19" fill="#c0e1ec"/><rect x="33.19" y="0" width="33.19" height="33.19" fill="#b5dce8"/><polygon points="33.19,0 66.38,0 33.19,33.19" fill="#f9dfda"/><rect x="0" y="33.19" width="33.19" height="33.19" fill="#f2b8ae"/><polygon points="0,33.19 33.19,33.19 33.19,66.38" fill="#f6d0c9"/><rect x="33.19" y="33.19" width="33.19" height="33.19" fill="#f9dfda"/><polygon points="33.19,33.19 66.38,66.38 33.19,66.38" fill="#ecf6f9"/><rect x="66.38" y="0" width="66.38" height="66.38" fill="#f7d3cc"/><polygon points="132.76,0 132.76,66.38 66.38,66.38" fill="#b7dde9"/><rect x="132.75" y="0" width="66.375" height="66.375" fill="#ffffff"/><rect x="132.75" y="0" width="33.19" height="33.19" fill="#aed9e6"/><polygon points="165.94,0 165.94,33.19 132.75,33.19" fill="#fbe7e3"/><rect x="165.94" y="0" width="33.19" height="33.19" fill="#c2e2ec"/><polygon points="165.94,0 199.13,33.19 165.94,33.19" fill="#f9fcfd"/><rect x="132.75" y="33.19" width="33.19" height="33.19" fill="#fbece9"/><polygon points="132.75,33.19 165.94,33.19 132.75,66.38" fill="#fae6e2"/><rect x="165.94" y="33.19" width="33.19" height="33.19" fill="#f9e1dd"/><polygon points="165.94,33.19 199.13,33.19 199.13,66.38" fill="#fae5e2"/><rect x="199.125" y="0" width="66.375" height="66.375" fill="#ffffff"/><rect x="199.13" y="0" width="33.19" height="33.19" fill="#fafdfe"/><circle cx="215.725" cy="16.595" r="16.595" fill="#fefbfa"/><rect x="232.31" y="0" width="33.19" height="33.19" fill="#c8e5ee"/><rect x="232.31" y="0" width="33.19" height="33.19" fill="#f8d9d4"/><rect x="199.13" y="33.19" width="33.19" height="33.19" fill="#f2b9ae"/><circle cx="215.725" cy="49.785" r="16.595" fill="#f6cec7"/><rect x="232.31" y="33.19" width="33.19" height="33.19" fill="#f2f9fb"/><rect x="232.31" y="33.19" width="33.19" height="33.19" fill="#f8d8d2"/><rect x="265.5" y="0" width="66.38" height="66.38" fill="#f9fcfd"/><rect x="265.5" y="0" width="66.38" height="66.38" fill="#b7dde9"/><rect x="331.88" y="0" width="66.38" height="66.38" fill="#ecf6f9"/><path d="M 331.88 0 A 66.38 66.38 0 0 1 398.26 66.38 L 331.88 66.38" fill="#b1dae7"/><rect x="398.25" y="0" width="66.375" height="66.375" fill="#ffffff"/><rect x="398.25" y="0" width="33.19" height="33.19" fill="#fbe8e5"/><path d="M 398.25 33.19 A 33.19 33.19 0 0 1 431.44 0 L 431.44 8.2975 A 24.8925 24.8925 0 0 0 406.5475 33.19" fill="#d6ebf2"/><rect x="431.44" y="0" width="33.19" height="33.19" fill="#cce7ef"/><path d="M 431.44 0 A 33.19 33.19 0 0 1 464.63 33.19 L 456.3325 33.19 A 24.8925 24.8925 0 0 0 431.44 8.2975" fill="#b8dde9"/><rect x="398.25" y="33.19" width="33.19" height="33.19" fill="#f9deda"/><path d="M 398.25 33.19 A 33.19 33.19 0 0 0 431.44 66.38 L 431.44 58.082499999999996 A 24.8925 24.8925 0 0 1 406.5475 33.19" fill="#f2bab0"/><rect x="431.44" y="33.19" width="33.19" height="33.19" fill="#f7d6d0"/><path d="M 431.44 66.38 A 33.19 33.19 0 0 0 464.63 33.19 L 456.3325 33.19 A 24.8925 24.8925 0 0 1 431.44 58.082499999999996" fill="#daedf4"/><rect x="464.625" y="0" width="66.375" height="66.375" fill="#ffffff"/><rect x="464.63" y="0" width="33.19" height="33.19" fill="#c7e4ee"/><path d="M 464.63 0 A 33.19 33.19 0 0 1 497.82 33.19 L 464.63 33.19" fill="#fafdfe"/><rect x="497.81" y="0" width="33.19" height="33.19" fill="#ecf6f9"/><path d="M 497.81 33.19 A 33.19 33.19 0 0 1  531 0 L 531 33.19" fill="#f8dad5"/><rect x="464.63" y="33.19" width="33.19" height="33.19" fill="#f4c4bb"/><path d="M 464.63 66.38 A 33.19 33.19 0 0 0 497.82 33.19 L 464.63 33.19" fill="#c4e3ed"/><rect x="497.81" y="33.19" width="33.19" height="33.19" fill="#f6cfc8"/><path d="M 497.81 33.19 A 33.19 33.19 0 0 0 531 66.38 L 531 33.19" fill="#cae6ef"/><rect x="531" y="0" width="66.38" height="66.38" fill="#e3f2f7"/><path d="M 531 66.38 A 66.38 66.38 0 0 1  597.38 0 L 597.38 66.38" fill="#cae6ef"/><rect x="597.375" y="0" width="66.375" height="66.375" fill="#ffffff"/><rect x="597.38" y="0" width="33.19" height="33.19" fill="#b4dbe8"/><path d="M 597.38 0 A 33.19 33.19 0 0 0 630.5699999999999 33.19 L 630.5699999999999 0" fill="#f0b0a5"/><rect x="630.56" y="0" width="33.19" height="33.19" fill="#fbe8e4"/><path d="M 630.56 33.19 A 33.19 33.19 0 0 0 663.75 0 L 630.56 0" fill="#f2b9ae"/><rect x="597.38" y="33.19" width="33.19" height="33.19" fill="#fbe7e4"/><path d="M 597.38 66.38 A 33.19 33.19 0 0 1  630.5699999999999 33.19 L 630.5699999999999 66.38" fill="#f3fafb"/><rect x="630.56" y="33.19" width="33.19" height="33.19" fill="#bddfeb"/><path d="M 630.56 33.19 A 33.19 33.19 0 0 1 663.75 66.38 L 630.56 66.38" fill="#fdf6f5"/><rect x="663.75" y="0" width="66.375" height="66.375" fill="#ffffff"/><rect x="663.75" y="0" width="33.19" height="33.19" fill="#ffffff"/><path d="M 663.75 0 A 33.19 33.19 0 0 1 696.94 33.19 L 663.75 33.19" fill="#f3bcb2"/><rect x="696.94" y="0" width="33.19" height="33.19" fill="#f6fbfc"/><path d="M 696.94 33.19 A 33.19 33.19 0 0 1  730.1300000000001 0 L 730.1300000000001 33.19" fill="#f3bdb4"/><rect x="663.75" y="33.19" width="33.19" height="33.19" fill="#fbe9e6"/><path d="M 663.75 66.38 A 33.19 33.19 0 0 0 696.94 33.19 L 663.75 33.19" fill="#e6f3f7"/><rect x="696.94" y="33.19" width="33.19" height="33.19" fill="#f6cfc8"/><path d="M 696.94 33.19 A 33.19 33.19 0 0 0 730.1300000000001 66.38 L 730.1300000000001 33.19" fill="#e9f4f8"/><rect x="730.125" y="0" width="66.375" height="66.375" fill="#ffffff"/><rect x="730.13" y="0" width="33.19" height="33.19" fill="#bfe1ec"/><path d="M 730.13 0 A 33.19 33.19 0 0 0 763.3199999999999 33.19 L 763.3199999999999 0" fill="#b2dbe8"/><rect x="763.31" y="0" width="33.19" height="33.19" fill="#d2eaf1"/><path d="M 763.31 33.19 A 33.19 33.19 0 0 0 796.5 0 L 763.31 0" fill="#f4c3ba"/><rect x="730.13" y="33.19" width="33.19" height="33.19" fill="#cfe8f0"/><path d="M 730.13 66.38 A 33.19 33.19 0 0 1  763.3199999999999 33.19 L 763.3199999999999 66.38" fill="#fdf5f3"/><rect x="763.31" y="33.19" width="33.19" height="33.19" fill="#bfe0eb"/><path d="M 763.31 33.19 A 33.19 33.19 0 0 1 796.5 66.38 L 763.31 66.38" fill="#f6ccc4"/><rect x="796.5" y="0" width="66.375" height="66.375" fill="#ffffff"/><rect x="796.5" y="0" width="33.19" height="33.19" fill="#eef7fa"/><circle cx="813.095" cy="16.595" r="16.595" fill="#f7d3cd"/><rect x="829.69" y="0" width="33.19" height="33.19" fill="#aed9e6"/><rect x="829.69" y="0" width="33.19" height="33.19" fill="#f1f8fb"/><rect x="796.5" y="33.19" width="33.19" height="33.19" fill="#f7d2cb"/><circle cx="813.095" cy="49.785" r="16.595" fill="#fefaf9"/><rect x="829.69" y="33.19" width="33.19" height="33.19" fill="#f9fcfd"/><rect x="829.69" y="33.19" width="33.19" height="33.19" fill="#fdf4f2"/><rect x="862.88" y="0" width="66.38" height="66.38" fill="#f5cbc3"/><polygon points="862.88,0 929.26,66.38 862.88,66.38" fill="#f4c3ba"/><rect x="929.25" y="0" width="66.375" height="66.375" fill="#ffffff"/><rect x="929.25" y="0" width="33.19" height="33.19" fill="#c0e1ec"/><path d="M 929.25 0 A 33.19 33.19 0 0 0 962.44 33.19 L 962.44 0" fill="#e2f1f6"/><rect x="962.44" y="0" width="33.19" height="33.19" fill="#e3f2f7"/><path d="M 962.44 33.19 A 33.19 33.19 0 0 0 995.6300000000001 0 L 962.44 0" fill="#e0f0f6"/><rect x="929.25" y="33.19" width="33.19" height="33.19" fill="#c4e3ed"/><path d="M 929.25 66.38 A 33.19 33.19 0 0 1  962.44 33.19 L 962.44 66.38" fill="#cee8f0"/><rect x="962.44" y="33.19" width="33.19" height="33.19" fill="#f6cec6"/><path d="M 962.44 33.19 A 33.19 33.19 0 0 1 995.6300000000001 66.38 L 962.44 66.38" fill="#cbe6ef"/><rect x="0" y="66.38" width="66.38" height="66.38" fill="#f8dcd7"/><path d="M 0 132.76 A 66.38 66.38 0 0 1  66.38 66.38 L 0 132.76 A 66.38 66.38 0 0 0 66.38 66.38" fill="#f7d6d0"/><rect x="66.375" y="66.375" width="66.375" height="66.375" fill="#ffffff"/><rect x="66.38" y="66.38" width="33.19" height="33.19" fill="#cee8f0"/><path d="M 66.38 99.57 A 33.19 33.19 0 0 1 99.57 66.38 L 99.57 74.6775 A 24.8925 24.8925 0 0 0 74.6775 99.57" fill="#f6fbfc"/><rect x="99.56" y="66.38" width="33.19" height="33.19" fill="#ebf5f9"/><path d="M 99.56 66.38 A 33.19 33.19 0 0 1 132.75 99.57 L 124.4525 99.57 A 24.8925 24.8925 0 0 0 99.56 74.6775" fill="#fbece9"/><rect x="66.38" y="99.56" width="33.19" height="33.19" fill="#afd9e7"/><path d="M 66.38 99.56 A 33.19 33.19 0 0 0 99.57 132.75 L 99.57 124.4525 A 24.8925 24.8925 0 0 1 74.6775 99.56" fill="#f7d5cf"/><rect x="99.56" y="99.56" width="33.19" height="33.19" fill="#f8dad5"/><path d="M 99.56 132.75 A 33.19 33.19 0 0 0 132.75 99.56 L 124.4525 99.56 A 24.8925 24.8925 0 0 1 99.56 124.4525" fill="#f8d7d1"/><rect x="132.75" y="66.38" width="66.38" height="66.38" fill="#eaf5f9"/><path d="M 132.75 132.76 A 66.38 66.38 0 0 1  199.13 66.38 L 199.13 132.76" fill="#f3beb4"/><rect x="199.125" y="66.375" width="66.375" height="66.375" fill="#ffffff"/><rect x="199.13" y="66.38" width="33.19" height="33.19" fill="#f1b2a6"/><path d="M 199.13 99.57 A 33.19 33.19 0 0 1  232.32 66.38 L 232.32 99.57" fill="#fdf5f4"/><rect x="232.31" y="66.38" width="33.19" height="33.19" fill="#f2b7ac"/><path d="M 232.31 66.38 A 33.19 33.19 0 0 1 265.5 99.57 L 232.31 99.57" fill="#b1dae7"/><rect x="199.13" y="99.56" width="33.19" height="33.19" fill="#d8edf3"/><path d="M 199.13 99.56 A 33.19 33.19 0 0 0 232.32 132.75 L 232.32 99.56" fill="#f2b6ab"/><rect x="232.31" y="99.56" width="33.19" height="33.19" fill="#f8dbd5"/><path d="M 232.31 132.75 A 33.19 33.19 0 0 0 265.5 99.56 L 232.31 99.56" fill="#fafdfe"/><rect x="265.5" y="66.38" width="66.38" height="66.38" fill="#f8d7d1"/><rect x="265.5" y="66.38" width="66.38" height="66.38" fill="#f2b6ac"/><rect x="331.88" y="66.38" width="66.38" height="66.38" fill="#e8f4f8"/><polygon points="331.88,66.38 398.26,66.38 331.88,132.76" fill="#f0f8fa"/><rect x="398.25" y="66.375" width="66.375" height="66.375" fill="#ffffff"/><rect x="398.25" y="66.38" width="33.19" height="33.19" fill="#e0f0f6"/><path d="M 398.25 66.38 A 33.19 33.19 0 0 0 431.44 99.57 L 431.44 66.38" fill="#fbebe8"/><rect x="431.44" y="66.38" width="33.19" height="33.19" fill="#f2b8ae"/><path d="M 431.44 99.57 A 33.19 33.19 0 0 0 464.63 66.38 L 431.44 66.38" fill="#f4c1b8"/><rect x="398.25" y="99.56" width="33.19" height="33.19" fill="#f4c4bb"/><path d="M 398.25 132.75 A 33.19 33.19 0 0 1  431.44 99.56 L 431.44 132.75" fill="#c5e3ed"/><rect x="431.44" y="99.56" width="33.19" height="33.19" fill="#f9fcfd"/><path d="M 431.44 99.56 A 33.19 33.19 0 0 1 464.63 132.75 L 431.44 132.75" fill="#fafdfe"/><rect x="464.63" y="66.38" width="66.38" height="66.38" fill="#e0f0f6"/><path d="M 464.63 66.38 A 66.38 66.38 0 0 1 531.01 132.76 L 464.63 132.76" fill="#e7f4f8"/><rect x="531" y="66.38" width="66.38" height="66.38" fill="#fcefed"/><polygon points="531,66.38 597.38,66.38 531,132.76" fill="#f0afa4"/><rect x="597.375" y="66.375" width="66.375" height="66.375" fill="#ffffff"/><rect x="597.38" y="66.38" width="33.19" height="33.19" fill="#f8fbfd"/><polygon points="630.5699999999999,66.38 630.5699999999999,99.57 597.38,99.57" fill="#dbeef4"/><rect x="630.56" y="66.38" width="33.19" height="33.19" fill="#fcefed"/><polygon points="630.56,66.38 663.75,99.57 630.56,99.57" fill="#f4c6be"/><rect x="597.38" y="99.56" width="33.19" height="33.19" fill="#f8d8d3"/><polygon points="597.38,99.56 630.5699999999999,99.56 630.5699999999999,132.75" fill="#fceeeb"/><rect x="630.56" y="99.56" width="33.19" height="33.19" fill="#f8dcd6"/><polygon points="630.56,99.56 663.75,99.56 630.56,132.75" fill="#f5c7bf"/><rect x="663.75" y="66.38" width="66.38" height="66.38" fill="#f8dad4"/><polygon points="663.75,66.38 730.13,66.38 663.75,132.76" fill="#f8fcfd"/><rect x="730.125" y="66.375" width="66.375" height="66.375" fill="#ffffff"/><rect x="730.13" y="66.38" width="33.19" height="33.19" fill="#daedf4"/><path d="M 730.13 99.57 A 33.19 33.19 0 0 0 763.3199999999999 66.38 L 730.13 66.38" fill="#dbeef4"/><rect x="763.31" y="66.38" width="33.19" height="33.19" fill="#fbe8e4"/><path d="M 763.31 66.38 A 33.19 33.19 0 0 0 796.5 99.57 L 796.5 66.38" fill="#bfe0eb"/><rect x="730.13" y="99.56" width="33.19" height="33.19" fill="#f3c1b7"/><path d="M 730.13 99.56 A 33.19 33.19 0 0 1 763.3199999999999 132.75 L 730.13 132.75" fill="#e5f3f7"/><rect x="763.31" y="99.56" width="33.19" height="33.19" fill="#fcecea"/><path d="M 763.31 132.75 A 33.19 33.19 0 0 1  796.5 99.56 L 796.5 132.75" fill="#f1b6ab"/><rect x="796.5" y="66.375" width="66.375" height="66.375" fill="#ffffff"/><rect x="796.5" y="66.38" width="33.19" height="33.19" fill="#fcedeb"/><path d="M 796.5 66.38 A 33.19 33.19 0 0 0 829.69 99.57 L 829.69 66.38" fill="#f2b7ac"/><rect x="829.69" y="66.38" width="33.19" height="33.19" fill="#f3f9fb"/><path d="M 829.69 99.57 A 33.19 33.19 0 0 0 862.8800000000001 66.38 L 829.69 66.38" fill="#bee0eb"/><rect x="796.5" y="99.56" width="33.19" height="33.19" fill="#c8e5ee"/><path d="M 796.5 132.75 A 33.19 33.19 0 0 1  829.69 99.56 L 829.69 132.75" fill="#c0e1ec"/><rect x="829.69" y="99.56" width="33.19" height="33.19" fill="#e1f1f6"/><path d="M 829.69 99.56 A 33.19 33.19 0 0 1 862.8800000000001 132.75 L 829.69 132.75" fill="#f4c2b9"/><rect x="862.875" y="66.375" width="66.375" height="66.375" fill="#ffffff"/><rect x="862.88" y="66.38" width="33.19" height="33.19" fill="#ddeff5"/><polygon points="896.0699999999999,66.38 896.0699999999999,99.57 862.88,99.57" fill="#f8d7d1"/><rect x="896.06" y="66.38" width="33.19" height="33.19" fill="#fefcfb"/><polygon points="896.06,66.38 929.25,99.57 896.06,99.57" fill="#e3f2f6"/><rect x="862.88" y="99.56" width="33.19" height="33.19" fill="#f1f9fb"/><polygon points="862.88,99.56 896.0699999999999,99.56 896.0699999999999,132.75" fill="#c5e4ed"/><rect x="896.06" y="99.56" width="33.19" height="33.19" fill="#fffdfc"/><polygon points="896.06,99.56 929.25,99.56 896.06,132.75" fill="#d9edf3"/><rect x="929.25" y="66.375" width="66.375" height="66.375" fill="#ffffff"/><rect x="929.25" y="66.38" width="33.19" height="33.19" fill="#b3dbe8"/><path d="M 929.25 66.38 A 33.19 33.19 0 0 1 962.44 99.57 L 929.25 99.57" fill="#f9dcd7"/><rect x="962.44" y="66.38" width="33.19" height="33.19" fill="#b9deea"/><path d="M 962.44 99.57 A 33.19 33.19 0 0 1  995.6300000000001 66.38 L 995.6300000000001 99.57" fill="#c4e3ed"/><rect x="929.25" y="99.56" width="33.19" height="33.19" fill="#cbe6ef"/><path d="M 929.25 132.75 A 33.19 33.19 0 0 0 962.44 99.56 L 929.25 99.56" fill="#fef9f8"/><rect x="962.44" y="99.56" width="33.19" height="33.19" fill="#f2b8ad"/><path d="M 962.44 99.56 A 33.19 33.19 0 0 0 995.6300000000001 132.75 L 995.6300000000001 99.56" fill="#ecf6f9"/><rect x="0" y="132.75" width="66.375" height="66.375" fill="#ffffff"/><rect x="0" y="132.75" width="33.19" height="33.19" fill="#add8e6"/><path d="M 0 165.94 A 33.19 33.19 0 0 1 33.19 132.75 L 33.19 141.0475 A 24.8925 24.8925 0 0 0 8.2975 165.94" fill="#bee0eb"/><rect x="33.19" y="132.75" width="33.19" height="33.19" fill="#d6ecf3"/><path d="M 33.19 132.75 A 33.19 33.19 0 0 1 66.38 165.94 L 58.082499999999996 165.94 A 24.8925 24.8925 0 0 0 33.19 141.0475" fill="#d6ebf2"/><rect x="0" y="165.94" width="33.19" height="33.19" fill="#fbe9e6"/><path d="M 0 165.94 A 33.19 33.19 0 0 0 33.19 199.13 L 33.19 190.83249999999998 A 24.8925 24.8925 0 0 1 8.2975 165.94" fill="#f5c7bf"/><rect x="33.19" y="165.94" width="33.19" height="33.19" fill="#eef7fa"/><path d="M 33.19 199.13 A 33.19 33.19 0 0 0 66.38 165.94 L 58.082499999999996 165.94 A 24.8925 24.8925 0 0 1 33.19 190.83249999999998" fill="#f6ccc4"/><rect x="66.375" y="132.75" width="66.375" height="66.375" fill="#ffffff"/><rect x="66.38" y="132.75" width="33.19" height="33.19" fill="#f8dad5"/><path d="M 66.38 165.94 A 33.19 33.19 0 0 1 99.57 132.75 L 99.57 141.0475 A 24.8925 24.8925 0 0 0 74.6775 165.94" fill="#fdf5f3"/><rect x="99.56" y="132.75" width="33.19" height="33.19" fill="#f9fcfd"/><path d="M 99.56 132.75 A 33.19 33.19 0 0 1 132.75 165.94 L 124.4525 165.94 A 24.8925 24.8925 0 0 0 99.56 141.0475" fill="#fbe7e4"/><rect x="66.38" y="165.94" width="33.19" height="33.19" fill="#fae4e0"/><path d="M 66.38 165.94 A 33.19 33.19 0 0 0 99.57 199.13 L 99.57 190.83249999999998 A 24.8925 24.8925 0 0 1 74.6775 165.94" fill="#f7d2cb"/><rect x="99.56" y="165.94" width="33.19" height="33.19" fill="#fefaf9"/><path d="M 99.56 199.13 A 33.19 33.19 0 0 0 132.75 165.94 L 124.4525 165.94 A 24.8925 24.8925 0 0 1 99.56 190.83249999999998" fill="#d8ecf3"/><rect x="132.75" y="132.75" width="66.375" height="66.375" fill="#ffffff"/><rect x="132.75" y="132.75" width="33.19" height="33.19" fill="#c2e2ec"/><path d="M 132.75 165.94 A 33.19 33.19 0 0 0 165.94 132.75 L 132.75 132.75" fill="#dceef4"/><rect x="165.94" y="132.75" width="33.19" height="33.19" fill="#f5c9c1"/><path d="M 165.94 132.75 A 33.19 33.19 0 0 0 199.13 165.94 L 199.13 132.75" fill="#fcf0ee"/><rect x="132.75" y="165.94" width="33.19" height="33.19" fill="#c9e5ee"/><path d="M 132.75 165.94 A 33.19 33.19 0 0 1 165.94 199.13 L 132.75 199.13" fill="#f1f8fb"/><rect x="165.94" y="165.94" width="33.19" height="33.19" fill="#ddeff5"/><path d="M 165.94 199.13 A 33.19 33.19 0 0 1  199.13 165.94 L 199.13 199.13" fill="#e4f2f7"/><rect x="199.125" y="132.75" width="66.375" height="66.375" fill="#ffffff"/><rect x="199.13" y="132.75" width="33.19" height="33.19" fill="#f4c5bd"/><polygon points="232.32,132.75 232.32,165.94 199.13,165.94" fill="#c7e4ee"/><rect x="232.31" y="132.75" width="33.19" height="33.19" fill="#dff0f5"/><polygon points="232.31,132.75 265.5,132.75 232.31,165.94" fill="#f2b8ad"/><rect x="199.13" y="165.94" width="33.19" height="33.19" fill="#cde7f0"/><polygon points="199.13,165.94 232.32,165.94 232.32,199.13" fill="#f9fcfd"/><rect x="232.31" y="165.94" width="33.19" height="33.19" fill="#f4c1b8"/><polygon points="232.31,165.94 265.5,199.13 232.31,199.13" fill="#f5c9c1"/><rect x="265.5" y="132.75" width="66.375" height="66.375" fill="#ffffff"/><rect x="265.5" y="132.75" width="33.19" height="33.19" fill="#fdf2f0"/><polygon points="298.69,132.75 298.69,165.94 265.5,165.94" fill="#f9dfdb"/><rect x="298.69" y="132.75" width="33.19" height="33.19" fill="#bcdfeb"/><polygon points="298.69,132.75 331.88,165.94 298.69,165.94" fill="#e5f2f7"/><rect x="265.5" y="165.94" width="33.19" height="33.19" fill="#f7d4ce"/><polygon points="265.5,165.94 298.69,165.94 265.5,199.13" fill="#fdf6f5"/><rect x="298.69" y="165.94" width="33.19" height="33.19" fill="#fdf6f4"/><polygon points="298.69,165.94 331.88,165.94 331.88,199.13" fill="#ebf5f9"/><rect x="331.88" y="132.75" width="66.38" height="66.38" fill="#f6cfc8"/><path d="M 331.88 199.13 A 66.38 66.38 0 0 0 398.26 132.75 L 331.88 132.75" fill="#f3bcb2"/><rect x="398.25" y="132.75" width="66.38" height="66.38" fill="#b5dce8"/><rect x="398.25" y="132.75" width="66.38" height="66.38" fill="#feffff"/><rect x="464.63" y="132.75" width="66.38" height="66.38" fill="#f4c1b8"/><polygon points="464.63,132.75 531.01,132.75 464.63,199.13" fill="#f4c1b8"/><rect x="531" y="132.75" width="66.375" height="66.375" fill="#ffffff"/><rect x="531" y="132.75" width="33.19" height="33.19" fill="#b7dde9"/><polygon points="564.19,132.75 564.19,165.94 531,165.94" fill="#f8dad5"/><rect x="564.19" y="132.75" width="33.19" height="33.19" fill="#c0e1ec"/><polygon points="564.19,132.75 597.3800000000001,132.75 564.19,165.94" fill="#fefbfa"/><rect x="531" y="165.94" width="33.19" height="33.19" fill="#f2f9fb"/><polygon points="531,165.94 564.19,165.94 564.19,199.13" fill="#fbe7e4"/><rect x="564.19" y="165.94" width="33.19" height="33.19" fill="#f4c5bc"/><polygon points="564.19,165.94 597.3800000000001,199.13 564.19,199.13" fill="#fcefec"/><rect x="597.375" y="132.75" width="66.375" height="66.375" fill="#ffffff"/><rect x="597.38" y="132.75" width="33.19" height="33.19" fill="#f5c9c1"/><path d="M 597.38 165.94 A 33.19 33.19 0 0 1 630.5699999999999 132.75 L 630.5699999999999 141.0475 A 24.8925 24.8925 0 0 0 605.6775 165.94" fill="#c8e5ee"/><rect x="630.56" y="132.75" width="33.19" height="33.19" fill="#dceef4"/><path d="M 630.56 132.75 A 33.19 33.19 0 0 1 663.75 165.94 L 655.4525 165.94 A 24.8925 24.8925 0 0 0 630.56 141.0475" fill="#f0afa4"/><rect x="597.38" y="165.94" width="33.19" height="33.19" fill="#fdf5f3"/><path d="M 597.38 165.94 A 33.19 33.19 0 0 0 630.5699999999999 199.13 L 630.5699999999999 190.83249999999998 A 24.8925 24.8925 0 0 1 605.6775 165.94" fill="#b1dae7"/><rect x="630.56" y="165.94" width="33.19" height="33.19" fill="#f0b0a4"/><path d="M 630.56 199.13 A 33.19 33.19 0 0 0 663.75 165.94 L 655.4525 165.94 A 24.8925 24.8925 0 0 1 630.56 190.83249999999998" fill="#bde0eb"/><rect x="663.75" y="132.75" width="66.38" height="66.38" fill="#f9fcfd"/><polygon points="663.75,132.75 730.13,132.75 730.13,199.13" fill="#f1b3a8"/><rect x="730.125" y="132.75" width="66.375" height="66.375" fill="#ffffff"/><rect x="730.13" y="132.75" width="33.19" height="33.19" fill="#f0b0a4"/><path d="M 730.13 132.75 A 33.19 33.19 0 0 0 763.3199999999999 165.94 L 763.3199999999999 132.75" fill="#fae4e0"/><rect x="763.31" y="132.75" width="33.19" height="33.19" fill="#b2dae8"/><path d="M 763.31 165.94 A 33.19 33.19 0 0 0 796.5 132.75 L 763.31 132.75" fill="#fbe8e5"/><rect x="730.13" y="165.94" width="33.19" height="33.19" fill="#bde0eb"/><path d="M 730.13 199.13 A 33.19 33.19 0 0 1  763.3199999999999 165.94 L 763.3199999999999 199.13" fill="#f9e0dc"/><rect x="763.31" y="165.94" width="33.19" height="33.19" fill="#e8f4f8"/><path d="M 763.31 165.94 A 33.19 33.19 0 0 1 796.5 199.13 L 763.31 199.13" fill="#c9e5ef"/><rect x="796.5" y="132.75" width="66.38" height="66.38" fill="#d7ecf3"/><rect x="796.5" y="132.75" width="66.38" height="66.38" fill="#fae2de"/><rect x="862.875" y="132.75" width="66.375" height="66.375" fill="#ffffff"/><rect x="862.88" y="132.75" width="33.19" height="33.19" fill="#f7fbfd"/><path d="M 862.88 165.94 A 33.19 33.19 0 0 0 896.0699999999999 132.75 L 862.88 132.75" fill="#c7e5ee"/><rect x="896.06" y="132.75" width="33.19" height="33.19" fill="#fcf1ee"/><path d="M 896.06 132.75 A 33.19 33.19 0 0 0 929.25 165.94 L 929.25 132.75" fill="#e8f4f8"/><rect x="862.88" y="165.94" width="33.19" height="33.19" fill="#fef8f7"/><path d="M 862.88 165.94 A 33.19 33.19 0 0 1 896.0699999999999 199.13 L 862.88 199.13" fill="#f1b3a8"/><rect x="896.06" y="165.94" width="33.19" height="33.19" fill="#f8dad4"/><path d="M 896.06 199.13 A 33.19 33.19 0 0 1  929.25 165.94 L 929.25 199.13" fill="#e5f3f7"/><rect x="929.25" y="132.75" width="66.38" height="66.38" fill="#fffefe"/><path d="M 929.25 132.75 A 66.38 66.38 0 0 0 995.63 199.13 L 995.63 132.75" fill="#f2b9ae"/><rect x="0" y="199.13" width="66.38" height="66.38" fill="#f4c3ba"/><polygon points="0,199.13 66.38,265.51 0,265.51" fill="#eff7fa"/><rect x="66.375" y="199.125" width="66.375" height="66.375" fill="#ffffff"/><rect x="66.38" y="199.13" width="33.19" height="33.19" fill="#f6fbfc"/><path d="M 66.38 232.32 A 33.19 33.19 0 0 0 99.57 199.13 L 66.38 199.13" fill="#bde0eb"/><rect x="99.56" y="199.13" width="33.19" height="33.19" fill="#b5dce8"/><path d="M 99.56 199.13 A 33.19 33.19 0 0 0 132.75 232.32 L 132.75 199.13" fill="#fceeeb"/><rect x="66.38" y="232.31" width="33.19" height="33.19" fill="#fae5e1"/><path d="M 66.38 232.31 A 33.19 33.19 0 0 1 99.57 265.5 L 66.38 265.5" fill="#badeea"/><rect x="99.56" y="232.31" width="33.19" height="33.19" fill="#c5e4ed"/><path d="M 99.56 265.5 A 33.19 33.19 0 0 1  132.75 232.31 L 132.75 265.5" fill="#fceeec"/><rect x="132.75" y="199.13" width="66.38" height="66.38" fill="#f9e1dc"/><rect x="132.75" y="199.13" width="66.38" height="66.38" fill="#fffdfc"/><rect x="199.13" y="199.13" width="66.38" height="66.38" fill="#daeef4"/><path d="M 199.13 265.51 A 66.38 66.38 0 0 1  265.51 199.13 L 199.13 265.51 A 66.38 66.38 0 0 0 265.51 199.13" fill="#f1b4a8"/><rect x="265.5" y="199.125" width="66.375" height="66.375" fill="#ffffff"/><rect x="265.5" y="199.13" width="33.19" height="33.19" fill="#f8d7d2"/><polygon points="298.69,199.13 298.69,232.32 265.5,232.32" fill="#f4fafc"/><rect x="298.69" y="199.13" width="33.19" height="33.19" fill="#cfe8f0"/><polygon points="298.69,199.13 331.88,232.32 298.69,232.32" fill="#f8dad5"/><rect x="265.5" y="232.31" width="33.19" height="33.19" fill="#f2f9fb"/><polygon points="265.5,232.31 298.69,232.31 298.69,265.5" fill="#daedf4"/><rect x="298.69" y="232.31" width="33.19" height="33.19" fill="#f5fafc"/><polygon points="298.69,232.31 331.88,232.31 298.69,265.5" fill="#f0f8fa"/><rect x="331.875" y="199.125" width="66.375" height="66.375" fill="#ffffff"/><rect x="331.88" y="199.13" width="33.19" height="33.19" fill="#bfe1ec"/><path d="M 331.88 232.32 A 33.19 33.19 0 0 1 365.07 199.13 L 365.07 207.4275 A 24.8925 24.8925 0 0 0 340.1775 232.32" fill="#f7d1ca"/><rect x="365.06" y="199.13" width="33.19" height="33.19" fill="#f8d9d3"/><path d="M 365.06 199.13 A 33.19 33.19 0 0 1 398.25 232.32 L 389.9525 232.32 A 24.8925 24.8925 0 0 0 365.06 207.4275" fill="#e4f2f7"/><rect x="331.88" y="232.31" width="33.19" height="33.19" fill="#add8e6"/><path d="M 331.88 232.31 A 33.19 33.19 0 0 0 365.07 265.5 L 365.07 257.2025 A 24.8925 24.8925 0 0 1 340.1775 232.31" fill="#fcefed"/><rect x="365.06" y="232.31" width="33.19" height="33.19" fill="#c5e4ed"/><path d="M 365.06 265.5 A 33.19 33.19 0 0 0 398.25 232.31 L 389.9525 232.31 A 24.8925 24.8925 0 0 1 365.06 257.2025" fill="#fbe8e4"/><rect x="398.25" y="199.125" width="66.375" height="66.375" fill="#ffffff"/><rect x="398.25" y="199.13" width="33.19" height="33.19" fill="#f7d6d0"/><polygon points="431.44,199.13 431.44,232.32 398.25,232.32" fill="#fcecea"/><rect x="431.44" y="199.13" width="33.19" height="33.19" fill="#f1b1a5"/><polygon points="431.44,199.13 464.63,232.32 431.44,232.32" fill="#b3dbe8"/><rect x="398.25" y="232.31" width="33.19" height="33.19" fill="#fdf7f5"/><polygon points="398.25,232.31 431.44,232.31 398.25,265.5" fill="#f6d1ca"/><rect x="431.44" y="232.31" width="33.19" height="33.19" fill="#f4c4bc"/><polygon points="431.44,232.31 464.63,232.31 464.63,265.5" fill="#afd9e7"/><rect x="464.63" y="199.13" width="66.38" height="66.38" fill="#f1b5aa"/><rect x="464.63" y="199.13" width="66.38" height="66.38" fill="#eff7fa"/><rect x="531" y="199.13" width="66.38" height="66.38" fill="#fdf7f5"/><rect x="531" y="199.13" width="66.38" height="66.38" fill="#f7d1ca"/><rect x="597.38" y="199.13" width="66.38" height="66.38" fill="#eaf5f9"/><rect x="597.38" y="199.13" width="66.38" height="66.38" fill="#f3beb4"/><rect x="663.75" y="199.13" width="66.38" height="66.38" fill="#edf7fa"/><rect x="663.75" y="199.13" width="66.38" height="66.38" fill="#f2bbb1"/><rect x="730.13" y="199.13" width="66.38" height="66.38" fill="#b9deea"/><rect x="730.13" y="199.13" width="66.38" height="66.38" fill="#e4f2f7"/><rect x="796.5" y="199.125" width="66.375" height="66.375" fill="#ffffff"/><rect x="796.5" y="199.13" width="33.19" height="33.19" fill="#fdf7f5"/><path d="M 796.5 199.13 A 33.19 33.19 0 0 1 829.69 232.32 L 796.5 232.32" fill="#f9e1dc"/><rect x="829.69" y="199.13" width="33.19" height="33.19" fill="#b8dde9"/><path d="M 829.69 232.32 A 33.19 33.19 0 0 1  862.8800000000001 199.13 L 862.8800000000001 232.32" fill="#bfe1ec"/><rect x="796.5" y="232.31" width="33.19" height="33.19" fill="#f3c1b8"/><path d="M 796.5 265.5 A 33.19 33.19 0 0 0 829.69 232.31 L 796.5 232.31" fill="#bfe0eb"/><rect x="829.69" y="232.31" width="33.19" height="33.19" fill="#aed9e6"/><path d="M 829.69 232.31 A 33.19 33.19 0 0 0 862.8800000000001 265.5 L 862.8800000000001 232.31" fill="#f5c7bf"/><rect x="862.88" y="199.13" width="66.38" height="66.38" fill="#f5fafc"/><polygon points="862.88,199.13 929.26,199.13 862.88,265.51" fill="#fbebe8"/><rect x="929.25" y="199.13" width="66.38" height="66.38" fill="#c5e3ed"/><rect x="929.25" y="199.13" width="66.38" height="66.38" fill="#f1b1a6"/><rect x="0" y="265.5" width="66.375" height="66.375" fill="#ffffff"/><rect x="0" y="265.5" width="33.19" height="33.19" fill="#fef8f7"/><polygon points="33.19,265.5 33.19,298.69 0,298.69" fill="#d7ecf3"/><rect x="33.19" y="265.5" width="33.19" height="33.19" fill="#c8e5ee"/><polygon points="33.19,265.5 66.38,298.69 33.19,298.69" fill="#b4dbe8"/><rect x="0" y="298.69" width="33.19" height="33.19" fill="#fafdfe"/><polygon points="0,298.69 33.19,298.69 0,331.88" fill="#e8f4f8"/><rect x="33.19" y="298.69" width="33.19" height="33.19" fill="#fbebe9"/><polygon points="33.19,298.69 66.38,298.69 66.38,331.88" fill="#d6ecf3"/><rect x="66.38" y="265.5" width="66.38" height="66.38" fill="#f2b9af"/><rect x="66.38" y="265.5" width="66.38" height="66.38" fill="#ffffff"/><rect x="132.75" y="265.5" width="66.375" height="66.375" fill="#ffffff"/><rect x="132.75" y="265.5" width="33.19" height="33.19" fill="#f3bdb3"/><path d="M 132.75 298.69 A 33.19 33.19 0 0 0 165.94 265.5 L 132.75 265.5" fill="#c3e3ed"/><rect x="165.94" y="265.5" width="33.19" height="33.19" fill="#fcf0ee"/><path d="M 165.94 265.5 A 33.19 33.19 0 0 0 199.13 298.69 L 199.13 265.5" fill="#f9e0db"/><rect x="132.75" y="298.69" width="33.19" height="33.19" fill="#fffefe"/><path d="M 132.75 298.69 A 33.19 33.19 0 0 1 165.94 331.88 L 132.75 331.88" fill="#f3f9fb"/><rect x="165.94" y="298.69" width="33.19" height="33.19" fill="#f3bcb2"/><path d="M 165.94 331.88 A 33.19 33.19 0 0 1  199.13 298.69 L 199.13 331.88" fill="#f7d4ce"/><rect x="199.125" y="265.5" width="66.375" height="66.375" fill="#ffffff"/><rect x="199.13" y="265.5" width="33.19" height="33.19" fill="#b0dae7"/><path d="M 199.13 298.69 A 33.19 33.19 0 0 0 232.32 265.5 L 199.13 265.5" fill="#f1b5aa"/><rect x="232.31" y="265.5" width="33.19" height="33.19" fill="#f2b8ae"/><path d="M 232.31 265.5 A 33.19 33.19 0 0 0 265.5 298.69 L 265.5 265.5" fill="#cce7f0"/><rect x="199.13" y="298.69" width="33.19" height="33.19" fill="#ddeff5"/><path d="M 199.13 298.69 A 33.19 33.19 0 0 1 232.32 331.88 L 199.13 331.88" fill="#f3bdb3"/><rect x="232.31" y="298.69" width="33.19" height="33.19" fill="#fef7f6"/><path d="M 232.31 331.88 A 33.19 33.19 0 0 1  265.5 298.69 L 265.5 331.88" fill="#fae5e1"/><rect x="265.5" y="265.5" width="66.375" height="66.375" fill="#ffffff"/><rect x="265.5" y="265.5" width="33.19" height="33.19" fill="#f6cec7"/><path d="M 265.5 298.69 A 33.19 33.19 0 0 0 298.69 265.5 L 265.5 265.5" fill="#b9deea"/><rect x="298.69" y="265.5" width="33.19" height="33.19" fill="#d4ebf2"/><path d="M 298.69 265.5 A 33.19 33.19 0 0 0 331.88 298.69 L 331.88 265.5" fill="#f7d6d0"/><rect x="265.5" y="298.69" width="33.19" height="33.19" fill="#fae4e0"/><path d="M 265.5 298.69 A 33.19 33.19 0 0 1 298.69 331.88 L 265.5 331.88" fill="#b3dbe8"/><rect x="298.69" y="298.69" width="33.19" height="33.19" fill="#fbe9e6"/><path d="M 298.69 331.88 A 33.19 33.19 0 0 1  331.88 298.69 L 331.88 331.88" fill="#fcf0ed"/><rect x="331.875" y="265.5" width="66.375" height="66.375" fill="#ffffff"/><rect x="331.88" y="265.5" width="33.19" height="33.19" fill="#fef9f8"/><path d="M 331.88 298.69 A 33.19 33.19 0 0 1  365.07 265.5 L 365.07 298.69" fill="#d2eaf1"/><rect x="365.06" y="265.5" width="33.19" height="33.19" fill="#dff0f5"/><path d="M 365.06 265.5 A 33.19 33.19 0 0 1 398.25 298.69 L 365.06 298.69" fill="#fefbfb"/><rect x="331.88" y="298.69" width="33.19" height="33.19" fill="#fef8f7"/><path d="M 331.88 298.69 A 33.19 33.19 0 0 0 365.07 331.88 L 365.07 298.69" fill="#b9deea"/><rect x="365.06" y="298.69" width="33.19" height="33.19" fill="#fcf1ef"/><path d="M 365.06 331.88 A 33.19 33.19 0 0 0 398.25 298.69 L 365.06 298.69" fill="#cbe6ef"/><rect x="398.25" y="265.5" width="66.38" height="66.38" fill="#f6cec6"/><polygon points="464.63,265.5 464.63,331.88 398.25,331.88" fill="#dbeef4"/><rect x="464.63" y="265.5" width="66.38" height="66.38" fill="#f1b2a7"/><polygon points="464.63,265.5 531.01,331.88 464.63,331.88" fill="#fbe8e4"/><rect x="531" y="265.5" width="66.38" height="66.38" fill="#c2e2ed"/><polygon points="531,265.5 597.38,265.5 597.38,331.88" fill="#f1b5aa"/><rect x="597.375" y="265.5" width="66.375" height="66.375" fill="#ffffff"/><rect x="597.38" y="265.5" width="33.19" height="33.19" fill="#ebf6f9"/><polygon points="630.5699999999999,265.5 630.5699999999999,298.69 597.38,298.69" fill="#d8ecf3"/><rect x="630.56" y="265.5" width="33.19" height="33.19" fill="#fae2dd"/><polygon points="630.56,265.5 663.75,298.69 630.56,298.69" fill="#fcf1ee"/><rect x="597.38" y="298.69" width="33.19" height="33.19" fill="#fcedeb"/><polygon points="597.38,298.69 630.5699999999999,298.69 630.5699999999999,331.88" fill="#bee0eb"/><rect x="630.56" y="298.69" width="33.19" height="33.19" fill="#b8dde9"/><polygon points="630.56,298.69 663.75,298.69 630.56,331.88" fill="#e2f1f6"/><rect x="663.75" y="265.5" width="66.375" height="66.375" fill="#ffffff"/><rect x="663.75" y="265.5" width="33.19" height="33.19" fill="#f4c3ba"/><path d="M 663.75 298.69 A 33.19 33.19 0 0 0 696.94 265.5 L 663.75 265.5" fill="#b5dce8"/><rect x="696.94" y="265.5" width="33.19" height="33.19" fill="#f8dcd6"/><path d="M 696.94 265.5 A 33.19 33.19 0 0 0 730.1300000000001 298.69 L 730.1300000000001 265.5" fill="#fbe7e3"/><rect x="663.75" y="298.69" width="33.19" height="33.19" fill="#f2b9af"/><path d="M 663.75 298.69 A 33.19 33.19 0 0 1 696.94 331.88 L 663.75 331.88" fill="#fbfdfe"/><rect x="696.94" y="298.69" width="33.19" height="33.19" fill="#f8dbd6"/><path d="M 696.94 331.88 A 33.19 33.19 0 0 1  730.1300000000001 298.69 L 730.1300000000001 331.88" fill="#cbe6ef"/><rect x="730.13" y="265.5" width="66.38" height="66.38" fill="#f9ddd8"/><path d="M 730.13 265.5 A 66.38 66.38 0 0 1 796.51 331.88 L 730.13 331.88" fill="#fbe8e4"/><rect x="796.5" y="265.5" width="66.38" height="66.38" fill="#f5c9c1"/><polygon points="862.88,265.5 862.88,331.88 796.5,331.88" fill="#f2b8ae"/><rect x="862.88" y="265.5" width="66.38" height="66.38" fill="#f9fcfd"/><rect x="862.88" y="265.5" width="66.38" height="66.38" fill="#eff7fa"/><rect x="929.25" y="265.5" width="66.38" height="66.38" fill="#f7d4ce"/><polygon points="929.25,265.5 995.63,265.5 929.25,331.88" fill="#f9fcfd"/><rect x="0" y="331.88" width="66.38" height="66.38" fill="#f8d7d2"/><rect x="0" y="331.88" width="66.38" height="66.38" fill="#fcfefe"/><rect x="66.38" y="331.88" width="66.38" height="66.38" fill="#f8d8d2"/><path d="M 66.38 398.26 A 66.38 66.38 0 0 0 132.76 331.88 L 66.38 331.88" fill="#f0afa3"/><rect x="132.75" y="331.875" width="66.375" height="66.375" fill="#ffffff"/><rect x="132.75" y="331.88" width="33.19" height="33.19" fill="#b1dae7"/><path d="M 132.75 365.07 A 33.19 33.19 0 0 1  165.94 331.88 L 165.94 365.07" fill="#f7d6d0"/><rect x="165.94" y="331.88" width="33.19" height="33.19" fill="#c3e2ed"/><path d="M 165.94 331.88 A 33.19 33.19 0 0 1 199.13 365.07 L 165.94 365.07" fill="#fffdfd"/><rect x="132.75" y="365.06" width="33.19" height="33.19" fill="#f8d8d2"/><path d="M 132.75 365.06 A 33.19 33.19 0 0 0 165.94 398.25 L 165.94 365.06" fill="#e2f1f6"/><rect x="165.94" y="365.06" width="33.19" height="33.19" fill="#afd9e7"/><path d="M 165.94 398.25 A 33.19 33.19 0 0 0 199.13 365.06 L 165.94 365.06" fill="#f5fafc"/><rect x="199.125" y="331.875" width="66.375" height="66.375" fill="#ffffff"/><rect x="199.13" y="331.88" width="33.19" height="33.19" fill="#fefeff"/><path d="M 199.13 365.07 A 33.19 33.19 0 0 0 232.32 331.88 L 199.13 331.88" fill="#f5c9c1"/><rect x="232.31" y="331.88" width="33.19" height="33.19" fill="#b6dce9"/><path d="M 232.31 331.88 A 33.19 33.19 0 0 0 265.5 365.07 L 265.5 331.88" fill="#fbebe8"/><rect x="199.13" y="365.06" width="33.19" height="33.19" fill="#eff8fa"/><path d="M 199.13 365.06 A 33.19 33.19 0 0 1 232.32 398.25 L 199.13 398.25" fill="#f9e0db"/><rect x="232.31" y="365.06" width="33.19" height="33.19" fill="#b7dde9"/><path d="M 232.31 398.25 A 33.19 33.19 0 0 1  265.5 365.06 L 265.5 398.25" fill="#e6f3f7"/><rect x="265.5" y="331.875" width="66.375" height="66.375" fill="#ffffff"/><rect x="265.5" y="331.88" width="33.19" height="33.19" fill="#f8d7d1"/><polygon points="298.69,331.88 298.69,365.07 265.5,365.07" fill="#f6cfc8"/><rect x="298.69" y="331.88" width="33.19" height="33.19" fill="#c6e4ee"/><polygon points="298.69,331.88 331.88,331.88 298.69,365.07" fill="#f3c0b7"/><rect x="265.5" y="365.06" width="33.19" height="33.19" fill="#b1dae7"/><polygon points="265.5,365.06 298.69,365.06 298.69,398.25" fill="#c7e4ee"/><rect x="298.69" y="365.06" width="33.19" height="33.19" fill="#e4f2f7"/><polygon points="298.69,365.06 331.88,398.25 298.69,398.25" fill="#dff0f5"/><rect x="331.88" y="331.88" width="66.38" height="66.38" fill="#b6dce9"/><path d="M 331.88 331.88 A 66.38 66.38 0 0 1 398.26 398.26 L 331.88 398.26" fill="#e6f3f7"/><rect x="398.25" y="331.88" width="66.38" height="66.38" fill="#fbeae7"/><rect x="398.25" y="331.88" width="66.38" height="66.38" fill="#fefbfb"/><rect x="464.625" y="331.875" width="66.375" height="66.375" fill="#ffffff"/><rect x="464.63" y="331.88" width="33.19" height="33.19" fill="#fdf2f0"/><path d="M 464.63 331.88 A 33.19 33.19 0 0 0 497.82 365.07 L 497.82 331.88" fill="#b3dbe8"/><rect x="497.81" y="331.88" width="33.19" height="33.19" fill="#c4e3ed"/><path d="M 497.81 365.07 A 33.19 33.19 0 0 0 531 331.88 L 497.81 331.88" fill="#f9ddd8"/><rect x="464.63" y="365.06" width="33.19" height="33.19" fill="#b8dde9"/><path d="M 464.63 398.25 A 33.19 33.19 0 0 1  497.82 365.06 L 497.82 398.25" fill="#f8d9d4"/><rect x="497.81" y="365.06" width="33.19" height="33.19" fill="#feffff"/><path d="M 497.81 365.06 A 33.19 33.19 0 0 1 531 398.25 L 497.81 398.25" fill="#f7d5cf"/><rect x="531" y="331.88" width="66.38" height="66.38" fill="#f5c9c1"/><rect x="531" y="331.88" width="66.38" height="66.38" fill="#d1e9f1"/><rect x="597.375" y="331.875" width="66.375" height="66.375" fill="#ffffff"/><rect x="597.38" y="331.88" width="33.19" height="33.19" fill="#fefbfa"/><polygon points="630.5699999999999,331.88 630.5699999999999,365.07 597.38,365.07" fill="#cde7f0"/><rect x="630.56" y="331.88" width="33.19" height="33.19" fill="#f1b5aa"/><polygon points="630.56,331.88 663.75,365.07 630.56,365.07" fill="#b7dde9"/><rect x="597.38" y="365.06" width="33.19" height="33.19" fill="#cbe6ef"/><polygon points="597.38,365.06 630.5699999999999,365.06 630.5699999999999,398.25" fill="#deeff5"/><rect x="630.56" y="365.06" width="33.19" height="33.19" fill="#f5c8bf"/><polygon points="630.56,365.06 663.75,365.06 630.56,398.25" fill="#f0b0a4"/><rect x="663.75" y="331.88" width="66.38" height="66.38" fill="#fbeae7"/><path d="M 663.75 398.26 A 66.38 66.38 0 0 0 730.13 331.88 L 663.75 331.88" fill="#fae4e0"/><rect x="730.125" y="331.875" width="66.375" height="66.375" fill="#ffffff"/><rect x="730.13" y="331.88" width="33.19" height="33.19" fill="#fbfdfe"/><polygon points="763.3199999999999,331.88 763.3199999999999,365.07 730.13,365.07" fill="#cae6ef"/><rect x="763.31" y="331.88" width="33.19" height="33.19" fill="#f2bbb1"/><polygon points="763.31,331.88 796.5,365.07 763.31,365.07" fill="#f6d0c9"/><rect x="730.13" y="365.06" width="33.19" height="33.19" fill="#f6cfc8"/><polygon points="730.13,365.06 763.3199999999999,365.06 730.13,398.25" fill="#ebf5f9"/><rect x="763.31" y="365.06" width="33.19" height="33.19" fill="#cbe6ef"/><polygon points="763.31,365.06 796.5,365.06 796.5,398.25" fill="#e8f4f8"/><rect x="796.5" y="331.88" width="66.38" height="66.38" fill="#fcefed"/><path d="M 796.5 398.26 A 66.38 66.38 0 0 1  862.88 331.88 L 862.88 398.26" fill="#cbe6ef"/><rect x="862.875" y="331.875" width="66.375" height="66.375" fill="#ffffff"/><rect x="862.88" y="331.88" width="33.19" height="33.19" fill="#f6cfc8"/><path d="M 862.88 365.07 A 33.19 33.19 0 0 1 896.0699999999999 331.88 L 896.0699999999999 340.1775 A 24.8925 24.8925 0 0 0 871.1775 365.07" fill="#c0e1ec"/><rect x="896.06" y="331.88" width="33.19" height="33.19" fill="#e8f4f8"/><path d="M 896.06 331.88 A 33.19 33.19 0 0 1 929.25 365.07 L 920.9525 365.07 A 24.8925 24.8925 0 0 0 896.06 340.1775" fill="#f4c3bb"/><rect x="862.88" y="365.06" width="33.19" height="33.19" fill="#e1f1f6"/><path d="M 862.88 365.06 A 33.19 33.19 0 0 0 896.0699999999999 398.25 L 896.0699999999999 389.9525 A 24.8925 24.8925 0 0 1 871.1775 365.06" fill="#fafdfd"/><rect x="896.06" y="365.06" width="33.19" height="33.19" fill="#ffffff"/><path d="M 896.06 398.25 A 33.19 33.19 0 0 0 929.25 365.06 L 920.9525 365.06 A 24.8925 24.8925 0 0 1 896.06 389.9525" fill="#fef9f8"/><rect x="929.25" y="331.875" width="66.375" height="66.375" fill="#ffffff"/><rect x="929.25" y="331.88" width="33.19" height="33.19" fill="#f9e1dd"/><polygon points="962.44,331.88 962.44,365.07 929.25,365.07" fill="#b7dde9"/><rect x="962.44" y="331.88" width="33.19" height="33.19" fill="#fdf2f0"/><polygon points="962.44,331.88 995.6300000000001,365.07 962.44,365.07" fill="#c8e5ee"/><rect x="929.25" y="365.06" width="33.19" height="33.19" fill="#fbfdfe"/><polygon points="929.25,365.06 962.44,365.06 929.25,398.25" fill="#c5e3ed"/><rect x="962.44" y="365.06" width="33.19" height="33.19" fill="#d1e9f1"/><polygon points="962.44,365.06 995.6300000000001,365.06 995.6300000000001,398.25" fill="#c5e4ed"/><rect x="0" y="398.25" width="66.38" height="66.38" fill="#f1b1a6"/><rect x="0" y="398.25" width="66.38" height="66.38" fill="#f4fafc"/><rect x="66.375" y="398.25" width="66.375" height="66.375" fill="#ffffff"/><rect x="66.38" y="398.25" width="33.19" height="33.19" fill="#f1b4a9"/><path d="M 66.38 398.25 A 33.19 33.19 0 0 0 99.57 431.44 L 99.57 398.25" fill="#edf7fa"/><rect x="99.56" y="398.25" width="33.19" height="33.19" fill="#cde7f0"/><path d="M 99.56 431.44 A 33.19 33.19 0 0 0 132.75 398.25 L 99.56 398.25" fill="#fdf6f4"/><rect x="66.38" y="431.44" width="33.19" height="33.19" fill="#f3f9fb"/><path d="M 66.38 464.63 A 33.19 33.19 0 0 1  99.57 431.44 L 99.57 464.63" fill="#f1b2a6"/><rect x="99.56" y="431.44" width="33.19" height="33.19" fill="#afd9e7"/><path d="M 99.56 431.44 A 33.19 33.19 0 0 1 132.75 464.63 L 99.56 464.63" fill="#fdf6f5"/><rect x="132.75" y="398.25" width="66.38" height="66.38" fill="#cfe8f0"/><polygon points="132.75,398.25 199.13,464.63 132.75,464.63" fill="#fae3df"/><rect x="199.125" y="398.25" width="66.375" height="66.375" fill="#ffffff"/><rect x="199.13" y="398.25" width="33.19" height="33.19" fill="#fcefed"/><polygon points="232.32,398.25 232.32,431.44 199.13,431.44" fill="#f9ddd8"/><rect x="232.31" y="398.25" width="33.19" height="33.19" fill="#f6fbfc"/><polygon points="232.31,398.25 265.5,398.25 232.31,431.44" fill="#b1dae7"/><rect x="199.13" y="431.44" width="33.19" height="33.19" fill="#e6f3f7"/><polygon points="199.13,431.44 232.32,431.44 232.32,464.63" fill="#fef9f8"/><rect x="232.31" y="431.44" width="33.19" height="33.19" fill="#f0aea2"/><polygon points="232.31,431.44 265.5,464.63 232.31,464.63" fill="#f1b5aa"/><rect x="265.5" y="398.25" width="66.375" height="66.375" fill="#ffffff"/><rect x="265.5" y="398.25" width="33.19" height="33.19" fill="#f1b4a9"/><path d="M 265.5 431.44 A 33.19 33.19 0 0 0 298.69 398.25 L 265.5 398.25" fill="#d2eaf1"/><rect x="298.69" y="398.25" width="33.19" height="33.19" fill="#fae5e1"/><path d="M 298.69 398.25 A 33.19 33.19 0 0 0 331.88 431.44 L 331.88 398.25" fill="#f6d0c8"/><rect x="265.5" y="431.44" width="33.19" height="33.19" fill="#d8ecf3"/><path d="M 265.5 431.44 A 33.19 33.19 0 0 1 298.69 464.63 L 265.5 464.63" fill="#f7d4ce"/><rect x="298.69" y="431.44" width="33.19" height="33.19" fill="#f3bcb2"/><path d="M 298.69 464.63 A 33.19 33.19 0 0 1  331.88 431.44 L 331.88 464.63" fill="#fae6e2"/><rect x="331.875" y="398.25" width="66.375" height="66.375" fill="#ffffff"/><rect x="331.88" y="398.25" width="33.19" height="33.19" fill="#daeef4"/><path d="M 331.88 431.44 A 33.19 33.19 0 0 1  365.07 398.25 L 365.07 431.44" fill="#e0f0f6"/><rect x="365.06" y="398.25" width="33.19" height="33.19" fill="#fef7f6"/><path d="M 365.06 398.25 A 33.19 33.19 0 0 1 398.25 431.44 L 365.06 431.44" fill="#f7d2cb"/><rect x="331.88" y="431.44" width="33.19" height="33.19" fill="#f2f9fb"/><path d="M 331.88 431.44 A 33.19 33.19 0 0 0 365.07 464.63 L 365.07 431.44" fill="#b3dbe8"/><rect x="365.06" y="431.44" width="33.19" height="33.19" fill="#bcdfeb"/><path d="M 365.06 464.63 A 33.19 33.19 0 0 0 398.25 431.44 L 365.06 431.44" fill="#f5cbc3"/><rect x="398.25" y="398.25" width="66.38" height="66.38" fill="#fdf4f2"/><polygon points="398.25,398.25 464.63,398.25 398.25,464.63" fill="#c3e3ed"/><rect x="464.63" y="398.25" width="66.38" height="66.38" fill="#f1b3a8"/><polygon points="464.63,398.25 531.01,464.63 464.63,464.63" fill="#fdf4f2"/><rect x="531" y="398.25" width="66.375" height="66.375" fill="#ffffff"/><rect x="531" y="398.25" width="33.19" height="33.19" fill="#aed8e6"/><path d="M 531 398.25 A 33.19 33.19 0 0 1 564.19 431.44 L 531 431.44" fill="#f7d6cf"/><rect x="564.19" y="398.25" width="33.19" height="33.19" fill="#f4c1b8"/><path d="M 564.19 431.44 A 33.19 33.19 0 0 1  597.3800000000001 398.25 L 597.3800000000001 431.44" fill="#f9ddd8"/><rect x="531" y="431.44" width="33.19" height="33.19" fill="#c7e4ee"/><path d="M 531 464.63 A 33.19 33.19 0 0 0 564.19 431.44 L 531 431.44" fill="#f7d5ce"/><rect x="564.19" y="431.44" width="33.19" height="33.19" fill="#f5fafc"/><path d="M 564.19 431.44 A 33.19 33.19 0 0 0 597.3800000000001 464.63 L 597.3800000000001 431.44" fill="#f5c8c0"/><rect x="597.375" y="398.25" width="66.375" height="66.375" fill="#ffffff"/><rect x="597.38" y="398.25" width="33.19" height="33.19" fill="#f6cfc8"/><path d="M 597.38 431.44 A 33.19 33.19 0 0 0 630.5699999999999 398.25 L 597.38 398.25" fill="#c6e4ee"/><rect x="630.56" y="398.25" width="33.19" height="33.19" fill="#f0afa3"/><path d="M 630.56 398.25 A 33.19 33.19 0 0 0 663.75 431.44 L 663.75 398.25" fill="#deeff5"/><rect x="597.38" y="431.44" width="33.19" height="33.19" fill="#b7dde9"/><path d="M 597.38 431.44 A 33.19 33.19 0 0 1 630.5699999999999 464.63 L 597.38 464.63" fill="#f2f9fb"/><rect x="630.56" y="431.44" width="33.19" height="33.19" fill="#c3e3ed"/><path d="M 630.56 464.63 A 33.19 33.19 0 0 1  663.75 431.44 L 663.75 464.63" fill="#fdf4f2"/><rect x="663.75" y="398.25" width="66.375" height="66.375" fill="#ffffff"/><rect x="663.75" y="398.25" width="33.19" height="33.19" fill="#f3bcb2"/><polygon points="696.94,398.25 696.94,431.44 663.75,431.44" fill="#bfe0eb"/><rect x="696.94" y="398.25" width="33.19" height="33.19" fill="#e3f2f6"/><polygon points="696.94,398.25 730.1300000000001,431.44 696.94,431.44" fill="#f8d8d3"/><rect x="663.75" y="431.44" width="33.19" height="33.19" fill="#f8d9d4"/><polygon points="663.75,431.44 696.94,431.44 696.94,464.63" fill="#fefaf9"/><rect x="696.94" y="431.44" width="33.19" height="33.19" fill="#fffefe"/><polygon points="696.94,431.44 730.1300000000001,431.44 696.94,464.63" fill="#f8dbd6"/><rect x="730.125" y="398.25" width="66.375" height="66.375" fill="#ffffff"/><rect x="730.13" y="398.25" width="33.19" height="33.19" fill="#ddeff5"/><polygon points="763.3199999999999,398.25 763.3199999999999,431.44 730.13,431.44" fill="#cbe6ef"/><rect x="763.31" y="398.25" width="33.19" height="33.19" fill="#f4fafc"/><polygon points="763.31,398.25 796.5,431.44 763.31,431.44" fill="#f9e1dd"/><rect x="730.13" y="431.44" width="33.19" height="33.19" fill="#f8fcfd"/><polygon points="730.13,431.44 763.3199999999999,431.44 730.13,464.63" fill="#f0aea2"/><rect x="763.31" y="431.44" width="33.19" height="33.19" fill="#bfe1ec"/><polygon points="763.31,431.44 796.5,431.44 796.5,464.63" fill="#aed9e6"/><rect x="796.5" y="398.25" width="66.375" height="66.375" fill="#ffffff"/><rect x="796.5" y="398.25" width="33.19" height="33.19" fill="#fdf4f2"/><path d="M 796.5 431.44 A 33.19 33.19 0 0 1 829.69 398.25 L 829.69 406.5475 A 24.8925 24.8925 0 0 0 804.7975 431.44" fill="#c9e5ee"/><rect x="829.69" y="398.25" width="33.19" height="33.19" fill="#fdfefe"/><path d="M 829.69 398.25 A 33.19 33.19 0 0 1 862.8800000000001 431.44 L 854.5825000000001 431.44 A 24.8925 24.8925 0 0 0 829.69 406.5475" fill="#deeff5"/><rect x="796.5" y="431.44" width="33.19" height="33.19" fill="#f9dfda"/><path d="M 796.5 431.44 A 33.19 33.19 0 0 0 829.69 464.63 L 829.69 456.3325 A 24.8925 24.8925 0 0 1 804.7975 431.44" fill="#afd9e7"/><rect x="829.69" y="431.44" width="33.19" height="33.19" fill="#f5cac2"/><path d="M 829.69 464.63 A 33.19 33.19 0 0 0 862.8800000000001 431.44 L 854.5825000000001 431.44 A 24.8925 24.8925 0 0 1 829.69 456.3325" fill="#e7f4f8"/><rect x="862.875" y="398.25" width="66.375" height="66.375" fill="#ffffff"/><rect x="862.88" y="398.25" width="33.19" height="33.19" fill="#e5f3f7"/><path d="M 862.88 398.25 A 33.19 33.19 0 0 0 896.0699999999999 431.44 L 896.0699999999999 398.25" fill="#fbece9"/><rect x="896.06" y="398.25" width="33.19" height="33.19" fill="#f0f8fa"/><path d="M 896.06 431.44 A 33.19 33.19 0 0 0 929.25 398.25 L 896.06 398.25" fill="#fae2de"/><rect x="862.88" y="431.44" width="33.19" height="33.19" fill="#fcfefe"/><path d="M 862.88 464.63 A 33.19 33.19 0 0 1  896.0699999999999 431.44 L 896.0699999999999 464.63" fill="#fae6e2"/><rect x="896.06" y="431.44" width="33.19" height="33.19" fill="#d9edf3"/><path d="M 896.06 431.44 A 33.19 33.19 0 0 1 929.25 464.63 L 896.06 464.63" fill="#f1b4a9"/><rect x="929.25" y="398.25" width="66.38" height="66.38" fill="#d6ebf2"/><path d="M 929.25 464.63 A 66.38 66.38 0 0 1  995.63 398.25 L 929.25 464.63 A 66.38 66.38 0 0 0 995.63 398.25" fill="#fceeeb"/><rect x="0" y="464.625" width="66.375" height="66.375" fill="#ffffff"/><rect x="0" y="464.63" width="33.19" height="33.19" fill="#badeea"/><path d="M 0 464.63 A 33.19 33.19 0 0 1 33.19 497.82 L 0 497.82" fill="#aed8e6"/><rect x="33.19" y="464.63" width="33.19" height="33.19" fill="#f0afa3"/><path d="M 33.19 497.82 A 33.19 33.19 0 0 1  66.38 464.63 L 66.38 497.82" fill="#fdf4f2"/><rect x="0" y="497.81" width="33.19" height="33.19" fill="#f9ded9"/><path d="M 0 531 A 33.19 33.19 0 0 0 33.19 497.81 L 0 497.81" fill="#f1b2a7"/><rect x="33.19" y="497.81" width="33.19" height="33.19" fill="#f6fbfc"/><path d="M 33.19 497.81 A 33.19 33.19 0 0 0 66.38 531 L 66.38 497.81" fill="#fae6e3"/><rect x="66.375" y="464.625" width="66.375" height="66.375" fill="#ffffff"/><rect x="66.38" y="464.63" width="33.19" height="33.19" fill="#ffffff"/><polygon points="99.57,464.63 99.57,497.82 66.38,497.82" fill="#b6dce9"/><rect x="99.56" y="464.63" width="33.19" height="33.19" fill="#fef7f6"/><polygon points="99.56,464.63 132.75,464.63 99.56,497.82" fill="#e1f1f6"/><rect x="66.38" y="497.81" width="33.19" height="33.19" fill="#dbeef4"/><polygon points="66.38,497.81 99.57,497.81 99.57,531" fill="#f8dcd6"/><rect x="99.56" y="497.81" width="33.19" height="33.19" fill="#e9f4f8"/><polygon points="99.56,497.81 132.75,531 99.56,531" fill="#fdf2f0"/><rect x="132.75" y="464.63" width="66.38" height="66.38" fill="#f0b1a5"/><rect x="132.75" y="464.63" width="66.38" height="66.38" fill="#fefeff"/><rect x="199.13" y="464.63" width="66.38" height="66.38" fill="#c8e5ee"/><path d="M 199.13 531.01 A 66.38 66.38 0 0 0 265.51 464.63 L 199.13 464.63" fill="#fefbfa"/><rect x="265.5" y="464.63" width="66.38" height="66.38" fill="#d1e9f1"/><path d="M 265.5 464.63 A 66.38 66.38 0 0 1  331.88 531.01 L 265.5 464.63 A 66.38 66.38 0 0 0 331.88 531.01" fill="#daedf4"/><rect x="331.88" y="464.63" width="66.38" height="66.38" fill="#e3f1f6"/><polygon points="331.88,464.63 398.26,531.01 331.88,531.01" fill="#fbeae7"/><rect x="398.25" y="464.63" width="66.38" height="66.38" fill="#badeea"/><path d="M 398.25 464.63 A 66.38 66.38 0 0 1 464.63 531.01 L 398.25 531.01" fill="#deeff5"/><rect x="464.63" y="464.63" width="66.38" height="66.38" fill="#d7ecf3"/><path d="M 464.63 531.01 A 66.38 66.38 0 0 0 531.01 464.63 L 464.63 464.63" fill="#fbeae7"/><rect x="531" y="464.63" width="66.38" height="66.38" fill="#fdf4f2"/><polygon points="531,464.63 597.38,464.63 531,531.01" fill="#f3bfb6"/><rect x="597.38" y="464.63" width="66.38" height="66.38" fill="#fefbfa"/><path d="M 597.38 531.01 A 66.38 66.38 0 0 1  663.76 464.63 L 597.38 531.01 A 66.38 66.38 0 0 0 663.76 464.63" fill="#c7e5ee"/><rect x="663.75" y="464.63" width="66.38" height="66.38" fill="#f7d4cd"/><rect x="663.75" y="464.63" width="66.38" height="66.38" fill="#fdf6f4"/><rect x="730.125" y="464.625" width="66.375" height="66.375" fill="#ffffff"/><rect x="730.13" y="464.63" width="33.19" height="33.19" fill="#f7d6d0"/><polygon points="763.3199999999999,464.63 763.3199999999999,497.82 730.13,497.82" fill="#bfe1eb"/><rect x="763.31" y="464.63" width="33.19" height="33.19" fill="#d1e9f1"/><polygon points="763.31,464.63 796.5,497.82 763.31,497.82" fill="#b7dde9"/><rect x="730.13" y="497.81" width="33.19" height="33.19" fill="#aed8e6"/><polygon points="730.13,497.81 763.3199999999999,497.81 730.13,531" fill="#d2e9f1"/><rect x="763.31" y="497.81" width="33.19" height="33.19" fill="#cae6ef"/><polygon points="763.31,497.81 796.5,497.81 796.5,531" fill="#e3f2f6"/><rect x="796.5" y="464.63" width="66.38" height="66.38" fill="#f1b3a7"/><polygon points="796.5,464.63 862.88,464.63 862.88,531.01" fill="#f7fbfc"/><rect x="862.88" y="464.63" width="66.38" height="66.38" fill="#b3dbe8"/><rect x="862.88" y="464.63" width="66.38" height="66.38" fill="#eef7fa"/><rect x="929.25" y="464.63" width="66.38" height="66.38" fill="#c7e4ee"/><polygon points="929.25,464.63 995.63,464.63 995.63,531.01" fill="#f1b5aa"/></g></svg>