<?xml version="1.0" standalone="no"?><svg xmlns:xlink="http://www.w3.org/1999/xlink" xmlns="http://www.w3.org/2000/svg" viewBox="0 0 1000 533.3333333333334" preserveAspectRatio="xMaxYMax slice"><g transform="scale(1.0043942247332078)"><rect x="0" y="0" width="995.625" height="531" fill="none"/><rect x="265.5" y="66.375" width="66.375" height="66.375" fill="none"/><rect x="531" y="66.375" width="66.375" height="66.375" fill="none"/><rect x="531" y="66.38" width="33.19" height="33.19" fill="#afd9e7"/><g transform="translate(531,66.38) scale(1.6595) rotate(0)"><path d="M5 0H10L5 5L0 10V5L5 0Z" fill="#ddeff4"/><path d="M20 15V20H15L20 15Z" fill="#ddeff4"/><path d="M20 5V10L15 15L10 20H5L20 5Z" fill="#ddeff4"/><path d="M15 0H20L5 15.0002L0 20.0002V15.0002L15 0Z" fill="#ddeff4"/></g><rect x="663.75" y="66.375" width="66.375" height="66.375" fill="none"/><rect x="696.94" y="66.38" width="33.19" height="33.19" fill="#fcf1ef"/><path d="M 696.94 99.57 A 33.19 33.19 0 0 1  730.1300000000001 66.38 L 696.94 99.57 A 33.19 33.19 0 0 0 730.1300000000001 66.38" fill="#bde0eb"/><rect x="862.875" y="66.375" width="66.375" height="66.375" fill="none"/><rect x="265.5" y="132.75" width="66.38" height="66.38" fill="#f0afa3"/><g transform="translate(265.5,132.75) scale(3.319) rotate(0)"><path d="M10 0L20 10L10 20L0 10L10 0Z" fill="#fcfdfe"/></g><rect x="331.88" y="132.75" width="66.38" height="66.38" fill="#f8d8d2"/><g transform="translate(331.88,132.75) scale(3.319) rotate(0)"><path d="M10 0L20 10L10 20L0 10L10 0Z" fill="#fae3de"/></g><rect x="398.25" y="132.75" width="66.38" height="66.38" fill="#f2b8ad"/><path d="M 398.25 132.75 A 66.38 66.38 0 0 1 464.63 199.13 L 398.25 199.13" fill="#f5c9c1"/><rect x="132.75" y="199.13" width="66.38" height="66.38" fill="#fffdfd"/><g transform="translate(132.75,199.13) scale(3.319) rotate(0)"><path d="M10 0L20 10L10 20L0 10L10 0Z" fill="#edf6fa"/></g><rect x="199.13" y="199.13" width="66.38" height="66.38" fill="#fefafa"/><g transform="translate(199.13,199.13) scale(3.319) rotate(0)"><path d="M10 0L20 10L10 20L0 10L10 0Z" fill="#eaf5f9"/></g><rect x="265.5" y="199.13" width="66.38" height="66.38" fill="#f2f9fb"/><g transform="translate(265.5,199.13) scale(3.319) rotate(0)"><path d="M10 0L20 10L10 20L0 10L10 0Z" fill="#c2e2ec"/></g><rect x="331.88" y="199.13" width="66.38" height="66.38" fill="#edf7fa"/><path d="M 331.88 199.13 A 66.38 66.38 0 0 1  398.26 265.51 L 331.88 199.13 A 66.38 66.38 0 0 0 398.26 265.51" fill="#c1e2ec"/><rect x="398.25" y="199.125" width="66.375" height="66.375" fill="none"/><rect x="431.44" y="199.13" width="33.19" height="33.19" fill="#fcefed"/><g transform="translate(431.44,199.13) scale(1.6595) rotate(0)"><path d="M10 0L20 10L10 20L0 10L10 0Z" fill="#c2e2ec"/></g><rect x="398.25" y="232.31" width="33.19" height="33.19" fill="#fbe7e3"/><path d="M 398.25 265.5 A 33.19 33.19 0 0 1  431.44 232.31 L 398.25 265.5 A 33.19 33.19 0 0 0 431.44 232.31" fill="#f2f9fb"/><rect x="431.44" y="232.31" width="33.19" height="33.19" fill="#f2f9fb"/><g transform="translate(431.44,232.31) scale(1.6595) rotate(0)"><path d="M10 0L20 10L10 20L0 10L10 0Z" fill="#fcfefe"/></g><rect x="464.625" y="199.125" width="66.375" height="66.375" fill="none"/><rect x="464.63" y="199.13" width="33.19" height="33.19" fill="#b7dde9"/><path d="M 464.63 232.32 A 33.19 33.19 0 0 1  497.82 199.13 L 464.63 232.32 A 33.19 33.19 0 0 0 497.82 199.13" fill="#dff0f5"/><rect x="497.81" y="199.13" width="33.19" height="33.19" fill="#f6cfc7"/><g transform="translate(497.81,199.13) scale(1.6595) rotate(0)"><path d="M10 0L20 10L10 20L0 10L10 0Z" fill="#f4c4bb"/></g><rect x="464.63" y="232.31" width="33.19" height="33.19" fill="#f2b9af"/><g transform="translate(464.63,232.31) scale(1.6595) rotate(0)"><path d="M5 0H10L5 5L0 10V5L5 0Z" fill="#f9dfda"/><path d="M20 15V20H15L20 15Z" fill="#f9dfda"/><path d="M20 5V10L15 15L10 20H5L20 5Z" fill="#f9dfda"/><path d="M15 0H20L5 15.0002L0 20.0002V15.0002L15 0Z" fill="#f9dfda"/></g><rect x="497.81" y="232.31" width="33.19" height="33.19" fill="#cee8f0"/><path d="M 497.81 265.5 A 33.19 33.19 0 0 1  531 232.31 L 497.81 265.5 A 33.19 33.19 0 0 0 531 232.31" fill="#fdf6f5"/><rect x="531" y="199.13" width="66.38" height="66.38" fill="#add8e6"/><g transform="translate(531,199.13) scale(3.319) rotate(0)"><path d="M5 0H10L5 5L0 10V5L5 0Z" fill="#add8e6"/><path d="M20 15V20H15L20 15Z" fill="#add8e6"/><path d="M20 5V10L15 15L10 20H5L20 5Z" fill="#add8e6"/><path d="M15 0H20L5 15.0002L0 20.0002V15.0002L15 0Z" fill="#add8e6"/></g><rect x="862.88" y="199.13" width="66.38" height="66.38" fill="#f5c7be"/><path d="M 862.88 199.13 A 66.38 66.38 0 0 1  929.26 265.51 L 862.88 199.13 A 66.38 66.38 0 0 0 929.26 265.51" fill="#d8edf3"/><rect x="199.125" y="265.5" width="66.375" height="66.375" fill="none"/><rect x="199.13" y="265.5" width="33.19" height="33.19" fill="#fae4e0"/><path d="M 199.13 298.69 A 33.19 33.19 0 0 1  232.32 265.5 L 199.13 298.69 A 33.19 33.19 0 0 0 232.32 265.5" fill="#f3bcb2"/><rect x="232.31" y="298.69" width="33.19" height="33.19" fill="#fae3df"/><path d="M 232.31 331.88 A 33.19 33.19 0 0 1  265.5 298.69 L 232.31 331.88 A 33.19 33.19 0 0 0 265.5 298.69" fill="#ecf6f9"/><rect x="265.5" y="265.5" width="66.38" height="66.38" fill="#f5cac2"/><path d="M 265.5 331.88 A 66.38 66.38 0 0 1  331.88 265.5 L 331.88 331.88" fill="#f5c8c0"/><rect x="331.88" y="265.5" width="66.38" height="66.38" fill="#b7dde9"/><path d="M 331.88 331.88 A 66.38 66.38 0 0 1  398.26 265.5 L 331.88 331.88 A 66.38 66.38 0 0 0 398.26 265.5" fill="#f5cbc3"/><rect x="398.25" y="265.5" width="66.38" height="66.38" fill="#bde0eb"/><path d="M 398.25 331.88 A 66.38 66.38 0 0 1  464.63 265.5 L 464.63 331.88" fill="#d5ebf2"/><rect x="464.63" y="265.5" width="66.38" height="66.38" fill="#f7d6d0"/><path d="M 464.63 265.5 A 66.38 66.38 0 0 0 531.01 331.88 L 531.01 265.5" fill="#c3e3ed"/><rect x="531" y="265.5" width="66.375" height="66.375" fill="none"/><rect x="531" y="265.5" width="33.19" height="33.19" fill="#f6fbfc"/><path d="M 531 298.69 A 33.19 33.19 0 0 1  564.19 265.5 L 531 298.69 A 33.19 33.19 0 0 0 564.19 265.5" fill="#c5e3ed"/><rect x="564.19" y="265.5" width="33.19" height="33.19" fill="#fdf5f3"/><path d="M 564.19 298.69 A 33.19 33.19 0 0 0 597.3800000000001 265.5 L 564.19 265.5" fill="#c4e3ed"/><rect x="531" y="298.69" width="33.19" height="33.19" fill="#fae5e2"/><path d="M 531 298.69 A 33.19 33.19 0 0 1  564.19 331.88 L 531 298.69 A 33.19 33.19 0 0 0 564.19 331.88" fill="#fcf0ee"/><rect x="564.19" y="298.69" width="33.19" height="33.19" fill="#f9dcd7"/><path d="M 564.19 331.88 A 33.19 33.19 0 0 1  597.3800000000001 298.69 L 564.19 331.88 A 33.19 33.19 0 0 0 597.3800000000001 298.69" fill="#bfe1ec"/><rect x="597.375" y="265.5" width="66.375" height="66.375" fill="none"/><rect x="597.38" y="265.5" width="33.19" height="33.19" fill="#f1f8fb"/><path d="M 597.38 265.5 A 33.19 33.19 0 0 1 630.5699999999999 298.69 L 597.38 298.69" fill="#b1dae7"/><rect x="630.56" y="265.5" width="33.19" height="33.19" fill="#bee0eb"/><path d="M 630.56 298.69 A 33.19 33.19 0 0 1  663.75 265.5 L 630.56 298.69 A 33.19 33.19 0 0 0 663.75 265.5" fill="#f0b0a4"/><rect x="597.38" y="298.69" width="33.19" height="33.19" fill="#aed9e6"/><path d="M 597.38 331.88 A 33.19 33.19 0 0 1  630.5699999999999 298.69 L 630.5699999999999 331.88" fill="#f2bab0"/><rect x="630.56" y="298.69" width="33.19" height="33.19" fill="#badeea"/><path d="M 630.56 298.69 A 33.19 33.19 0 0 1  663.75 331.88 L 630.56 298.69 A 33.19 33.19 0 0 0 663.75 331.88" fill="#cbe6ef"/><rect x="663.75" y="265.5" width="66.375" height="66.375" fill="none"/><rect x="663.75" y="265.5" width="33.19" height="33.19" fill="#aed8e6"/><path d="M 663.75 298.69 A 33.19 33.19 0 0 1  696.94 265.5 L 663.75 298.69 A 33.19 33.19 0 0 0 696.94 265.5" fill="#f1b6ab"/><rect x="696.94" y="265.5" width="33.19" height="33.19" fill="#d9edf3"/><path d="M 696.94 265.5 A 33.19 33.19 0 0 1  730.1300000000001 298.69 L 696.94 265.5 A 33.19 33.19 0 0 0 730.1300000000001 298.69" fill="#bcdfeb"/><rect x="663.75" y="298.69" width="33.19" height="33.19" fill="#f5fafc"/><g transform="translate(663.75,298.69) scale(1.6595) rotate(0)"><path d="M5 0H10L5 5L0 10V5L5 0Z" fill="#c4e3ed"/><path d="M20 15V20H15L20 15Z" fill="#c4e3ed"/><path d="M20 5V10L15 15L10 20H5L20 5Z" fill="#c4e3ed"/><path d="M15 0H20L5 15.0002L0 20.0002V15.0002L15 0Z" fill="#c4e3ed"/></g><rect x="696.94" y="298.69" width="33.19" height="33.19" fill="#cee8f0"/><path d="M 696.94 331.88 A 33.19 33.19 0 0 1  730.1300000000001 298.69 L 696.94 331.88 A 33.19 33.19 0 0 0 730.1300000000001 298.69" fill="#e8f4f8"/><rect x="730.13" y="265.5" width="66.38" height="66.38" fill="#c6e4ee"/><g transform="translate(730.13,265.5) scale(3.319) rotate(0)"><path d="M10 0L20 10L10 20L0 10L10 0Z" fill="#f3bdb3"/></g><rect x="796.5" y="265.5" width="66.375" height="66.375" fill="none"/><rect x="829.69" y="298.69" width="33.19" height="33.19" fill="#b7dde9"/><path d="M 829.69 331.88 A 33.19 33.19 0 0 0 862.8800000000001 298.69 L 829.69 298.69" fill="#c3e2ed"/><rect x="199.125" y="331.875" width="66.375" height="66.375" fill="none"/><rect x="199.13" y="365.06" width="33.19" height="33.19" fill="#fae4e0"/><path d="M 199.13 365.06 A 33.19 33.19 0 0 1  232.32 398.25 L 199.13 365.06 A 33.19 33.19 0 0 0 232.32 398.25" fill="#fae6e3"/><rect x="265.5" y="331.875" width="66.375" height="66.375" fill="none"/><rect x="265.5" y="331.88" width="33.19" height="33.19" fill="#f9ddd8"/><g transform="translate(265.5,331.88) scale(1.6595) rotate(0)"><path d="M10 0L20 10L10 20L0 10L10 0Z" fill="#f5c7bf"/></g><rect x="265.5" y="365.06" width="33.19" height="33.19" fill="#f6cec6"/><g transform="translate(265.5,365.06) scale(1.6595) rotate(0)"><path d="M5 0H10L5 5L0 10V5L5 0Z" fill="#aed8e6"/><path d="M20 15V20H15L20 15Z" fill="#aed8e6"/><path d="M20 5V10L15 15L10 20H5L20 5Z" fill="#aed8e6"/><path d="M15 0H20L5 15.0002L0 20.0002V15.0002L15 0Z" fill="#aed8e6"/></g><rect x="298.69" y="365.06" width="33.19" height="33.19" fill="#c9e5ef"/><path d="M 298.69 365.06 A 33.19 33.19 0 0 1 331.88 398.25 L 298.69 398.25" fill="#f4c4bc"/><rect x="331.875" y="331.875" width="66.375" height="66.375" fill="none"/><rect x="331.88" y="331.88" width="33.19" height="33.19" fill="#d2eaf1"/><g transform="translate(331.88,331.88) scale(1.6595) rotate(0)"><path d="M5 0H10L5 5L0 10V5L5 0Z" fill="#f4c3ba"/><path d="M20 15V20H15L20 15Z" fill="#f4c3ba"/><path d="M20 5V10L15 15L10 20H5L20 5Z" fill="#f4c3ba"/><path d="M15 0H20L5 15.0002L0 20.0002V15.0002L15 0Z" fill="#f4c3ba"/></g><rect x="365.06" y="331.88" width="33.19" height="33.19" fill="#f5cbc4"/><g transform="translate(365.06,331.88) scale(1.6595) rotate(0)"><path d="M5 0H10L5 5L0 10V5L5 0Z" fill="#f3bfb5"/><path d="M20 15V20H15L20 15Z" fill="#f3bfb5"/><path d="M20 5V10L15 15L10 20H5L20 5Z" fill="#f3bfb5"/><path d="M15 0H20L5 15.0002L0 20.0002V15.0002L15 0Z" fill="#f3bfb5"/></g><rect x="365.06" y="365.06" width="33.19" height="33.19" fill="#f1b3a7"/><path d="M 365.06 398.25 A 33.19 33.19 0 0 1  398.25 365.06 L 365.06 398.25 A 33.19 33.19 0 0 0 398.25 365.06" fill="#f6cdc5"/><rect x="398.25" y="331.875" width="66.375" height="66.375" fill="none"/><rect x="431.44" y="331.88" width="33.19" height="33.19" fill="#aed8e6"/><g transform="translate(431.44,331.88) scale(1.6595) rotate(0)"><path d="M10 0L20 10L10 20L0 10L10 0Z" fill="#ecf6f9"/></g><rect x="398.25" y="365.06" width="33.19" height="33.19" fill="#f9e0dc"/><g transform="translate(398.25,365.06) scale(1.6595) rotate(0)"><path d="M10 0L20 10L10 20L0 10L10 0Z" fill="#f6d1ca"/></g><rect x="464.625" y="331.875" width="66.375" height="66.375" fill="none"/><rect x="464.63" y="331.88" width="33.19" height="33.19" fill="#d7ecf3"/><g transform="translate(464.63,331.88) scale(1.6595) rotate(0)"><path d="M10 0L20 10L10 20L0 10L10 0Z" fill="#d1e9f1"/></g><rect x="497.81" y="331.88" width="33.19" height="33.19" fill="#f5c8c0"/><g transform="translate(497.81,331.88) scale(1.6595) rotate(0)"><path d="M5 0H10L5 5L0 10V5L5 0Z" fill="#f4c6bd"/><path d="M20 15V20H15L20 15Z" fill="#f4c6bd"/><path d="M20 5V10L15 15L10 20H5L20 5Z" fill="#f4c6bd"/><path d="M15 0H20L5 15.0002L0 20.0002V15.0002L15 0Z" fill="#f4c6bd"/></g><rect x="464.63" y="365.06" width="33.19" height="33.19" fill="#f2b9af"/><g transform="translate(464.63,365.06) scale(1.6595) rotate(0)"><path d="M10 0L20 10L10 20L0 10L10 0Z" fill="#e6f3f7"/></g><rect x="497.81" y="365.06" width="33.19" height="33.19" fill="#fffdfd"/><g transform="translate(497.81,365.06) scale(1.6595) rotate(0)"><path d="M10 0L20 10L10 20L0 10L10 0Z" fill="#add8e6"/></g><rect x="531" y="331.875" width="66.375" height="66.375" fill="none"/><rect x="564.19" y="331.88" width="33.19" height="33.19" fill="#f6cdc6"/><g transform="translate(564.19,331.88) scale(1.6595) rotate(0)"><path d="M10 0L20 10L10 20L0 10L10 0Z" fill="#cbe6ef"/></g><rect x="531" y="365.06" width="33.19" height="33.19" fill="#f9e0db"/><g transform="translate(531,365.06) scale(1.6595) rotate(0)"><path d="M10 0L20 10L10 20L0 10L10 0Z" fill="#e0f0f6"/></g><rect x="564.19" y="365.06" width="33.19" height="33.19" fill="#f1b3a8"/><g transform="translate(564.19,365.06) scale(1.6595) rotate(0)"><path d="M10 0L20 10L10 20L0 10L10 0Z" fill="#dff0f5"/></g><rect x="597.375" y="331.875" width="66.375" height="66.375" fill="none"/><rect x="597.38" y="331.88" width="33.19" height="33.19" fill="#bbdeea"/><g transform="translate(597.38,331.88) scale(1.6595) rotate(0)"><path d="M10 0L20 10L10 20L0 10L10 0Z" fill="#bcdfeb"/></g><rect x="630.56" y="331.88" width="33.19" height="33.19" fill="#daeef4"/><path d="M 630.56 331.88 A 33.19 33.19 0 0 0 663.75 365.07 L 663.75 331.88" fill="#f6cdc6"/><rect x="597.38" y="365.06" width="33.19" height="33.19" fill="#bee0eb"/><path d="M 597.38 365.06 A 33.19 33.19 0 0 1 630.5699999999999 398.25 L 597.38 398.25" fill="#f0afa3"/><rect x="630.56" y="365.06" width="33.19" height="33.19" fill="#fbece9"/><path d="M 630.56 398.25 A 33.19 33.19 0 0 1  663.75 365.06 L 630.56 398.25 A 33.19 33.19 0 0 0 663.75 365.06" fill="#deeff5"/><rect x="730.13" y="331.88" width="66.38" height="66.38" fill="#f2baaf"/><g transform="translate(730.13,331.88) scale(3.319) rotate(0)"><path d="M10 0L20 10L10 20L0 10L10 0Z" fill="#f3c0b6"/></g><rect x="796.5" y="331.88" width="66.38" height="66.38" fill="#e1f1f6"/><g transform="translate(796.5,331.88) scale(3.319) rotate(0)"><path d="M10 0L20 10L10 20L0 10L10 0Z" fill="#dff0f5"/></g><rect x="862.88" y="331.88" width="66.38" height="66.38" fill="#fae4e0"/><path d="M 862.88 398.26 A 66.38 66.38 0 0 1  929.26 331.88 L 862.88 398.26 A 66.38 66.38 0 0 0 929.26 331.88" fill="#f1b4a9"/><rect x="265.5" y="398.25" width="66.375" height="66.375" fill="none"/><rect x="298.69" y="431.44" width="33.19" height="33.19" fill="#d6ebf2"/><g transform="translate(298.69,431.44) scale(1.6595) rotate(0)"><path d="M5 0H10L5 5L0 10V5L5 0Z" fill="#f4c5bc"/><path d="M20 15V20H15L20 15Z" fill="#f4c5bc"/><path d="M20 5V10L15 15L10 20H5L20 5Z" fill="#f4c5bc"/><path d="M15 0H20L5 15.0002L0 20.0002V15.0002L15 0Z" fill="#f4c5bc"/></g><rect x="331.875" y="398.25" width="66.375" height="66.375" fill="none"/><rect x="331.88" y="398.25" width="33.19" height="33.19" fill="#ecf6f9"/><path d="M 331.88 398.25 A 33.19 33.19 0 0 1  365.07 431.44 L 331.88 398.25 A 33.19 33.19 0 0 0 365.07 431.44" fill="#f6d0c9"/><rect x="365.06" y="398.25" width="33.19" height="33.19" fill="#e7f4f8"/><g transform="translate(365.06,398.25) scale(1.6595) rotate(0)"><path d="M10 0L20 10L10 20L0 10L10 0Z" fill="#ebf5f9"/></g><rect x="531" y="398.25" width="66.38" height="66.38" fill="#cde7f0"/><g transform="translate(531,398.25) scale(3.319) rotate(0)"><path d="M10 0L20 10L10 20L0 10L10 0Z" fill="#d5ebf2"/></g><rect x="597.38" y="398.25" width="66.38" height="66.38" fill="#f6cec7"/><g transform="translate(597.38,398.25) scale(3.319) rotate(0)"><path d="M5 0H10L5 5L0 10V5L5 0Z" fill="#f4c3ba"/><path d="M20 15V20H15L20 15Z" fill="#f4c3ba"/><path d="M20 5V10L15 15L10 20H5L20 5Z" fill="#f4c3ba"/><path d="M15 0H20L5 15.0002L0 20.0002V15.0002L15 0Z" fill="#f4c3ba"/></g><rect x="663.75" y="398.25" width="66.38" height="66.38" fill="#daedf4"/><g transform="translate(663.75,398.25) scale(3.319) rotate(0)"><path d="M10 0L20 10L10 20L0 10L10 0Z" fill="#fbe8e4"/></g><rect x="862.88" y="398.25" width="66.38" height="66.38" fill="#c0e1ec"/><path d="M 862.88 464.63 A 66.38 66.38 0 0 1  929.26 398.25 L 862.88 464.63 A 66.38 66.38 0 0 0 929.26 398.25" fill="#cae6ef"/><rect x="132.75" y="464.63" width="66.38" height="66.38" fill="#fdf4f2"/><path d="M 132.75 464.63 A 66.38 66.38 0 0 1 199.13 531.01 L 132.75 531.01" fill="#fef7f6"/><rect x="265.5" y="464.63" width="66.38" height="66.38" fill="#cee8f0"/><path d="M 265.5 531.01 A 66.38 66.38 0 0 1  331.88 464.63 L 265.5 531.01 A 66.38 66.38 0 0 0 331.88 464.63" fill="#f4c6bd"/><rect x="398.25" y="464.625" width="66.375" height="66.375" fill="none"/><rect x="398.25" y="464.63" width="33.19" height="33.19" fill="#dff0f5"/><g transform="translate(398.25,464.63) scale(1.6595) rotate(0)"><path d="M5 0H10L5 5L0 10V5L5 0Z" fill="#add8e6"/><path d="M20 15V20H15L20 15Z" fill="#add8e6"/><path d="M20 5V10L15 15L10 20H5L20 5Z" fill="#add8e6"/><path d="M15 0H20L5 15.0002L0 20.0002V15.0002L15 0Z" fill="#add8e6"/></g><rect x="730.13" y="464.63" width="66.38" height="66.38" fill="#f1b1a6"/><g transform="translate(730.13,464.63) scale(3.319) rotate(0)"><path d="M5 0H10L5 5L0 10V5L5 0Z" fill="#def0f5"/><path d="M20 15V20H15L20 15Z" fill="#def0f5"/><path d="M20 5V10L15 15L10 20H5L20 5Z" fill="#def0f5"/><path d="M15 0H20L5 15.0002L0 20.0002V15.0002L15 0Z" fill="#def0f5"/></g></g></svg>