<svg xmlns="http://www.w3.org/2000/svg" viewBox="0 0 548.12 580.47"><defs><style>.cls-1{fill:#dddede;}.cls-2{font-size:18px;fill:#686b6d;}.cls-10,.cls-2,.cls-8{font-family:ArialMT, Arial;}.cls-3{fill:#fff;}.cls-4{fill:#003da5;}.cls-5{fill:#ffcf00;}.cls-6{fill:#00833f;}.cls-7{fill:#da291c;}.cls-10,.cls-8{font-size:15px;}.cls-9{letter-spacing:-0.02em;}.cls-10{fill:#101820;}</style></defs><g id="Layer_2" data-name="Layer 2"><g id="Layer_1-2" data-name="Layer 1"><circle class="cls-1" cx="274.06" cy="274.06" r="274.06"/><text class="cls-2" transform="translate(447.08 109.39) rotate(47.84)">B</text><text class="cls-2" transform="translate(455.04 118.21) rotate(50.44)">â</text><text class="cls-2" transform="translate(461.33 125.88) rotate(52.21)">t</text><text class="cls-2" transform="matrix(0.6, 0.8, -0.8, 0.6, 464.35, 129.79)">i</text><text class="cls-2" transform="translate(466.72 132.94) rotate(54.45)">r</text><text class="cls-2" transform="matrix(0.56, 0.83, -0.83, 0.56, 470.16, 137.76)"> </text><text class="cls-2" transform="translate(472.94 141.85) rotate(56.81)">l</text><text class="cls-2" transform="translate(475.11 145.09) rotate(58.47)">a</text><text class="cls-2" transform="matrix(0.5, 0.87, -0.87, 0.5, 480.28, 153.58)"> </text><text class="cls-2" transform="translate(482.74 157.82) rotate(61.91)">c</text><text class="cls-2" transform="translate(486.94 165.66) rotate(64.17)">o</text><text class="cls-2" transform="translate(491.24 174.56) rotate(66.56)">n</text><text class="cls-2" transform="translate(495.15 183.67) rotate(68.35)">f</text><text class="cls-2" transform="matrix(0.35, 0.94, -0.94, 0.35, 496.97, 188.27)">i</text><text class="cls-2" transform="translate(498.39 191.92) rotate(71.09)">a</text><text class="cls-2" transform="translate(501.6 201.26) rotate(73.48)">n</text><text class="cls-2" transform="translate(504.4 210.74) rotate(75.75)">c</text><text class="cls-2" transform="translate(506.6 219.36) rotate(78.02)">e</text><text class="cls-2" transform="translate(37.99 237.42) rotate(-79.8)">Ê</text><text class="cls-2" transform="translate(40.16 225.7) rotate(-77.77)">t</text><text class="cls-2" transform="matrix(0.23, -0.97, 0.97, 0.23, 41.2, 220.88)">r</text><text class="cls-2" transform="matrix(0.27, -0.96, 0.96, 0.27, 42.54, 215.15)">e</text><text class="cls-2" transform="matrix(0.3, -0.96, 0.96, 0.3, 45.22, 205.59)"> </text><text class="cls-2" transform="matrix(0.33, -0.95, 0.95, 0.33, 46.63, 200.91)">a</text><text class="cls-2" transform="translate(49.86 191.54) rotate(-68.58)">u</text><text class="cls-2" transform="translate(53.52 182.32) rotate(-66.79)">t</text><text class="cls-2" transform="translate(55.41 177.81) rotate(-65)">h</text><text class="cls-2" transform="translate(59.59 168.83) rotate(-62.62)">e</text><text class="cls-2" transform="matrix(0.5, -0.87, 0.87, 0.5, 64.14, 160.06)">n</text><text class="cls-2" transform="matrix(0.52, -0.85, 0.85, 0.52, 69.09, 151.47)">t</text><text class="cls-2" transform="translate(71.67 147.27) rotate(-57.4)">i</text><text class="cls-2" transform="matrix(0.56, -0.83, 0.83, 0.56, 73.74, 143.95)">q</text><text class="cls-2" transform="translate(79.31 135.77) rotate(-53.37)">u</text><text class="cls-2" transform="matrix(0.63, -0.78, 0.78, 0.63, 85.21, 127.83)">e</text><text class="cls-2" transform="matrix(0.66, -0.75, 0.75, 0.66, 91.45, 120.13)">s</text><text class="cls-2" transform="translate(215.95 521.41) rotate(11.78)">C</text><text class="cls-2" transform="matrix(0.99, 0.17, -0.17, 0.99, 228.97, 524.06)">r</text><text class="cls-2" transform="translate(235.12 525.12) rotate(7.73)">é</text><text class="cls-2" transform="translate(245.33 526.5) rotate(5.42)">e</text><text class="cls-2" transform="matrix(1, 0.06, -0.06, 1, 255.54, 527.44)">r</text><text class="cls-2" transform="translate(261.71 527.81) rotate(2.28)"> </text><text class="cls-2" transform="matrix(1, 0.01, -0.01, 1, 266.94, 528.05)">d</text><text class="cls-2" transform="translate(277.27 528.15) rotate(-1.8)">e</text><text class="cls-2" transform="matrix(1, -0.07, 0.07, 1, 287.55, 527.81)">s</text><text class="cls-2" transform="translate(296.73 527.13) rotate(-5.64)"> </text><text class="cls-2" transform="translate(301.87 526.62) rotate(-6.7)">l</text><text class="cls-2" transform="translate(305.97 526.14) rotate(-7.64)">i</text><text class="cls-2" transform="translate(310.15 525.62) rotate(-9.28)">e</text><text class="cls-2" transform="matrix(0.98, -0.2, 0.2, 0.98, 320.32, 523.95)">n</text><text class="cls-2" transform="translate(330.42 521.86) rotate(-13.85)">s</text><circle class="cls-3" cx="274.06" cy="274.06" r="217.32"/><path class="cls-4" d="M270.44,203l-1.12.07a71,71,0,0,0-66.22,66.22l-.07,1.12H55.91l0-1.23A218,218,0,0,1,254.6,56.74l.21,2.4A215.57,215.57,0,0,0,58.38,268h142.4A73.44,73.44,0,0,1,268,200.78V93.33h2.41Z"/><path class="cls-4" d="M269.24,57.14C262.25,55,253.5,51.23,248,47l4.85,11.18-3.43,11.7C254.35,65,262.56,60.1,269.24,57.14Z"/><path class="cls-5" d="M428.33,428.33a217.55,217.55,0,0,1-134.81,63.05L293.3,489A215.59,215.59,0,0,0,489.74,280.09H347.34a73.46,73.46,0,0,1-67.25,67.25V454.79h-2.42V345.09l1.13-.07A71.07,71.07,0,0,0,345,278.8l.07-1.13H492.21l0,1.24a217.54,217.54,0,0,1-63.85,149.42Z"/><path class="cls-5" d="M278.88,491c7,2.12,15.74,5.91,21.28,10.17L295.31,490l3.43-11.69C293.76,483.16,285.56,488,278.88,491Z"/><path class="cls-6" d="M491.38,254.6l-2.41.21A215.56,215.56,0,0,0,280.09,58.38v142.4a72.75,72.75,0,0,1,24.71,6.47A73.43,73.43,0,0,1,347.34,268H454.79v2.41H345.09l-.07-1.12A71.07,71.07,0,0,0,278.8,203.1l-1.13-.07V55.91l1.24,0A218,218,0,0,1,491.38,254.6Z"/><path class="cls-6" d="M491,269.24c2.12-7,5.91-15.74,10.17-21.28L490,252.81l-11.69-3.43C483.16,254.35,488,262.56,491,269.24Z"/><path class="cls-7" d="M270.44,492.21l-1.23,0A218,218,0,0,1,56.74,293.51l2.4-.21A215.6,215.6,0,0,0,268,489.74V347.34a73.46,73.46,0,0,1-67.25-67.25H93.33v-2.42H203l.07,1.13A71,71,0,0,0,269.32,345l1.12.07Z"/><path class="cls-7" d="M57.14,278.88c-2.11,7-5.91,15.74-10.16,21.28l11.18-4.85,11.7,3.43C65,293.76,60.1,285.56,57.14,278.88Z"/><text class="cls-8" transform="translate(121.07 159.78)">Collaborer avec <tspan x="0" y="18">les autres et les </tspan><tspan x="0" y="36">inspirer</tspan></text><text class="cls-8" transform="translate(322.95 159.78)">Communiquer<tspan x="0" y="18">e</tspan><tspan class="cls-9" x="8.34" y="18">f</tspan><tspan x="12.24" y="18">ficacement et </tspan><tspan x="0" y="36">avec empathie</tspan></text><text class="cls-8" transform="translate(119.13 348.29)">Favoriser <tspan x="0" y="18">l’innovation et </tspan><tspan x="0" y="36">l’agilité face au </tspan><tspan x="0" y="54">changement</tspan></text><text class="cls-8" transform="translate(330.77 349.35)">Mettre en pratique<tspan x="0" y="18">l’excellence </tspan><tspan x="0" y="36">stratégique et </tspan><tspan x="0" y="54">opérationnelle</tspan></text><text class="cls-10" transform="translate(250.72 270.75)">Dirigez<tspan x="-15.42" y="18">vous même</tspan></text></g></g></svg>