<svg xmlns="http://www.w3.org/2000/svg" viewBox="0 0 548.12 600.61"><defs><style>.cls-1{fill:#dddede;}.cls-2{font-size:23px;fill:#686b6d;}.cls-11,.cls-2,.cls-8{font-family:ArialMT, Arial;}.cls-3{fill:#fff;}.cls-4{fill:#003da5;}.cls-5{fill:#ffcf00;}.cls-6{fill:#00833f;}.cls-7{fill:#da291c;}.cls-11,.cls-8{font-size:17px;}.cls-9{letter-spacing:-0.02em;}.cls-10{letter-spacing:-0.06em;}.cls-11{fill:#101820;}.cls-12{letter-spacing:-0.09em;}</style></defs><g id="Layer_2" data-name="Layer 2"><g id="Layer_1-2" data-name="Layer 1"><circle class="cls-1" cx="274.06" cy="274.06" r="274.06"/><text class="cls-2" transform="matrix(0.61, 0.79, -0.79, 0.61, 458.95, 122.75)">B</text><text class="cls-2" transform="matrix(0.56, 0.83, -0.83, 0.56, 468.11, 134.74)">u</text><text class="cls-2" transform="matrix(0.53, 0.85, -0.85, 0.53, 475.16, 145.24)">i</text><text class="cls-2" transform="translate(477.83 149.49) rotate(59.12)">l</text><text class="cls-2" transform="translate(480.45 153.72) rotate(61.24)">d</text><text class="cls-2" transform="matrix(0.45, 0.9, -0.9, 0.45, 486.48, 164.83)"> </text><text class="cls-2" transform="matrix(0.42, 0.91, -0.91, 0.42, 489.27, 170.44)">t</text><text class="cls-2" transform="translate(491.94 176.13) rotate(66.69)">r</text><text class="cls-2" transform="matrix(0.36, 0.93, -0.93, 0.36, 494.95, 182.99)">u</text><text class="cls-2" transform="translate(499.43 194.77) rotate(72.01)">s</text><text class="cls-2" transform="translate(502.9 205.57) rotate(74.13)">t</text><text class="cls-2" transform="translate(39.07 230.75) rotate(-77.77)">B</text><text class="cls-2" transform="translate(42.3 215.98) rotate(-74.43)">e</text><text class="cls-2" transform="matrix(0.31, -0.95, 0.95, 0.31, 45.75, 203.82)"> </text><text class="cls-2" transform="translate(47.6 197.88) rotate(-69.87)">a</text><text class="cls-2" transform="matrix(0.39, -0.92, 0.92, 0.39, 51.92, 186.07)">u</text><text class="cls-2" transform="translate(56.94 174.48) rotate(-64.56)">t</text><text class="cls-2" transform="translate(59.57 168.81) rotate(-62.28)">h</text><text class="cls-2" transform="matrix(0.51, -0.86, 0.86, 0.51, 65.42, 157.67)">e</text><text class="cls-2" transform="translate(71.84 146.86) rotate(-56.24)">n</text><text class="cls-2" transform="matrix(0.59, -0.81, 0.81, 0.59, 78.92, 136.37)">t</text><text class="cls-2" transform="translate(82.62 131.29) rotate(-52.63)">i</text><text class="cls-2" transform="matrix(0.63, -0.77, 0.77, 0.63, 85.59, 127.31)">c</text><text class="cls-2" transform="translate(185.67 512.32) rotate(18.16)">M</text><text class="cls-2" transform="matrix(0.97, 0.25, -0.25, 0.97, 204.55, 518.39)">a</text><text class="cls-2" transform="translate(217.4 521.67) rotate(11.6)">k</text><text class="cls-2" transform="matrix(0.99, 0.15, -0.15, 0.99, 229.18, 524.09)">e</text><text class="cls-2" transform="translate(242.2 526.03) rotate(6.52)"> </text><text class="cls-2" transform="translate(248.93 526.84) rotate(4.43)">c</text><text class="cls-2" transform="matrix(1, 0.03, -0.03, 1, 260.89, 527.77)">o</text><text class="cls-2" transform="translate(274.21 528.12) rotate(-1.42)">n</text><text class="cls-2" transform="translate(287.52 527.77) rotate(-4.44)">n</text><text class="cls-2" transform="translate(300.81 526.73) rotate(-7.46)">e</text><text class="cls-2" transform="matrix(0.98, -0.18, 0.18, 0.98, 314, 524.97)">c</text><text class="cls-2" transform="matrix(0.98, -0.22, 0.22, 0.98, 325.67, 522.79)">t</text><text class="cls-2" transform="translate(332.13 521.35) rotate(-13.81)">i</text><text class="cls-2" transform="matrix(0.96, -0.27, 0.27, 0.96, 337.5, 520.1)">o</text><text class="cls-2" transform="translate(350.28 516.43) rotate(-18.96)">n</text><text class="cls-2" transform="translate(362.86 512.08) rotate(-21.82)">s</text><circle class="cls-3" cx="274.06" cy="274.06" r="217.32"/><path class="cls-4" d="M270.44,203l-1.12.07a71,71,0,0,0-66.22,66.22l-.07,1.12H55.91l0-1.23A218,218,0,0,1,254.6,56.74l.21,2.4A215.57,215.57,0,0,0,58.38,268h142.4A73.44,73.44,0,0,1,268,200.78V93.33h2.41Z"/><path class="cls-4" d="M269.24,57.14C262.25,55,253.5,51.23,248,47l4.85,11.18-3.43,11.7C254.35,65,262.56,60.1,269.24,57.14Z"/><path class="cls-5" d="M428.33,428.33a217.55,217.55,0,0,1-134.81,63.05L293.3,489A215.59,215.59,0,0,0,489.74,280.09H347.34a73.46,73.46,0,0,1-67.25,67.25V454.79h-2.42V345.09l1.13-.07A71.07,71.07,0,0,0,345,278.8l.07-1.13H492.21l0,1.24a217.54,217.54,0,0,1-63.85,149.42Z"/><path class="cls-5" d="M278.88,491c7,2.12,15.74,5.91,21.28,10.17L295.31,490l3.43-11.69C293.76,483.16,285.56,488,278.88,491Z"/><path class="cls-6" d="M491.38,254.6l-2.41.21A215.56,215.56,0,0,0,280.09,58.38v142.4a72.75,72.75,0,0,1,24.71,6.47A73.43,73.43,0,0,1,347.34,268H454.79v2.41H345.09l-.07-1.12A71.07,71.07,0,0,0,278.8,203.1l-1.13-.07V55.91l1.24,0A218,218,0,0,1,491.38,254.6Z"/><path class="cls-6" d="M491,269.24c2.12-7,5.91-15.74,10.17-21.28L490,252.81l-11.69-3.43C483.16,254.35,488,262.56,491,269.24Z"/><path class="cls-7" d="M270.44,492.21l-1.23,0A218,218,0,0,1,56.74,293.51l2.4-.21A215.6,215.6,0,0,0,268,489.74V347.34a73.46,73.46,0,0,1-67.25-67.25H93.33v-2.42H203l.07,1.13A71,71,0,0,0,269.32,345l1.12.07Z"/><path class="cls-7" d="M57.14,278.88c-2.11,7-5.91,15.74-10.16,21.28l11.18-4.85,11.7,3.43C65,293.76,60.1,285.56,57.14,278.88Z"/><text class="cls-8" transform="translate(120.5 162.24)">Collaborating <tspan x="0" y="20.4">with &amp; </tspan><tspan x="0" y="40.8">Inspiring </tspan><tspan x="0" y="61.2">Others</tspan></text><text class="cls-8" transform="translate(313.8 162.43)">Communicating <tspan x="0" y="20.4">E</tspan><tspan class="cls-9" x="11.34" y="20.4">f</tspan><tspan x="15.75" y="20.4">fectively &amp; </tspan><tspan x="0" y="40.8">with Empathy</tspan></text><text class="cls-8" transform="translate(120.5 363.46)">Fostering <tspan x="0" y="20.4">Innovation &amp; </tspan><tspan x="0" y="40.8">Change</tspan><tspan class="cls-10" x="59.55" y="40.8"> </tspan><tspan x="63.33" y="40.8">Agility</tspan></text><text class="cls-8" transform="translate(313.8 363.46)">Executing Strategic <tspan x="0" y="20.4">&amp; Operational </tspan><tspan x="0" y="40.8">Excellence</tspan></text><text class="cls-11" transform="translate(243.81 266.47)">Leading <tspan class="cls-12" x="-0.15" y="20.4">Y</tspan><tspan x="9.63" y="20.4">ourself</tspan></text></g></g></svg>